<?xml version="1.0"?>
<svg xmlns="http://www.w3.org/2000/svg" xmlns:xlink="http://www.w3.org/1999/xlink" width="600" height="978.3183360215099" viewBox="-5 -5 610 988.3183360215099">
  <style type="text/css">.region {fill:#ffffff;stroke: #0552B5;stroke-linejoin: round;fill-rule: evenodd;clip-rule: evenodd;stroke-width: 1;}</style>
  <!-- Mercator Projection -->
  <path class="region" d="M 154.6,410.1 155.1,409.1 156.8,405.7 158.2,404.0 160.2,402.1 162.7,400.9 163.6,399.3 164.2,396.9 165.4,395.8 166.5,393.3 167.1,389.9 169.2,387.9 172.4,387.0 174.0,386.0 176.3,385.3 179.1,383.6 181.0,382.8 181.9,382.0 185.4,380.4 187.8,378.7 191.1,377.4 195.8,375.1 197.7,373.8 198.1,373.9 200.0,372.4 201.6,371.7 205.1,369.5 205.8,369.3 209.8,366.5 212.1,363.9 214.9,362.3 217.5,360.4 221.3,358.8 223.0,357.6 223.9,356.1 226.0,355.0 227.2,353.9 228.9,353.3 231.2,351.7 232.0,350.6 233.4,350.2 235.1,347.8 235.2,346.9 236.9,345.6 239.3,343.1 241.2,342.3 244.8,341.2 247.2,339.9 250.0,337.8 251.1,337.9 253.7,339.6 255.7,339.8 257.7,341.0 258.9,340.7 259.1,339.2 260.7,338.2 259.1,339.6 259.4,341.5 261.7,340.7 261.9,339.4 265.0,333.9 265.2,334.0 262.1,339.4 262.5,340.7 264.0,340.0 264.4,340.9 266.3,339.8 265.7,338.8 266.0,338.2 267.2,338.6 268.0,339.9 268.8,337.4 269.8,336.0 269.6,335.4 267.0,334.8 267.1,334.5 269.7,335.1 270.2,333.8 271.0,333.4 271.9,329.0 272.6,327.8 273.1,324.9 272.9,322.3 273.2,321.9 273.1,319.8 273.3,319.0 273.1,312.6 273.5,311.7 273.4,310.1 275.0,308.2 277.0,307.0 277.8,306.0 278.3,306.1 279.3,304.9 279.7,302.8 280.7,301.9 281.9,301.4 282.6,300.2 283.0,298.2 282.9,296.4 283.2,293.8 283.0,290.9 283.8,289.7 283.9,288.0 284.6,287.6 284.4,286.5 284.9,286.1 285.0,284.8 284.2,281.8 283.8,281.9 282.1,276.2 282.8,275.5 282.1,273.3 280.7,270.2 279.3,269.8 277.5,270.3 274.4,271.5 274.3,271.2 277.8,270.0 277.3,268.0 277.9,267.6 278.4,268.8 279.6,267.9 279.4,266.6 277.4,267.2 276.9,265.9 277.2,265.6 276.3,263.9 273.9,265.0 273.9,264.1 276.9,262.8 275.0,258.7 275.3,258.2 270.8,248.9 270.3,248.4 270.6,247.3 271.4,246.6 272.1,244.7 272.1,242.2 272.7,239.9 272.4,238.2 271.1,235.1 267.3,233.7 267.2,233.5 272.8,235.5 275.0,236.1 276.1,234.9 276.3,233.9 275.5,233.7 274.1,234.2 275.7,233.2 276.3,230.5 274.7,228.2 272.9,229.7 272.0,228.4 273.6,227.2 272.8,226.1 268.2,229.2 267.3,228.8 271.9,225.5 271.4,224.1 270.5,222.6 269.6,220.5 269.8,219.7 268.6,215.9 268.7,214.3 269.1,213.1 269.0,211.7 269.4,209.3 270.7,206.7 272.2,205.5 273.0,204.2 273.4,202.3 274.7,202.6 276.9,202.1 279.0,198.5 279.2,194.3 278.9,191.4 277.9,188.6 276.6,188.5 275.7,184.9 270.3,186.1 270.3,186.3 266.5,187.2 266.4,186.9 274.4,185.0 275.8,184.3 277.7,183.9 277.6,181.9 275.4,178.0 274.8,177.4 272.0,172.8 266.8,166.3 265.2,164.0 262.9,160.7 262.3,159.2 261.9,157.5 259.4,153.9 258.8,153.5 256.3,154.9 258.2,153.2 256.9,151.1 253.3,146.1 252.6,144.6 251.2,142.7 251.0,140.7 249.7,138.0 248.6,136.7 246.8,133.7 244.9,131.6 245.0,131.2 242.5,127.5 240.2,124.5 236.2,120.2 234.9,118.3 233.2,116.6 233.0,115.8 228.8,111.9 226.4,109.5 226.4,109.2 220.4,103.7 215.8,100.0 210.4,96.2 210.0,96.1 207.0,93.8 205.7,93.1 201.3,90.1 190.4,83.1 185.9,80.4 168.4,70.8 161.6,67.8 158.3,66.5 156.0,65.6 152.6,64.5 148.4,63.7 147.1,64.0 146.8,64.9 144.6,67.1 141.3,69.1 140.7,69.7 141.5,71.0 140.4,71.7 140.0,70.8 138.3,70.9 135.9,72.6 137.1,75.1 136.8,75.2 135.7,72.8 134.1,73.1 133.0,73.8 132.6,75.0 132.0,75.0 132.2,76.0 131.7,76.9 132.8,79.3 132.7,79.6 131.6,77.2 130.7,77.4 128.6,79.6 127.7,81.2 125.8,82.9 126.0,84.5 125.3,83.1 123.6,83.9 122.5,84.1 122.2,84.7 121.3,84.5 119.8,85.8 119.0,86.9 118.6,89.6 116.1,93.5 113.4,96.0 111.9,96.7 110.4,96.8 106.7,97.4 104.2,94.1 103.6,89.8 103.7,89.0 104.9,86.2 105.1,83.4 109.3,61.2 133.5,33.8 148.8,30.4 158.0,21.3 159.5,18.4 163.8,11.4 171.9,3.2 176.4,0.8 181.5,0.0 189.8,4.1 205.5,4.1 219.4,7.4 226.9,9.5 235.1,11.0 247.4,12.4 266.2,11.6 268.2,9.8 273.0,8.2 278.8,3.0 285.4,3.1 286.4,8.2 284.7,15.0 278.9,24.8 291.9,25.2 298.1,35.7 305.3,37.1 320.8,37.4 329.0,40.6 336.2,42.6 343.0,45.2 351.6,46.4 363.5,50.0 372.5,54.3 385.8,62.8 395.4,63.5 405.5,64.4 413.4,64.2 427.7,63.0 434.2,61.7 437.7,63.3 446.4,72.9 447.7,73.4 449.8,77.3 452.8,81.6 456.2,86.2 467.9,94.5 478.0,99.0 486.1,100.1 492.9,106.0 503.6,110.6 512.7,115.5 518.5,118.3 529.5,120.1 539.9,123.1 549.1,124.2 555.2,126.6 565.1,133.1 569.5,137.7 573.2,142.0 576.7,145.7 580.0,148.8 581.3,150.0 582.4,150.6 582.7,151.3 582.4,153.2 583.8,153.0 584.2,153.9 583.9,154.9 582.1,156.6 581.4,157.8 581.7,159.5 581.1,159.8 581.7,160.8 582.6,160.1 583.7,161.7 584.1,162.8 583.7,163.4 583.5,165.1 582.4,165.6 582.2,166.3 583.1,166.7 582.9,168.8 583.9,169.5 584.3,170.6 584.1,171.3 582.8,170.0 581.1,170.6 581.2,171.7 579.4,172.4 579.4,174.2 578.3,174.5 578.2,176.2 576.7,176.8 575.4,176.4 574.7,177.4 573.9,179.6 571.5,180.2 570.7,181.7 569.3,181.4 569.0,182.0 567.4,181.9 566.2,183.8 566.2,184.5 565.2,185.9 565.2,187.1 565.8,187.4 565.6,189.2 564.5,189.9 564.3,191.1 563.1,192.3 563.2,193.9 563.7,195.5 562.6,195.6 561.9,194.6 560.0,194.4 560.4,196.0 560.1,197.1 559.3,197.0 558.2,197.6 556.0,197.6 555.4,198.4 556.2,200.9 555.4,201.7 554.0,201.8 553.8,203.2 552.2,205.4 552.0,206.3 551.2,206.8 550.8,208.7 547.1,213.9 546.0,214.7 545.7,216.4 547.7,218.1 547.8,218.6 547.0,219.9 548.0,220.5 548.4,221.8 547.4,222.9 549.3,225.5 549.9,227.5 549.5,229.5 551.1,230.7 551.9,232.4 553.2,233.9 553.9,235.8 555.9,236.6 556.5,236.1 557.2,236.4 557.1,239.6 557.9,242.2 557.5,244.2 556.1,248.2 554.2,249.6 553.9,250.7 552.5,252.2 551.1,255.0 550.2,255.9 550.0,257.5 547.4,258.1 546.6,258.6 545.5,260.6 545.9,262.5 544.9,264.2 545.3,264.9 544.8,266.1 543.4,267.6 542.9,268.8 543.1,270.1 542.6,271.4 541.0,271.0 539.0,271.6 537.8,274.7 535.7,275.4 534.3,276.5 533.0,276.3 531.3,277.8 530.2,278.0 530.0,279.9 529.4,281.2 529.3,283.8 527.9,283.3 527.0,283.5 525.4,285.1 523.9,286.0 522.7,286.3 521.5,285.4 520.5,285.4 519.9,286.0 520.3,289.6 520.3,292.8 521.1,298.2 521.3,300.3 522.0,304.4 521.6,308.5 522.5,314.2 521.5,316.1 521.1,317.8 522.0,320.8 522.8,327.9 524.3,331.1 527.5,335.1 528.3,337.3 529.0,340.0 531.6,346.1 529.8,348.3 528.9,353.3 528.5,354.0 525.9,360.1 524.9,366.4 524.5,368.0 524.1,370.7 522.5,373.2 519.1,392.8 518.2,393.5 516.6,395.2 515.7,398.5 514.1,400.0 509.7,404.8 507.5,406.5 504.0,410.1 500.5,414.5 502.0,415.4 501.4,415.9 501.4,418.6 503.1,418.1 502.7,421.6 503.4,422.7 503.3,424.8 499.6,427.6 501.0,431.5 503.7,431.9 505.5,433.4 507.9,436.6 507.3,438.6 506.6,442.7 508.8,444.7 512.3,445.5 511.3,447.3 509.6,449.1 510.4,450.9 509.8,453.5 510.5,454.0 508.3,455.1 509.2,456.1 509.3,457.2 507.8,458.8 508.2,462.6 511.2,465.9 513.7,465.1 514.3,465.5 515.1,467.0 515.1,468.6 514.6,471.1 513.5,475.6 515.2,482.0 518.6,481.6 521.2,484.4 524.1,491.8 524.5,491.7 528.2,504.3 534.7,503.3 538.0,504.3 541.1,503.8 540.4,506.6 540.6,508.8 540.3,511.9 541.3,514.2 540.7,516.6 539.4,517.9 538.8,519.4 535.1,519.6 535.3,520.3 536.9,523.1 539.1,524.1 540.7,525.3 542.5,527.1 544.9,528.5 549.4,532.2 545.7,535.6 545.0,536.1 541.8,537.6 539.0,538.4 536.7,538.6 537.3,544.2 538.0,546.3 539.2,552.9 540.7,556.7 541.4,556.2 540.7,554.8 541.2,553.8 540.6,553.0 540.8,552.2 541.7,552.0 542.5,552.7 543.3,552.5 543.3,549.8 545.4,548.9 546.3,548.2 547.5,549.8 548.8,550.6 549.6,550.6 552.1,549.2 553.0,547.7 554.9,548.9 555.3,547.5 554.6,543.4 556.3,542.6 557.3,542.4 558.7,543.0 560.5,544.4 561.3,544.6 564.8,549.9 571.1,548.3 574.8,548.3 575.6,551.4 576.6,551.9 579.4,554.9 579.9,557.7 578.0,559.5 577.9,562.3 576.7,562.7 574.9,564.7 575.1,568.9 573.0,569.0 574.0,570.2 574.6,571.5 574.5,572.7 573.6,572.8 574.2,580.4 578.9,580.5 583.4,580.4 585.1,580.3 591.0,580.6 592.4,581.7 592.3,583.1 593.6,583.3 595.3,582.7 597.0,583.0 597.9,582.2 599.6,583.0 600.0,586.6 600.0,588.3 598.7,588.1 597.3,588.7 597.1,590.0 594.1,593.8 591.7,593.4 589.8,598.5 589.1,602.3 591.6,605.1 594.4,607.1 595.1,609.4 597.7,613.2 598.7,616.9 599.5,623.4 596.7,627.2 590.4,628.4 590.3,632.6 591.4,633.5 591.1,634.0 588.3,633.9 586.7,633.7 584.9,631.8 581.7,631.3 579.2,631.7 581.2,636.5 579.9,636.7 576.8,636.9 574.0,636.7 571.2,635.1 566.4,633.0 564.1,631.5 557.9,628.7 555.9,628.2 552.3,629.2 551.6,629.9 552.7,630.1 552.5,632.3 552.8,633.1 554.1,633.6 556.4,633.9 556.1,634.7 554.9,634.9 554.5,636.5 553.8,637.8 553.6,639.8 554.0,641.0 555.8,640.9 553.4,648.6 538.8,643.9 538.4,642.6 534.5,640.3 530.2,638.4 527.4,638.9 525.0,637.8 524.2,636.0 518.7,632.7 512.4,629.9 510.9,632.5 512.2,635.4 511.4,635.7 506.9,640.7 505.3,639.7 503.2,636.7 500.5,633.7 493.9,623.4 489.2,625.3 488.7,626.0 487.7,625.1 484.2,625.2 479.8,625.6 476.8,626.0 476.5,626.4 473.3,625.9 473.4,629.6 472.6,631.3 472.7,634.6 471.8,635.3 472.5,636.1 472.4,637.2 473.9,639.0 471.4,641.1 466.8,638.6 465.9,635.1 464.4,635.2 461.5,633.7 460.6,633.6 462.4,638.4 462.7,639.9 461.5,641.3 461.9,644.0 462.7,644.6 462.7,645.4 456.2,648.6 455.9,650.2 454.4,651.9 453.2,653.8 454.4,657.3 454.2,659.0 451.9,659.5 451.9,661.1 450.8,662.2 448.8,662.7 449.1,661.7 445.9,661.0 442.8,658.0 442.7,656.5 443.5,653.9 437.7,654.5 432.4,654.9 426.8,654.4 424.8,653.7 418.5,649.5 416.6,648.5 408.5,642.9 402.8,639.6 399.1,644.6 398.6,645.7 396.5,645.6 395.0,646.0 393.8,647.3 394.8,649.2 395.7,649.4 396.3,648.2 397.6,647.4 399.4,647.7 400.2,648.8 400.4,649.9 400.0,651.0 398.4,652.1 398.0,653.0 398.2,654.6 398.8,654.8 399.5,654.2 400.0,651.8 401.2,651.8 402.5,653.9 402.8,655.2 404.0,657.4 404.2,658.8 403.4,658.9 402.3,657.0 401.1,656.8 400.4,658.1 401.2,660.3 400.4,661.2 400.2,663.0 401.9,664.1 402.8,663.9 401.9,662.8 402.1,660.7 403.5,660.5 403.9,661.1 403.0,661.8 403.4,663.5 405.4,664.3 406.2,665.3 406.1,667.4 404.9,668.0 405.1,666.8 404.4,666.3 403.9,666.8 404.2,669.1 403.8,669.8 402.7,670.1 401.3,669.8 399.8,669.9 398.4,671.3 398.7,672.5 398.2,673.4 397.1,673.8 396.8,673.3 394.8,672.6 394.5,672.0 395.0,671.3 396.8,671.0 397.8,669.9 397.5,669.1 395.9,669.1 393.7,669.8 393.4,671.0 394.1,672.9 393.1,674.5 391.3,673.3 390.9,674.7 389.3,675.8 388.5,677.6 388.0,677.8 387.4,676.8 386.1,676.3 385.0,676.8 385.0,678.2 386.4,679.2 388.3,681.9 389.1,682.4 389.1,684.1 388.3,684.9 387.1,683.4 386.3,683.6 386.3,685.0 385.4,686.2 384.2,686.0 383.4,687.0 383.6,687.5 385.4,687.6 385.8,689.0 385.1,690.3 384.7,693.0 385.2,693.4 386.9,693.7 388.0,695.0 388.7,695.2 390.4,694.6 391.7,696.0 393.4,696.5 393.6,697.9 392.4,698.6 390.9,698.3 390.4,698.6 391.2,701.4 392.0,702.9 393.1,703.0 394.0,701.7 395.3,701.3 396.9,703.1 398.9,704.1 398.6,705.9 397.3,705.5 397.0,706.4 398.3,707.7 397.7,708.6 396.4,708.5 395.7,709.4 396.0,710.6 394.7,712.3 394.4,713.4 395.0,714.3 394.6,715.4 396.0,716.3 395.2,716.8 394.1,716.2 392.4,716.7 391.8,717.6 389.7,718.3 389.9,719.2 391.3,720.1 391.8,720.8 389.4,721.2 388.5,721.7 387.4,723.4 388.3,723.9 390.0,723.2 391.5,723.1 391.8,723.9 392.1,726.4 392.9,726.8 393.0,728.7 391.9,728.8 391.8,727.8 391.0,726.4 389.5,726.1 387.0,727.3 387.1,728.5 388.4,728.9 389.4,729.7 390.1,732.6 389.6,733.2 390.3,733.8 391.9,732.6 393.5,733.0 394.2,734.4 394.2,735.5 393.8,736.3 392.0,735.9 390.5,736.3 389.8,736.8 389.5,737.8 390.0,739.1 391.1,739.1 392.0,739.8 392.8,739.2 393.1,737.5 394.8,737.4 397.0,739.5 396.8,741.1 397.4,744.4 396.5,746.0 395.1,745.1 394.3,742.7 393.5,741.9 391.7,741.6 391.0,742.2 391.5,743.5 391.6,745.2 392.2,746.4 393.7,747.8 394.2,749.4 396.0,751.5 398.1,753.3 399.7,756.0 398.8,758.9 397.0,759.6 397.8,760.7 397.1,762.1 395.8,762.4 394.7,761.5 394.0,761.8 392.6,763.1 392.1,764.5 393.1,765.4 392.4,767.1 393.6,769.0 393.7,769.7 392.6,771.2 392.5,772.2 393.9,774.7 393.7,775.9 392.6,776.0 392.5,776.8 393.2,777.6 397.6,779.6 397.8,780.1 397.0,782.6 395.2,781.5 394.0,782.8 392.6,783.1 392.3,783.9 393.0,785.2 393.3,786.9 395.1,786.7 397.0,786.8 399.4,788.3 399.6,790.0 398.5,790.7 395.8,791.4 393.5,791.7 392.9,793.0 393.6,794.0 393.0,795.5 392.1,795.7 391.4,797.0 392.9,798.1 392.8,799.0 391.7,799.4 387.4,802.5 388.8,803.9 387.6,806.2 386.5,806.1 386.2,806.8 389.8,806.6 390.5,807.0 390.9,808.5 389.5,810.1 389.3,811.4 390.5,813.2 388.2,816.8 384.0,821.2 382.8,821.7 377.2,825.6 375.1,827.5 372.7,829.0 368.7,831.2 366.2,831.9 364.2,831.8 361.7,831.0 360.0,828.8 358.8,827.8 357.6,825.8 354.6,823.1 354.3,822.2 349.9,818.5 344.9,816.8 343.1,815.6 340.5,813.7 338.6,814.1 337.3,813.9 336.5,814.6 334.2,814.0 333.9,814.5 331.6,815.5 331.3,817.7 331.2,826.6 331.3,827.2 331.0,829.5 331.4,836.0 334.5,841.5 335.2,846.1 337.6,848.7 339.4,851.1 339.8,852.7 338.2,855.9 336.9,857.9 332.1,861.3 328.0,863.4 325.3,863.5 322.5,862.1 321.7,861.4 319.6,860.4 318.3,858.4 316.2,855.5 314.6,853.8 312.3,852.8 310.8,852.5 302.5,853.8 297.0,855.4 294.9,856.6 294.3,856.6 289.0,858.5 286.9,858.7 284.7,859.4 280.4,860.4 274.8,863.6 271.0,867.8 269.1,870.1 264.6,875.9 262.8,879.2 261.5,880.7 259.1,886.1 258.1,892.0 257.3,895.9 257.7,897.5 257.9,900.1 257.7,902.8 257.8,904.2 257.0,905.7 257.6,907.4 257.1,908.0 257.2,910.5 255.9,913.3 256.5,913.2 256.2,915.3 254.7,916.9 254.8,917.7 256.1,922.2 257.4,924.8 257.6,926.3 258.1,926.9 258.0,928.0 258.7,928.8 258.7,930.9 258.0,931.7 257.2,931.4 257.5,932.7 257.7,936.7 255.5,943.7 257.0,946.8 257.2,948.9 256.4,950.9 256.7,952.7 257.1,952.9 257.5,955.7 256.7,956.7 256.9,958.2 255.6,960.1 255.3,962.4 254.1,963.1 253.5,964.2 251.8,964.7 251.0,964.5 250.8,965.5 251.6,965.7 252.1,967.8 250.9,969.7 251.1,971.0 252.2,971.4 252.4,972.2 250.7,972.9 250.2,974.6 249.7,975.1 246.6,976.2 246.3,977.9 244.7,978.2 243.2,977.9 241.7,976.9 236.5,973.2 235.3,971.9 234.9,965.5 235.0,963.5 235.7,960.0 235.1,959.6 235.4,957.2 234.6,956.9 234.4,954.7 233.7,954.2 232.8,951.0 225.7,943.4 224.4,941.0 220.7,939.0 220.1,936.3 219.5,935.5 217.8,934.3 216.0,934.1 213.5,933.3 206.3,932.5 203.3,931.6 197.4,926.3 193.2,926.9 191.9,927.2 188.6,928.4 186.2,926.2 182.3,923.0 178.7,921.5 175.0,919.7 171.4,921.5 169.5,921.6 165.1,920.9 162.8,917.7 157.2,918.2 143.5,919.7 142.7,916.6 147.4,905.4 148.8,901.5 150.4,900.4 150.3,899.0 150.7,897.6 150.4,897.0 151.1,894.9 152.2,893.5 152.5,892.3 153.7,891.6 155.5,886.5 153.5,882.4 149.1,872.8 148.1,870.5 146.4,871.3 144.6,871.4 143.2,872.3 142.3,871.4 139.9,872.3 139.3,871.1 132.7,870.8 128.0,872.0 127.3,873.5 127.4,874.5 126.4,875.9 125.4,875.5 124.5,876.2 123.0,876.3 121.8,878.1 121.4,878.1 119.3,880.1 117.1,881.3 116.4,879.9 115.8,880.1 114.7,879.1 113.8,879.4 110.2,879.7 100.2,886.2 98.8,886.9 96.3,885.9 93.6,886.2 92.9,885.5 91.2,881.6 89.9,880.2 90.5,879.1 90.8,873.2 91.0,871.3 90.4,870.5 90.1,868.7 90.7,867.7 90.6,866.2 91.4,866.1 91.4,865.1 90.5,864.8 92.5,862.9 92.1,862.3 93.3,859.5 93.6,857.9 94.5,857.3 95.8,857.9 96.7,857.7 98.0,856.1 96.8,854.5 97.7,853.6 99.5,852.3 100.7,850.4 101.8,849.7 104.1,847.4 104.6,847.7 105.6,846.9 106.1,845.8 107.4,844.7 108.7,842.8 108.6,842.3 110.1,841.5 110.0,841.1 111.2,840.4 111.4,839.8 114.3,837.8 114.7,836.6 116.0,836.9 116.9,835.4 116.2,835.2 116.2,834.0 117.3,833.1 117.3,832.1 116.5,831.3 117.0,831.0 117.4,828.7 118.2,828.3 120.1,825.9 122.4,824.6 123.2,823.8 123.9,823.8 123.8,823.0 125.0,821.9 125.7,822.0 126.9,821.4 127.0,820.5 128.1,820.2 128.8,819.0 129.6,818.7 129.7,817.7 130.8,816.3 130.1,815.8 130.9,814.7 131.7,814.3 131.0,811.4 129.1,805.7 124.6,795.8 123.9,794.8 123.3,793.2 122.1,791.1 120.3,787.3 119.0,784.9 118.6,783.1 117.4,780.8 116.3,777.6 115.7,776.7 115.1,774.6 113.2,770.4 110.7,763.9 109.4,761.3 107.0,755.0 106.2,753.5 102.7,745.9 102.1,744.8 98.1,736.5 94.7,729.8 93.6,727.3 92.7,726.5 92.1,724.8 90.1,721.5 87.6,721.6 85.7,719.4 87.7,721.5 89.1,720.7 88.6,719.6 87.0,719.7 86.9,718.9 87.6,718.8 87.4,716.6 86.4,716.0 85.8,713.1 85.2,712.0 84.7,709.7 83.7,708.0 82.3,706.7 80.9,706.2 81.7,704.8 81.0,703.8 79.4,700.0 77.6,696.8 77.1,696.3 75.4,693.4 72.6,690.2 71.1,687.7 69.5,685.5 66.5,682.6 65.2,682.7 63.8,678.7 62.7,677.1 61.3,677.0 60.8,676.6 61.3,675.6 56.9,668.7 56.0,667.8 55.6,665.9 53.4,662.5 52.5,660.6 50.7,658.9 50.5,657.8 49.1,656.2 47.7,652.5 47.8,650.6 46.4,648.5 43.9,645.4 42.6,642.7 41.2,640.4 39.5,638.3 39.1,635.5 38.1,634.0 37.0,633.0 35.5,630.6 33.3,629.5 32.4,627.0 30.3,625.5 29.1,624.1 29.1,623.6 28.2,622.8 26.9,620.8 25.3,616.3 23.8,614.7 21.9,613.3 22.0,612.3 20.1,611.0 19.4,609.3 18.3,608.2 17.1,607.7 14.6,603.1 13.3,600.9 10.9,598.4 11.0,598.0 9.1,597.2 6.7,594.9 5.2,589.2 3.3,587.7 2.6,586.2 1.7,585.8 1.9,584.5 1.3,581.8 0.6,579.9 2.5,575.8 2.6,574.3 2.1,572.4 1.1,571.1 1.7,571.2 1.9,569.9 1.1,568.6 0.9,567.2 0.0,565.5 0.3,563.8 0.0,562.5 0.8,560.9 2.4,560.8 3.6,559.3 4.6,555.1 6.8,554.2 7.8,552.3 9.2,551.7 9.4,551.2 11.3,551.0 12.7,549.9 12.9,548.9 13.8,548.7 13.8,547.9 15.9,547.6 17.7,546.3 18.3,544.5 20.7,542.6 22.5,540.0 22.7,537.7 23.7,536.5 23.3,535.4 24.0,531.7 22.7,530.2 23.1,529.5 25.1,528.1 23.2,530.1 24.0,531.2 26.7,529.6 29.2,528.9 29.3,528.5 31.3,527.0 31.5,526.4 33.7,525.6 37.4,525.7 40.3,524.7 44.6,523.9 46.0,523.8 47.8,522.5 49.1,520.9 50.7,517.6 51.6,513.6 51.4,512.8 52.3,510.9 52.2,509.0 52.4,501.3 54.7,499.0 55.3,499.5 57.2,497.8 58.6,495.6 58.4,495.0 59.6,494.3 61.0,492.9 61.8,489.9 64.0,486.4 64.1,485.8 66.1,484.2 66.4,484.8 68.0,485.6 69.0,486.4 72.8,486.3 74.8,485.0 76.5,482.8 78.3,477.6 78.6,476.2 79.0,468.2 80.0,466.0 81.9,465.5 82.9,464.6 83.5,462.1 84.3,461.2 86.0,462.2 88.0,461.7 89.4,460.7 90.3,459.3 93.8,457.7 96.1,455.1 96.7,453.9 97.4,451.6 98.2,449.4 99.1,448.7 101.3,448.7 101.8,449.2 104.0,449.3 107.0,448.0 107.7,447.2 110.0,446.2 112.2,444.7 113.1,444.6 114.3,443.8 117.0,443.9 120.3,442.5 121.4,441.5 123.5,440.6 125.4,439.5 127.3,439.3 131.0,437.5 131.5,437.6 133.9,435.2 135.1,433.4 137.1,430.1 137.9,429.5 139.3,427.5 140.7,425.0 141.5,421.7 142.8,420.1 143.7,419.5 145.3,419.3 147.0,418.4 150.6,415.2 152.9,412.5 154.6,410.1Z">
    <title>Hatay</title>
  </path>
</svg>