<?xml version="1.0"?>
<svg xmlns="http://www.w3.org/2000/svg" xmlns:xlink="http://www.w3.org/1999/xlink" width="958.1461605421068" height="600" viewBox="-5 -5 968.1461605421068 610">
  <style type="text/css">.region {fill:#ffffff;stroke: #0552B5;stroke-linejoin: round;fill-rule: evenodd;clip-rule: evenodd;stroke-width: 1;}</style>
  <!-- Mercator Projection -->
  <path class="region" d="M 0.0,436.3 2.7,427.5 5.0,421.3 8.3,412.7 10.4,402.9 17.0,396.5 25.9,393.6 36.4,387.1 47.4,378.1 51.4,371.7 56.5,364.1 61.6,357.3 63.0,351.7 69.9,349.7 75.6,334.0 76.4,319.6 81.8,317.6 84.9,312.3 89.5,311.8 92.4,307.6 96.1,306.0 102.2,300.5 105.8,294.9 104.5,289.4 102.5,283.9 104.6,281.4 107.0,274.7 113.6,273.3 119.0,271.6 119.9,268.6 125.0,261.9 138.4,252.4 146.4,228.8 153.7,227.7 158.6,226.2 160.8,227.2 162.1,226.9 164.0,225.9 166.3,224.1 174.2,219.1 175.2,217.9 176.5,215.1 176.4,214.6 177.5,213.6 179.2,214.2 181.1,216.4 182.9,215.9 186.5,217.1 186.8,216.8 189.1,217.8 189.3,218.9 190.4,218.2 190.7,219.0 191.6,219.9 192.2,219.8 193.6,218.7 193.4,217.7 194.2,217.3 194.5,215.9 197.9,215.4 198.1,214.5 200.4,214.2 200.5,213.2 201.7,213.5 203.6,212.5 205.6,212.1 206.8,212.4 207.0,213.0 209.6,213.4 210.1,213.7 212.3,213.6 214.3,214.2 214.9,213.8 216.6,215.4 216.7,213.1 217.9,213.2 218.8,212.1 218.7,211.8 220.2,209.3 221.3,208.5 223.0,208.0 225.2,208.1 227.7,207.7 228.9,207.9 231.1,208.8 230.7,207.7 231.3,206.7 230.4,205.3 230.0,203.5 230.6,202.4 229.9,201.5 230.1,201.0 231.4,200.1 231.9,200.5 233.6,200.3 234.8,199.2 236.0,195.0 239.4,194.1 239.7,192.3 241.1,190.8 241.4,189.4 241.1,187.3 240.6,187.0 240.9,185.3 240.5,184.8 241.2,184.1 253.3,173.7 255.4,158.5 260.4,153.8 261.9,150.2 264.9,149.7 271.4,155.0 277.6,155.1 283.5,157.7 292.1,160.8 305.6,171.1 306.9,172.5 308.0,174.6 308.1,176.9 306.6,185.4 307.7,191.9 316.4,199.6 327.9,207.4 331.4,216.2 328.5,224.2 323.6,237.3 325.4,246.3 329.1,254.6 344.2,250.5 366.7,244.4 379.9,236.9 391.3,228.5 396.9,215.5 406.9,208.5 422.7,201.0 429.4,193.9 436.7,186.2 441.3,179.0 450.4,171.7 460.7,149.5 469.4,144.4 481.6,141.6 490.5,143.3 499.7,150.4 523.1,149.8 537.0,145.0 545.9,144.6 555.4,139.5 571.0,127.9 579.1,120.3 586.2,115.2 587.2,106.7 589.9,99.0 591.7,99.7 593.8,99.1 596.5,97.8 597.8,98.5 598.9,98.3 600.1,97.4 604.5,99.3 605.8,97.9 616.6,95.6 622.2,92.3 626.7,87.6 637.5,74.6 644.2,60.5 652.1,48.9 660.0,36.6 666.1,33.6 679.0,32.2 691.0,29.7 693.9,28.8 694.2,19.4 694.4,16.4 698.2,8.6 700.3,7.7 705.7,11.4 711.4,9.3 718.4,7.4 725.2,6.2 729.4,5.7 735.9,4.7 746.7,0.4 753.7,0.0 763.2,3.6 769.2,8.9 777.0,16.6 785.0,23.1 792.6,30.3 803.9,37.7 815.8,42.3 829.4,44.5 850.9,44.9 870.3,43.7 891.9,39.9 901.1,38.7 910.7,38.1 925.9,39.6 935.1,39.9 941.8,41.4 947.7,43.2 955.2,46.6 957.3,48.7 958.1,53.8 958.1,58.4 954.6,61.1 949.9,71.3 947.4,72.2 943.7,70.1 934.5,62.5 932.8,62.2 927.3,62.4 922.1,64.6 916.8,67.6 913.7,66.9 908.1,64.3 904.6,63.9 902.0,64.3 899.7,65.6 896.2,67.9 893.1,72.9 892.2,78.0 889.3,82.6 881.3,87.9 875.5,94.0 873.7,100.3 872.1,103.7 864.8,109.3 862.3,113.3 854.3,123.4 848.0,128.5 841.8,131.9 837.1,135.8 837.0,140.0 840.9,143.1 843.9,144.6 845.2,147.6 843.8,150.1 840.1,152.1 832.6,153.7 829.8,156.1 828.3,163.4 826.0,170.1 824.9,176.5 823.0,181.7 819.0,187.7 817.7,190.9 818.2,194.8 822.3,204.1 831.5,208.8 837.3,216.2 841.1,222.2 842.0,227.8 839.7,230.8 837.5,231.9 834.5,231.1 830.8,228.0 826.8,223.7 822.1,222.5 817.3,223.1 816.3,226.7 815.0,230.9 814.3,235.8 815.6,242.3 818.2,249.6 819.6,256.0 823.2,263.2 830.8,274.1 838.0,284.3 839.2,289.6 839.6,294.7 838.3,300.6 837.2,309.0 834.2,316.9 832.7,329.7 834.4,335.7 837.1,340.2 844.6,346.5 849.3,350.0 853.5,351.4 856.8,354.9 860.0,356.6 865.6,357.8 871.9,357.8 878.1,354.8 883.0,348.8 888.7,346.2 894.5,345.7 897.7,348.1 899.8,352.9 899.4,358.0 896.7,364.5 895.3,370.1 891.5,377.6 889.3,382.2 888.7,387.7 891.1,396.9 895.0,403.2 897.9,406.9 905.4,412.0 913.1,414.9 915.2,418.5 915.8,425.6 915.1,431.1 914.9,438.2 916.5,448.1 919.2,454.5 923.3,461.5 929.0,467.0 931.9,470.7 933.3,472.7 933.1,475.6 932.4,479.7 928.6,484.4 926.5,488.6 924.9,492.8 923.7,502.1 923.3,506.3 925.4,511.5 922.1,514.3 920.4,515.0 919.4,514.9 918.1,514.4 916.5,512.8 913.5,511.8 913.4,512.2 911.3,511.6 911.1,512.6 910.1,512.3 910.3,511.7 908.4,511.2 908.4,510.5 906.8,510.3 905.8,510.6 890.6,517.9 888.1,518.7 877.1,519.7 874.7,520.8 866.8,525.6 865.6,526.9 855.5,538.5 854.9,539.2 853.4,540.0 850.7,540.6 840.7,542.2 837.3,543.5 810.3,556.2 807.2,557.2 796.2,559.6 793.6,560.4 792.4,561.2 791.4,562.2 786.8,568.3 785.1,569.9 782.8,570.7 780.7,570.8 752.1,568.9 750.5,568.5 739.1,564.8 736.9,564.5 735.5,564.8 733.4,566.1 730.1,569.3 727.0,573.4 725.8,574.3 724.6,574.6 721.0,574.7 719.7,574.5 718.7,573.9 716.1,571.4 714.4,570.6 712.2,570.4 710.8,570.8 709.1,572.0 708.9,572.6 705.7,575.2 704.7,575.8 697.4,582.0 689.7,588.5 685.8,590.7 676.6,594.9 675.3,595.5 665.4,600.0 659.7,592.3 648.3,581.2 642.5,578.8 636.9,578.2 631.9,574.5 626.8,571.5 621.2,566.6 616.1,557.5 607.4,549.0 598.0,544.0 591.6,534.1 590.5,525.0 586.6,518.1 582.3,517.5 574.2,516.6 566.3,516.2 560.6,527.7 554.4,534.4 553.8,554.7 553.9,564.1 556.8,569.0 556.5,574.2 554.3,578.5 553.4,585.0 551.4,586.2 544.3,588.9 535.8,588.1 535.4,582.6 531.7,575.4 525.5,571.6 510.5,562.6 504.8,556.0 503.0,546.4 503.0,519.2 506.8,507.7 506.2,499.7 500.2,490.0 488.4,481.3 476.2,477.1 455.2,474.7 436.5,474.6 422.3,472.7 415.2,467.1 399.1,464.1 392.2,464.1 385.5,462.0 378.9,457.7 378.0,457.3 375.7,454.0 372.4,448.4 365.6,435.9 367.7,432.5 363.3,430.3 361.8,427.4 362.0,426.0 362.6,425.5 363.9,425.9 364.0,424.7 365.0,423.7 365.4,423.9 366.3,422.9 367.0,422.9 366.8,421.1 367.1,420.1 369.7,421.4 369.8,419.3 368.8,417.7 368.3,416.0 368.1,413.7 364.8,415.6 363.8,413.4 364.6,412.3 363.7,412.3 363.8,411.5 363.0,411.3 361.5,411.5 361.5,410.9 360.5,411.4 359.5,411.2 359.7,410.5 356.7,410.5 356.4,409.8 354.6,407.8 359.3,400.7 364.7,396.2 363.3,390.2 357.1,389.5 354.2,390.0 352.8,388.7 349.9,387.5 347.7,391.9 345.9,390.0 340.8,389.6 335.8,390.3 336.1,387.1 333.7,384.9 330.8,383.9 331.6,382.8 330.6,381.2 328.9,380.0 329.3,376.6 328.3,374.3 325.9,370.9 326.9,368.1 326.8,365.3 327.5,365.3 328.3,364.3 322.2,362.0 312.3,369.4 297.1,377.2 297.9,387.2 290.8,399.0 288.7,401.9 287.2,404.2 286.1,409.5 284.1,415.1 283.1,419.6 278.6,424.2 270.1,428.1 264.5,432.5 261.4,437.1 258.5,438.7 257.2,440.1 256.0,440.4 256.0,441.0 257.0,441.6 256.9,442.2 257.8,444.8 260.0,445.7 259.4,447.9 259.5,448.7 261.1,449.9 260.9,451.5 259.2,453.3 258.7,453.4 258.4,454.6 256.8,455.4 256.9,456.0 258.0,456.8 258.4,458.6 257.6,459.5 256.3,459.7 255.9,460.5 256.4,461.3 257.7,462.4 257.2,463.6 251.2,466.6 245.1,466.5 229.1,456.2 222.5,451.0 217.6,446.0 206.7,451.6 200.2,455.3 195.3,462.0 190.3,468.9 185.6,475.0 182.8,478.2 178.1,482.0 162.4,491.7 159.4,505.5 157.6,514.1 157.2,514.8 155.6,514.5 155.5,515.0 154.2,514.4 153.4,514.6 153.2,515.2 152.2,514.2 151.4,514.7 150.1,514.4 149.0,513.6 147.9,513.9 146.4,513.8 145.7,514.4 144.9,514.3 144.3,514.8 143.3,514.5 141.6,515.0 140.0,514.2 139.4,514.9 138.1,514.6 137.4,513.5 133.4,512.9 132.8,512.4 131.4,513.3 130.8,512.8 130.1,513.1 130.1,514.1 127.2,511.3 124.0,508.0 120.7,504.1 116.8,500.1 108.0,494.2 102.5,492.1 94.3,491.1 85.1,488.4 75.2,486.8 70.0,484.3 61.9,480.0 52.4,475.9 46.3,470.6 39.1,469.6 30.1,465.6 19.6,458.2 16.6,454.1 14.0,450.2 12.1,446.8 10.9,446.3 3.2,437.8 0.0,436.3Z">
    <title>Gaziantep</title>
  </path>
</svg>