<svg width="218" height="218" viewBox="0 0 218 218" fill="none" xmlns="http://www.w3.org/2000/svg">
<g clip-path="url(#clip0_991_1429)">
<path d="M114.131 5.83401L112.247 11.2232L111.254 13.9104L110.728 15.2394L110.451 15.8967L110.305 16.2326L110.232 16.3932L110.188 16.4808L110.159 16.5247L110.13 16.5831C110.057 16.7145 109.852 16.8168 109.735 16.8021L110.144 16.5685C108.581 19.4456 106.566 22.0744 104.244 24.3966C101.922 26.7333 99.2782 28.7342 96.5034 30.4868L96.4449 30.5306L96.2989 30.589C92.5455 31.991 88.8213 33.4953 85.0387 34.8097C81.2414 36.0658 77.4442 37.351 73.647 38.6508L74.4211 38.0374L40.2606 93.1117L40.4651 92.1916C40.4505 92.0456 40.4651 92.1916 40.4797 92.1916C40.4797 92.2208 40.5235 92.2354 40.5381 92.2646C40.582 92.3085 40.655 92.3377 40.801 92.3815C41.1077 92.4545 41.6773 92.4107 42.2469 92.2646C43.4591 91.9287 44.569 91.4176 45.5037 90.5997C47.4316 88.9786 48.6584 86.525 49.6223 83.8962C49.8413 83.2682 50.2649 82.3773 50.6446 81.7054C51.0535 81.0482 51.4625 80.3618 51.9006 79.7776C52.7623 78.5362 53.697 77.3825 54.6317 76.2433C56.5157 73.965 58.4727 71.8035 60.4736 69.6566C62.4744 67.5243 64.5045 65.4358 66.5637 63.3619C67.6153 62.325 68.5792 61.3027 69.7329 60.2803L73.0482 57.447L86.3239 46.1138L86.762 45.7487H87.2732C88.018 45.7925 88.4854 45.9531 89.0696 46.2744C89.3617 46.4497 89.5661 46.6103 89.8582 46.9316C90.1065 47.2383 90.2233 47.472 90.3548 47.7349C90.4716 47.9978 90.5592 48.2753 90.6177 48.5382C90.6469 48.6696 90.6615 48.8157 90.6761 48.9471C90.6761 49.0785 90.7053 49.1954 90.6761 49.5021C90.5154 50.466 90.2087 50.7435 89.9751 51.167C88.9819 52.5545 87.9304 53.5476 86.8496 54.5991C84.7028 56.6292 82.4828 58.5132 80.2337 60.3534L78.5396 61.7262C78.2329 61.9745 77.9992 62.1497 77.7217 62.398L76.9038 63.0991L73.6324 65.9178L67.0749 71.5552L67.44 71.0732C67.1041 71.7596 67.2355 72.6651 67.7759 73.2055C68.2871 73.7605 69.178 73.9504 69.879 73.6437L69.5431 73.8335L89.7122 58.3525L89.9605 58.1627L90.2672 58.0896C95.6417 56.8336 100.929 55.1395 105.996 52.978C107.252 52.4376 108.494 51.8826 109.575 51.2108C110.655 50.539 111.648 49.7211 112.569 48.801C114.438 47.0193 115.971 44.8432 117.052 42.4042C119.155 37.2195 121.74 32.1079 124.661 27.3029C127.582 22.4688 130.941 17.9267 134.607 13.6913C131.292 18.2188 128.356 22.9945 125.786 27.9309C123.215 32.8965 121.068 37.979 119.316 43.3243C118.294 46.0846 116.775 48.728 114.672 50.9041C113.62 51.9849 112.408 52.9196 111.093 53.7082C109.779 54.4823 108.45 55.0957 107.136 55.6507C101.892 57.8998 96.4595 59.6377 90.9244 60.923L91.4793 60.6601L71.3102 76.1411L71.1642 76.2579L70.9743 76.3309C69.1926 77.0904 66.9726 76.6522 65.629 75.2064C64.2562 73.8043 63.9203 71.5552 64.7819 69.8172L64.928 69.5251L65.1617 69.3353L71.7484 63.6832C73.9245 61.8138 76.159 59.8568 78.3935 58.1042C80.6134 56.2933 82.8041 54.4385 84.8488 52.496C85.8565 51.5321 86.8789 50.5098 87.5653 49.5459C87.7113 49.356 87.8282 49.0055 87.7697 49.2538C87.7697 49.3852 87.7697 49.3122 87.7697 49.2684V49.1516C87.7405 49.0785 87.7113 48.9909 87.6821 48.9325C87.5799 48.7426 87.6529 48.8595 87.5653 48.7864C87.5361 48.7426 87.2732 48.6988 87.3024 48.6988L88.2371 48.3483L75.0052 59.6377L71.7046 62.4564C70.6969 63.3473 69.6453 64.4427 68.6376 65.4358C66.5929 67.4805 64.5921 69.5543 62.6204 71.6574C60.6488 73.7605 58.721 75.9074 56.8954 78.1127C55.9899 79.208 55.099 80.3326 54.2958 81.4718C53.8722 82.0414 53.5363 82.6109 53.1712 83.1805C52.8499 83.7793 52.6162 84.1882 52.3533 84.9331C51.3164 87.708 49.929 90.6727 47.3731 92.8488C46.1171 93.9442 44.5398 94.7036 42.9479 95.1126C42.1154 95.317 41.21 95.4777 40.0854 95.244C39.5304 95.1126 38.9316 94.8351 38.4497 94.3531C38.216 94.1194 38.0115 93.842 37.8655 93.5499C37.7048 93.2286 37.6172 93.0241 37.5296 92.5129L37.4565 92.0456L37.734 91.5928L71.8944 36.5185L72.1719 36.0804L72.6685 35.9197C76.4657 34.6345 80.2483 33.3347 84.0309 32.0056C87.8282 30.735 91.6984 29.6543 95.5248 28.4713L95.3204 28.5589C100.856 25.6088 105.909 21.5195 109.312 16.1303L109.721 15.8967C109.604 15.8821 109.414 15.9697 109.341 16.0865C109.297 16.1449 109.341 16.0865 109.341 16.1011V16.0719L109.399 15.9989L109.487 15.8528L109.648 15.5461L109.969 14.9181L110.597 13.6475L111.809 11.0771L114.131 5.86322V5.83401Z" fill="#000C5C"/>
<path d="M193.8 170.619C192.149 168.603 190.514 166.573 188.922 164.514C188.133 163.477 187.33 162.455 186.6 161.33C185.913 160.147 185.344 158.994 184.818 157.752C182.744 152.86 181.912 147.485 181.897 142.169V142.096L181.926 141.95C182.729 138.021 183.416 134.063 184.321 130.164C185.271 126.279 186.176 122.365 187.096 118.465L187.213 119.444L158.573 61.3027L159.245 61.9745C159.376 62.0329 159.245 61.9745 159.245 61.9891C159.216 61.9891 159.187 61.9891 159.157 61.9891C159.099 61.9891 159.026 62.0475 158.909 62.1497C158.675 62.3688 158.413 62.88 158.237 63.4349C157.872 64.6325 157.726 65.8593 157.931 67.0861C158.281 69.5689 159.712 71.9203 161.436 74.1402C161.859 74.6514 162.385 75.4838 162.75 76.1556C163.101 76.8567 163.451 77.5577 163.729 78.2441C164.327 79.6316 164.809 81.0336 165.277 82.4357C166.211 85.2398 167.015 88.0439 167.774 90.8772C168.519 93.6959 169.235 96.5292 169.892 99.3771C170.213 100.823 170.564 102.167 170.827 103.7L171.469 108.023L174.054 125.286L174.142 125.855L173.864 126.279C173.441 126.892 173.076 127.199 172.477 127.535C172.17 127.681 171.922 127.783 171.498 127.856C171.119 127.9 170.856 127.885 170.549 127.856C170.257 127.812 169.994 127.739 169.731 127.652C169.6 127.608 169.468 127.55 169.352 127.491C169.235 127.433 169.132 127.389 168.884 127.199C168.154 126.556 168.081 126.148 167.847 125.724C167.19 124.147 166.913 122.73 166.591 121.27C166.007 118.378 165.583 115.501 165.218 112.609L164.955 110.447C164.912 110.053 164.882 109.761 164.824 109.396L164.663 108.33L164.006 104.065L162.706 95.5215L162.925 96.0911C162.516 95.4338 161.684 95.0833 160.954 95.244C160.209 95.39 159.581 96.0472 159.464 96.8067V96.427L161.932 121.722L161.962 122.029L161.859 122.321C160.063 127.593 158.69 133.026 157.858 138.518C157.653 139.891 157.478 141.234 157.492 142.519C157.492 143.805 157.697 145.104 158.004 146.36C158.559 148.902 159.654 151.37 161.173 153.575C164.503 158.176 167.467 163.112 170.009 168.194C172.565 173.277 174.638 178.593 176.289 184.011C174.2 178.754 171.717 173.671 168.87 168.822C166.007 163.974 162.809 159.373 159.201 155.05C157.376 152.728 155.857 150.041 155.097 147.076C154.732 145.601 154.542 144.068 154.557 142.519C154.557 140.971 154.761 139.511 154.966 138.08C155.828 132.398 157.244 126.805 159.099 121.386L159.026 122L156.572 96.7044V96.5146V96.3101C156.864 94.3969 158.413 92.7466 160.355 92.3669C162.283 91.9433 164.357 92.8488 165.379 94.4991L165.554 94.7766L165.598 95.0687L166.913 103.656C167.336 106.49 167.833 109.425 168.125 112.244C168.49 115.077 168.899 117.925 169.468 120.685C169.746 122.044 170.082 123.46 170.534 124.556C170.608 124.775 170.856 125.052 170.666 124.877C170.549 124.804 170.608 124.848 170.651 124.877L170.768 124.921C170.841 124.95 170.914 124.965 170.987 124.979C171.206 124.979 171.06 124.994 171.177 124.965C171.236 124.965 171.411 124.775 171.396 124.789L171.192 125.768L168.621 108.578L167.979 104.284C167.76 102.955 167.38 101.495 167.073 100.107C166.416 97.2886 165.715 94.4845 164.97 91.695C164.225 88.9055 163.422 86.1453 162.531 83.4288C162.078 82.0705 161.611 80.7269 161.056 79.4563C160.808 78.7991 160.486 78.2149 160.194 77.6015C159.858 77.0173 159.625 76.5938 159.128 75.9804C157.317 73.6436 155.535 70.8833 155.053 67.5681C154.791 65.9177 154.98 64.1798 155.477 62.6171C155.755 61.8138 156.09 60.9375 156.879 60.1197C157.288 59.7253 157.828 59.3602 158.5 59.1996C158.822 59.1266 159.157 59.0973 159.493 59.1265C159.844 59.1704 160.078 59.1996 160.545 59.3894L160.983 59.5793L161.217 60.0613L189.856 118.203L190.09 118.67L189.973 119.181C189.068 123.081 188.148 126.98 187.271 130.894C186.366 134.794 185.227 138.649 184.204 142.519L184.234 142.3C183.898 147.368 184.336 152.538 186.001 157.372C186.41 158.57 186.906 159.782 187.461 160.892C188.089 161.987 188.79 163.097 189.491 164.193C190.908 166.369 192.368 168.53 193.844 170.677L193.8 170.619Z" fill="#000C5C"/>
<path d="M15.2865 154.072C17.5649 153.809 19.8286 153.546 22.1215 153.385C24.4729 153.239 26.7658 153.575 29.0442 154.057C33.6008 155.05 37.9238 156.993 41.8817 159.446L41.9401 159.475L42.0424 159.563L50.8198 167.786C52.2803 169.158 53.6823 170.59 55.0698 172.021L59.3051 176.285L58.4142 175.862L122.909 182.361L121.989 182.58C122.018 182.551 122.018 182.522 122.032 182.507C122.047 182.463 122.047 182.376 122.032 182.215C121.959 181.908 121.682 181.412 121.287 180.974C120.455 180.039 119.506 179.265 118.352 178.783C116.059 177.761 113.299 177.731 110.509 178.023C109.852 178.111 108.859 178.111 108.099 178.067C107.325 177.994 106.537 177.921 105.806 177.79C104.302 177.556 102.871 177.235 101.425 176.884C98.5626 176.198 95.7438 175.38 92.9397 174.533C90.1502 173.671 87.3754 172.766 84.6151 171.831C83.2276 171.334 81.884 170.926 80.4527 170.327L76.451 168.589L60.4297 161.637L59.9039 161.403L59.6995 160.936C59.3928 160.25 59.3343 159.768 59.3635 159.096C59.3927 158.76 59.4512 158.497 59.6118 158.103C59.7725 157.752 59.9331 157.533 60.123 157.314C60.3128 157.095 60.5173 156.905 60.7364 156.73C60.8532 156.642 60.9554 156.569 61.0723 156.496C61.1891 156.438 61.2768 156.365 61.5689 156.248C62.5036 155.97 62.8833 156.116 63.3652 156.146C65.0594 156.438 66.403 156.934 67.8197 157.445C70.5946 158.482 73.2526 159.651 75.8961 160.863L77.8677 161.783C78.2182 161.944 78.4957 162.09 78.8316 162.221L79.8247 162.645L83.7972 164.353L91.7422 167.771L91.1434 167.654C91.9174 167.654 92.6623 167.128 92.9105 166.427C93.188 165.726 92.9544 164.85 92.3702 164.339L92.6915 164.558L69.9227 153.239L69.6452 153.093L69.4408 152.845C65.9211 148.522 62.0508 144.491 57.8301 140.869C56.7785 139.964 55.727 139.117 54.6316 138.43C53.5363 137.758 52.3387 137.247 51.0973 136.824C48.6291 135.976 45.9856 135.582 43.2984 135.714C37.6317 136.093 31.8775 135.991 26.2109 135.451C20.5442 134.925 14.936 133.873 9.47388 132.398C15.0383 133.421 20.6757 133.99 26.2839 134.151C31.9213 134.297 37.5003 134.005 43.0793 133.245C46.0294 132.924 49.111 133.041 52.0174 134.005C54.9237 134.91 57.5818 136.78 59.714 138.664C64.0809 142.403 68.0679 146.565 71.6899 151.005L71.208 150.625L93.9767 161.944L94.1373 162.031L94.2834 162.163C95.7585 163.433 96.328 165.624 95.627 167.45C94.9698 169.304 93.1004 170.59 91.158 170.59H90.8367L90.5592 170.473L82.585 167.041C79.9562 165.902 77.2105 164.762 74.6547 163.521C72.055 162.323 69.4262 161.17 66.7827 160.191C65.4829 159.709 64.0955 159.242 62.9271 159.052C62.6934 158.994 62.3283 159.052 62.5766 158.994C62.6934 158.935 62.635 158.964 62.5766 158.994L62.4743 159.067C62.4743 159.067 62.3575 159.169 62.3137 159.227C62.1969 159.402 62.2553 159.286 62.2261 159.388C62.1968 159.432 62.2699 159.68 62.2553 159.665L61.525 158.979L77.4734 165.902L81.4605 167.639C82.7019 168.165 84.1477 168.603 85.4914 169.085C88.2224 170.02 90.9681 170.911 93.7284 171.758C96.4887 172.605 99.2636 173.394 102.038 174.066C103.426 174.401 104.813 174.708 106.186 174.927C106.887 175.059 107.544 175.102 108.216 175.176C108.903 175.19 109.37 175.219 110.159 175.132C113.094 174.84 116.38 174.781 119.462 176.125C120.995 176.767 122.368 177.863 123.449 179.104C123.989 179.761 124.544 180.506 124.822 181.616C124.939 182.171 124.968 182.828 124.749 183.471C124.632 183.792 124.486 184.084 124.281 184.347C124.062 184.625 123.916 184.8 123.493 185.092L123.098 185.355L122.573 185.297L58.0783 178.797L57.5672 178.739L57.202 178.374L52.9521 174.124C51.5208 172.722 50.0896 171.32 48.7313 169.845L40.5527 161.038L40.7133 161.17C37.0768 158.555 33.0751 156.408 28.7521 155.138C27.6713 154.817 26.576 154.554 25.466 154.364C24.3415 154.159 23.2607 153.969 22.1215 153.984C19.8432 153.955 17.5503 154.013 15.2719 154.086L15.2865 154.072Z" fill="#000C5C"/>
<path d="M202.183 74.9433C204.023 80.0403 205.498 85.2542 206.535 90.5703C206.769 91.7971 206.988 93.0239 207.178 94.2653C207.426 95.8864 207.44 95.974 207.63 97.6828C207.922 100.297 208.112 102.926 208.185 105.555C208.361 110.681 208.142 115.822 207.543 120.919C207.499 121.24 207.47 121.561 207.426 121.883C207.324 122.701 207.514 121.255 207.397 122.058C207.324 122.613 207.236 123.183 207.148 123.738C206.929 125.096 206.696 126.439 206.433 127.798C205.936 130.324 205.337 132.836 204.651 135.334C203.965 137.831 203.191 140.27 202.329 142.694C201.92 143.834 201.496 144.958 201.058 146.083C200.825 146.682 200.576 147.28 200.328 147.865C200.591 147.251 199.948 148.726 199.861 148.945C197.772 153.648 195.348 158.205 192.602 162.542C191.229 164.718 189.769 166.851 188.235 168.925C186.95 170.677 185.606 172.342 183.825 174.387C180.422 178.315 176.712 181.981 172.769 185.355C170.637 187.166 169.395 188.144 167.351 189.619C165.204 191.167 163.013 192.643 160.749 194.015C158.486 195.388 156.134 196.717 153.754 197.929C151.563 199.039 148.715 200.354 147.05 201.04C142.084 203.07 136.973 204.706 131.759 205.933C126.253 207.233 122.105 207.861 116.789 208.24C111.473 208.62 106.332 208.591 101.133 208.167C96.2111 207.773 92.1072 207.13 86.8349 205.874C81.5626 204.618 76.9037 203.143 72.1133 201.23C70.6237 200.646 70.8427 200.734 69.4699 200.12C68.2139 199.565 66.9871 198.996 65.7603 198.382C63.5258 197.287 61.3205 196.104 59.1736 194.862C50.1187 189.59 42.8455 183.778 35.66 175.964C33.8928 174.036 32.1987 172.05 30.5776 170.005C30.5338 169.947 30.0372 169.304 30.4169 169.801C30.2709 169.611 30.1248 169.406 29.9642 169.217C29.5698 168.691 29.1755 168.165 28.7958 167.625C27.9779 166.486 27.1747 165.332 26.4006 164.163C23.4943 159.782 20.9239 155.167 18.7186 150.391C17.594 147.967 16.893 146.243 15.8998 143.483C14.9651 140.927 14.1473 138.328 13.417 135.699C12.6868 133.07 12.1318 130.646 11.6353 128.09C11.387 126.775 11.1533 125.476 10.9488 124.147C10.7152 122.613 10.7298 122.715 10.5253 120.977C9.95573 115.763 9.78047 110.506 9.99954 105.277C10.2332 99.6982 10.7006 95.8718 11.7521 90.6287C15.7392 70.7079 25.3199 52.7587 39.6033 38.5922C41.4581 36.752 43.3713 34.9994 45.3575 33.3053C46.2922 32.5166 47.2415 31.728 48.2054 30.9685C48.8334 30.472 49.8704 29.6833 50.9803 28.8946C55.2887 25.7838 59.8454 23.0236 64.5919 20.6138C69.3384 18.204 73.4716 16.5099 78.7877 14.8157C84.1038 13.1216 89.157 11.9532 94.4731 11.1499C95.7291 10.9601 95.8314 10.9455 97.3941 10.7702C98.7085 10.6242 100.023 10.5073 101.337 10.4197C103.952 10.2298 106.566 10.1422 109.195 10.1568C111.824 10.1714 114.409 10.2883 116.994 10.4927C118.293 10.595 119.579 10.7264 120.864 10.8724C121.112 10.9017 121.346 10.9309 121.594 10.9601C122.412 11.0623 120.966 10.8724 121.769 10.9893C122.485 11.0915 123.215 11.1937 123.931 11.3106C129.028 12.1284 134.052 13.3406 138.974 14.8887C141.427 15.6628 143.852 16.5391 146.232 17.4884C147.532 18.0141 147.488 17.9849 148.876 18.6129C150.044 19.1387 151.212 19.6791 152.366 20.2487C156.981 22.5124 161.436 25.112 165.686 28.033C169.936 30.9539 173.061 33.4805 176.99 37.1463C180.918 40.8121 184.321 44.5509 187.549 48.6402C188.148 49.385 187.841 49.0053 187.71 48.8447C187.914 49.1076 188.104 49.3704 188.308 49.6333C188.703 50.1591 189.097 50.6849 189.477 51.2252C190.251 52.2914 190.996 53.3867 191.726 54.4821C193.201 56.702 194.574 58.9657 195.874 61.2879C198.488 65.976 200.416 70.2406 202.139 74.9141C203.03 77.3238 205.352 78.945 207.981 78.2293C210.303 77.5867 212.187 74.8118 211.296 72.3875C203.468 51.123 189.345 32.8671 170.68 19.9858C152.79 7.6302 131.029 0.809805 109.238 0.692967C86.6888 0.57613 64.0808 7.73243 45.8249 21.0081C27.569 34.2838 14.2787 52.3206 6.7719 73.2345C-0.691098 94.0462 -1.55277 117.165 4.36213 138.474C10.277 159.782 23.173 179.63 40.684 193.606C58.0198 207.437 79.036 215.849 101.147 217.646C123.61 219.471 146.597 213.878 165.773 202.077C184.949 190.277 199.481 173.35 208.258 153.283C217.24 132.763 219.957 110.068 215.663 88.0437C214.626 82.7276 213.151 77.4991 211.311 72.4167C210.434 70.0069 208.083 68.3858 205.469 69.1014C203.147 69.744 201.277 72.5189 202.154 74.9433H202.183Z" fill="#F6BE31"/>
<path d="M109.691 124.731C117.821 124.731 124.413 118.14 124.413 110.009C124.413 101.879 117.821 95.2879 109.691 95.2879C101.561 95.2879 94.9695 101.879 94.9695 110.009C94.9695 118.14 101.561 124.731 109.691 124.731Z" stroke="#F6BE31" stroke-width="3" stroke-miterlimit="10"/>
<path d="M124.398 109.104H138.798" stroke="#F6BE31" stroke-width="3" stroke-miterlimit="10"/>
<path d="M80.8323 109.104H94.8528" stroke="#F6BE31" stroke-width="3" stroke-miterlimit="10"/>
<path d="M97.876 120.991L89.23 129.637" stroke="#F6BE31" stroke-width="3" stroke-miterlimit="10"/>
<path d="M130.225 88.6578L120.572 98.2969" stroke="#F6BE31" stroke-width="3" stroke-miterlimit="10"/>
<path d="M120.835 120.247L130.956 130.368" stroke="#F6BE31" stroke-width="3" stroke-miterlimit="10"/>
<path d="M89.9602 89.3883L99.7454 99.1588" stroke="#F6BE31" stroke-width="3" stroke-miterlimit="10"/>
<path d="M109.881 126.454V139.101" stroke="#F6BE31" stroke-width="3" stroke-miterlimit="10"/>
<path d="M109.881 81.1499V95.2872" stroke="#F6BE31" stroke-width="3" stroke-miterlimit="10"/>
</g>
<defs>
<clipPath id="clip0_991_1429">
<rect width="218" height="218" fill="white"/>
</clipPath>
</defs>
</svg>
