<svg width="196" height="230" viewBox="0 0 196 230" fill="none" xmlns="http://www.w3.org/2000/svg">
<mask id="mask0_991_1444" style="mask-type:luminance" maskUnits="userSpaceOnUse" x="0" y="0" width="196" height="230">
<path d="M194.754 132.67C194.754 186.06 151.474 229.34 98.0836 229.34C44.6936 229.34 1.41359 186.06 1.41359 132.67C1.41359 79.28 -11.2964 0 97.0836 0C205.464 0 194.754 79.28 194.754 132.67Z" fill="white"/>
</mask>
<g mask="url(#mask0_991_1444)">
<path d="M98.0836 229.34C151.473 229.34 194.754 186.059 194.754 132.67C194.754 79.2806 151.473 36 98.0836 36C44.6942 36 1.41357 79.2806 1.41357 132.67C1.41357 186.059 44.6942 229.34 98.0836 229.34Z" fill="#E5EBFA"/>
<path d="M157.624 89.19C157.624 89.19 140.664 79.75 115.764 72.96C90.8636 66.17 65.9736 63.84 65.9736 63.84C65.9736 63.84 92.5136 83.66 110.414 87.36C128.314 91.06 157.624 89.18 157.624 89.18V89.19Z" fill="#8674FC"/>
<path d="M145.104 86.41C144.344 77.69 146.494 68.75 151.134 61.33C152.914 58.48 155.234 55.73 158.424 54.68C159.364 54.37 160.694 54.41 160.994 55.36C161.074 55.63 161.054 55.91 161.004 56.19C160.594 58.56 158.584 60.27 156.854 61.94C149.624 68.9 145.314 78.8 145.144 88.83" stroke="#5700DD" stroke-width="0.53" stroke-miterlimit="10"/>
<path d="M171.434 58.88C173.844 57.99 176.564 57.34 178.924 58.36C179.394 58.56 179.854 58.84 180.124 59.28C180.424 59.76 180.444 60.37 180.354 60.93C179.994 63.03 178.194 64.57 176.384 65.71C171.964 68.49 166.854 70.01 162.294 72.55C158.504 74.67 155.114 77.51 152.344 80.85C150.954 82.53 149.744 84.33 148.664 86.22C147.474 88.3 146.514 88.13 147.174 85.68C149.264 77.95 153.814 70.93 159.884 65.74C163.304 62.81 167.224 60.46 171.444 58.89L171.434 58.88Z" fill="#2C2D40"/>
<path d="M165.584 73.46C169.454 71.28 174.104 69.55 178.264 71.11C178.924 71.36 179.644 71.8 179.724 72.5C179.764 72.89 179.604 73.27 179.404 73.61C178.184 75.72 175.854 76.9 173.594 77.8C169.014 79.62 164.194 80.76 159.604 82.54C156.134 83.89 147.434 90.44 147.434 90.44C147.434 90.44 154.764 81.43 156.094 80.25C159.004 77.66 162.194 75.38 165.594 73.46H165.584Z" stroke="#5700DD" stroke-width="0.53" stroke-miterlimit="10"/>
<path d="M165.684 84.18C167.994 83.96 170.414 83.99 172.494 85.02C173.324 85.43 174.144 86.1 174.244 87.01C174.284 87.42 174.174 87.84 173.994 88.21C173.284 89.69 171.594 90.48 169.954 90.6C168.324 90.72 166.704 90.3 165.104 89.95C162.594 89.4 160.034 89.05 157.464 89.03C154.804 89.02 152.384 89.78 149.834 90.1C150.984 88.17 155.114 86.87 157.184 86.11C159.924 85.11 162.784 84.45 165.684 84.17V84.18Z" fill="#2C2D40"/>
<path d="M139.794 87.85C135.224 81.89 133.834 73.61 136.224 66.49C138.564 59.51 144.024 54.12 148.484 48.26C152.294 43.25 155.444 37.75 157.844 31.94C161.844 40.13 161.084 50.61 156.994 58.75C154.364 63.99 150.254 68.31 146.674 72.95C143.084 77.59 140.094 81.99 139.794 87.85Z" fill="#EEB422"/>
<path d="M157.844 31.93C158.574 34.43 158.304 37.13 157.634 39.64C156.924 42.16 155.794 44.53 154.514 46.8C151.954 51.37 148.384 55.21 145.424 59.38C142.354 63.47 140.144 68.16 138.964 73.13C138.364 75.61 138.034 78.16 138.134 80.72C138.194 83.27 138.734 85.83 139.854 88.16C138.514 85.94 137.844 83.34 137.614 80.75C137.414 78.14 137.654 75.51 138.174 72.96C139.214 67.84 141.494 62.97 144.584 58.77C147.684 54.58 151.174 50.78 153.844 46.4C155.184 44.22 156.364 41.93 157.164 39.5C157.974 37.09 158.354 34.48 157.854 31.93H157.844Z" fill="#5700DD"/>
<path d="M88.0136 77.51C92.5836 71.55 93.9736 63.27 91.5836 56.15C89.2436 49.17 83.7836 43.78 79.3236 37.92C75.5136 32.91 72.3636 27.41 69.9636 21.6C65.9636 29.79 66.7236 40.27 70.8136 48.41C73.4436 53.65 77.5536 57.97 81.1336 62.61C84.7236 67.25 87.7136 71.65 88.0136 77.51Z" fill="#E47573"/>
<path d="M69.9636 21.59C69.4636 24.14 69.8436 26.75 70.6536 29.16C71.4536 31.59 72.6336 33.88 73.9736 36.06C76.6436 40.44 80.1336 44.24 83.2336 48.43C86.3136 52.63 88.5936 57.5 89.6436 62.62C90.1636 65.18 90.4037 67.81 90.2037 70.41C89.9637 73 89.2936 75.6 87.9636 77.82C89.0836 75.49 89.6236 72.93 89.6836 70.38C89.7836 67.83 89.4536 65.27 88.8536 62.79C87.6736 57.81 85.4636 53.13 82.3936 49.04C79.4336 44.87 75.8636 41.03 73.3036 36.46C72.0236 34.2 70.8936 31.82 70.1836 29.3C69.5136 26.79 69.2436 24.09 69.9736 21.59H69.9636Z" fill="#5700DD"/>
<path d="M79.6037 76.32C81.5237 70.73 80.4937 64.21 76.9237 59.49C73.4337 54.86 68.0137 52.21 63.2237 48.95C59.1337 46.17 55.4037 42.85 52.1637 39.11C51.2237 46.22 54.4137 53.85 59.4937 58.9C62.7637 62.15 66.9137 64.35 70.7437 66.92C74.5737 69.49 77.9137 72.02 79.6037 76.32Z" fill="#EEB422"/>
<path d="M52.1536 39.11C52.4136 41.14 53.3536 42.99 54.5536 44.59C55.7536 46.2 57.2036 47.62 58.7536 48.91C61.8436 51.51 65.3936 53.47 68.7536 55.82C72.1036 58.19 75.0236 61.25 77.0836 64.81C78.1136 66.59 78.9436 68.49 79.4436 70.49C79.9136 72.48 80.0636 74.59 79.6236 76.58C79.8736 74.56 79.6436 72.52 79.0536 70.6C78.4836 68.67 77.6036 66.85 76.5336 65.15C74.4136 61.73 71.5936 58.79 68.2836 56.5C65.0336 54.13 61.4136 52.15 58.3636 49.39C56.8436 48.02 55.4036 46.53 54.2436 44.83C53.1236 43.12 52.2436 41.18 52.1636 39.13L52.1536 39.11Z" fill="#5700DD"/>
<path d="M142.874 33.01C142.874 32.14 142.854 31.22 142.444 30.45C142.314 30.2 142.084 29.95 141.804 29.96C141.424 29.98 141.244 30.42 141.174 30.79C140.414 34.75 141.494 40.01 142.724 43.8C143.004 40.23 142.874 36.58 142.864 33L142.874 33.01Z" fill="#E47573"/>
<path d="M147.484 30.19C147.664 29.33 147.834 28.44 147.594 27.6C147.514 27.33 147.354 27.04 147.074 26.99C146.704 26.93 146.434 27.33 146.284 27.68C144.714 31.4 144.694 36.76 145.114 40.73C146.124 37.3 146.764 33.7 147.494 30.2L147.484 30.19Z" fill="#E47573"/>
<path d="M155.494 37.07C156.314 36.78 157.174 36.46 157.764 35.81C157.954 35.6 158.114 35.31 158.014 35.05C157.874 34.7 157.394 34.68 157.024 34.74C153.034 35.34 148.444 38.11 145.274 40.54C148.734 39.62 152.134 38.28 155.504 37.08L155.494 37.07Z" fill="#E47573"/>
<path d="M153.464 42.29C154.324 42.15 155.224 41.99 155.924 41.46C156.144 41.29 156.364 41.03 156.304 40.75C156.224 40.38 155.754 40.27 155.384 40.26C151.354 40.13 146.334 42.02 142.774 43.83C146.344 43.55 149.924 42.85 153.464 42.28V42.29Z" fill="#E47573"/>
<path d="M152.084 45.71C152.954 45.63 153.864 45.54 154.594 45.06C154.834 44.9 155.064 44.66 155.024 44.38C154.974 44.01 154.514 43.87 154.144 43.83C150.134 43.41 144.994 44.95 141.314 46.5C144.894 46.47 148.524 46.03 152.084 45.72V45.71Z" fill="#E47573"/>
<path d="M149.514 49.66C150.384 49.58 151.294 49.49 152.024 49.01C152.264 48.85 152.494 48.61 152.454 48.33C152.404 47.96 151.944 47.82 151.574 47.78C147.564 47.36 142.424 48.9 138.744 50.45C142.324 50.42 145.954 49.98 149.514 49.67V49.66Z" fill="#E47573"/>
<path d="M147.324 53.74C148.194 53.66 149.104 53.57 149.834 53.09C150.074 52.93 150.304 52.69 150.264 52.41C150.214 52.04 149.754 51.9 149.384 51.86C145.374 51.44 140.234 52.98 136.554 54.53C140.134 54.5 143.764 54.06 147.324 53.75V53.74Z" fill="#E47573"/>
<path d="M145.214 57.96C146.084 57.88 146.994 57.79 147.724 57.31C147.964 57.15 148.194 56.91 148.154 56.63C148.104 56.26 147.644 56.12 147.274 56.08C143.264 55.66 138.124 57.2 134.444 58.75C138.024 58.72 141.654 58.28 145.214 57.97V57.96Z" fill="#E47573"/>
<path d="M143.464 62.54C144.334 62.46 145.244 62.37 145.974 61.89C146.214 61.73 146.444 61.49 146.404 61.21C146.354 60.84 145.894 60.7 145.524 60.66C141.514 60.24 136.374 61.78 132.694 63.33C136.274 63.3 139.904 62.86 143.464 62.55V62.54Z" fill="#E47573"/>
<path d="M141.814 67.4C142.684 67.32 143.594 67.23 144.324 66.75C144.564 66.59 144.794 66.35 144.754 66.07C144.704 65.7 144.244 65.56 143.874 65.52C139.864 65.1 134.724 66.64 131.044 68.19C134.624 68.16 138.254 67.72 141.814 67.41V67.4Z" fill="#E47573"/>
<path d="M140.444 71.71C141.314 71.63 142.224 71.54 142.954 71.06C143.194 70.9 143.424 70.66 143.384 70.38C143.334 70.01 142.874 69.87 142.504 69.83C138.494 69.41 133.354 70.95 129.674 72.5C133.254 72.47 136.884 72.03 140.444 71.72V71.71Z" fill="#E47573"/>
<path d="M139.154 77.13C140.024 77.05 140.934 76.96 141.664 76.48C141.904 76.32 142.134 76.08 142.094 75.8C142.044 75.43 141.584 75.29 141.214 75.25C137.204 74.83 132.064 76.37 128.384 77.92C131.964 77.89 135.594 77.45 139.154 77.14V77.13Z" fill="#E47573"/>
<path d="M138.244 83.45C139.114 83.37 140.024 83.28 140.754 82.8C140.994 82.64 141.224 82.4 141.184 82.12C141.134 81.75 140.674 81.61 140.304 81.57C136.294 81.15 131.154 82.69 127.474 84.24C131.054 84.21 134.684 83.77 138.244 83.46V83.45Z" fill="#E47573"/>
<path d="M138.374 36.34C138.114 35.5 137.834 34.63 137.204 34.02C137.004 33.82 136.714 33.65 136.454 33.74C136.104 33.87 136.064 34.35 136.104 34.72C136.544 38.73 139.124 43.43 141.424 46.69C140.644 43.2 139.444 39.75 138.384 36.33L138.374 36.34Z" fill="#E47573"/>
<path d="M135.764 40.02C135.504 39.18 135.224 38.31 134.594 37.7C134.394 37.5 134.104 37.33 133.844 37.42C133.494 37.55 133.454 38.03 133.494 38.4C133.934 42.41 136.514 47.11 138.814 50.37C138.034 46.88 136.834 43.43 135.774 40.01L135.764 40.02Z" fill="#E47573"/>
<path d="M132.734 44.5C132.414 43.69 132.054 42.84 131.394 42.28C131.174 42.1 130.874 41.95 130.624 42.06C130.284 42.21 130.274 42.7 130.344 43.07C131.094 47.03 134.034 51.52 136.574 54.59C135.524 51.17 134.064 47.82 132.734 44.5Z" fill="#E47573"/>
<path d="M129.914 48.94C129.534 48.15 129.124 47.33 128.424 46.82C128.194 46.65 127.884 46.52 127.634 46.66C127.304 46.84 127.334 47.32 127.424 47.68C128.444 51.58 131.694 55.86 134.434 58.75C133.154 55.41 131.464 52.17 129.904 48.95L129.914 48.94Z" fill="#E47573"/>
<path d="M128.134 53.56C127.754 52.77 127.344 51.95 126.634 51.44C126.404 51.27 126.094 51.14 125.844 51.28C125.514 51.46 125.544 51.94 125.634 52.3C126.654 56.2 129.904 60.48 132.644 63.37C131.364 60.03 129.674 56.79 128.114 53.57L128.134 53.56Z" fill="#E47573"/>
<path d="M126.354 58.19C125.974 57.4 125.564 56.58 124.864 56.07C124.634 55.9 124.324 55.77 124.074 55.91C123.744 56.09 123.774 56.57 123.864 56.93C124.884 60.83 128.134 65.11 130.874 68C129.594 64.66 127.904 61.42 126.344 58.2L126.354 58.19Z" fill="#E47573"/>
<path d="M124.574 62.81C124.194 62.02 123.784 61.2 123.074 60.69C122.844 60.52 122.534 60.39 122.284 60.53C121.954 60.71 121.984 61.19 122.074 61.55C123.094 65.45 126.344 69.73 129.084 72.62C127.804 69.28 126.114 66.04 124.554 62.82L124.574 62.81Z" fill="#E47573"/>
<path d="M122.674 74.79C122.294 74 121.884 73.18 121.174 72.67C120.944 72.5 120.634 72.37 120.384 72.51C120.054 72.69 120.084 73.17 120.174 73.53C121.194 77.43 124.444 81.71 127.184 84.6C125.904 81.26 124.214 78.02 122.654 74.8L122.674 74.79Z" fill="#E47573"/>
<path d="M123.624 68.74C123.244 67.95 122.834 67.13 122.134 66.62C121.904 66.45 121.594 66.32 121.344 66.46C121.014 66.64 121.044 67.12 121.134 67.48C122.154 71.38 125.404 75.66 128.144 78.55C126.864 75.21 125.174 71.97 123.614 68.75L123.624 68.74Z" fill="#E47573"/>
<path d="M149.334 34.97C148.634 35.98 147.914 36.99 147.194 37.99L145.134 41.05L143.124 44.14L141.214 47.29C138.724 51.52 136.434 55.87 134.524 60.38C132.544 64.86 130.954 69.51 129.714 74.25L128.864 77.83L128.184 81.45L127.644 85.1L127.274 88.78C127.294 87.55 127.324 86.31 127.364 85.08L127.674 81.39L128.214 77.72L128.934 74.08C130.014 69.25 131.634 64.54 133.564 59.98C135.574 55.45 137.874 51.06 140.534 46.89L142.574 43.8L144.714 40.78L146.974 37.85C147.754 36.89 148.544 35.94 149.334 35V34.97Z" fill="#5700DD"/>
<path d="M100.304 29.67C100.464 28.81 100.644 27.91 101.194 27.23C101.374 27.01 101.634 26.8 101.914 26.87C102.284 26.95 102.374 27.43 102.384 27.8C102.424 31.83 100.414 36.81 98.5237 40.32C98.8837 36.76 99.6637 33.19 100.314 29.67H100.304Z" fill="#EEB422"/>
<path d="M96.2836 26.07C96.2636 25.2 96.2536 24.28 96.6436 23.5C96.7736 23.25 96.9836 22.99 97.2636 22.99C97.6436 22.99 97.8336 23.44 97.9136 23.81C98.7836 27.75 97.8536 33.03 96.7336 36.86C96.3536 33.3 96.3736 29.65 96.2836 26.07Z" fill="#EEB422"/>
<path d="M87.1637 31.4C86.4037 30.96 85.6236 30.5 85.1536 29.75C85.0036 29.51 84.8937 29.19 85.0437 28.95C85.2437 28.63 85.7236 28.7 86.0836 28.82C89.9036 30.12 93.9237 33.68 96.6037 36.63C93.3737 35.1 90.2637 33.18 87.1637 31.4Z" fill="#EEB422"/>
<path d="M88.2236 36.91C87.4036 36.62 86.5436 36.3 85.9536 35.65C85.7636 35.44 85.6036 35.15 85.7036 34.89C85.8436 34.54 86.3236 34.52 86.6936 34.57C90.6836 35.16 95.2836 37.92 98.4536 40.34C94.9936 39.43 91.5936 38.1 88.2136 36.91H88.2236Z" fill="#EEB422"/>
<path d="M88.9737 40.52C88.1337 40.29 87.2538 40.03 86.6238 39.43C86.4238 39.23 86.2338 38.95 86.3238 38.69C86.4438 38.33 86.9138 38.28 87.2938 38.3C91.3138 38.61 96.1038 41.04 99.4338 43.22C95.9238 42.55 92.4238 41.47 88.9838 40.52H88.9737Z" fill="#EEB422"/>
<path d="M90.7936 44.86C89.9536 44.63 89.0736 44.37 88.4436 43.77C88.2436 43.57 88.0536 43.29 88.1436 43.03C88.2636 42.67 88.7336 42.62 89.1136 42.64C93.1336 42.95 97.9236 45.38 101.254 47.56C97.7436 46.89 94.2436 45.81 90.8036 44.86H90.7936Z" fill="#EEB422"/>
<path d="M92.2237 49.26C91.3837 49.03 90.5038 48.77 89.8738 48.17C89.6738 47.97 89.4838 47.69 89.5738 47.43C89.6938 47.07 90.1638 47.02 90.5438 47.04C94.5638 47.35 99.3538 49.78 102.684 51.96C99.1738 51.29 95.6738 50.21 92.2338 49.26H92.2237Z" fill="#EEB422"/>
<path d="M93.5436 53.79C92.7036 53.56 91.8236 53.3 91.1936 52.7C90.9936 52.5 90.8036 52.22 90.8936 51.96C91.0136 51.6 91.4836 51.55 91.8636 51.57C95.8836 51.88 100.674 54.31 104.004 56.49C100.494 55.82 96.9936 54.74 93.5536 53.79H93.5436Z" fill="#EEB422"/>
<path d="M94.4337 58.62C93.5937 58.39 92.7137 58.13 92.0737 57.53C91.8737 57.33 91.6837 57.05 91.7737 56.79C91.8937 56.43 92.3637 56.38 92.7437 56.4C96.7637 56.71 101.554 59.14 104.884 61.32C101.374 60.65 97.8737 59.57 94.4337 58.62Z" fill="#EEB422"/>
<path d="M95.1837 63.7C94.3437 63.47 93.4637 63.21 92.8337 62.61C92.6337 62.41 92.4437 62.13 92.5337 61.87C92.6537 61.51 93.1237 61.46 93.5037 61.48C97.5237 61.79 102.314 64.22 105.644 66.4C102.134 65.73 98.6337 64.65 95.1937 63.7H95.1837Z" fill="#EEB422"/>
<path d="M95.7636 68.18C94.9236 67.95 94.0436 67.69 93.4136 67.09C93.2136 66.89 93.0235 66.61 93.1135 66.35C93.2335 65.99 93.7035 65.94 94.0835 65.96C98.1035 66.27 102.894 68.7 106.224 70.88C102.714 70.21 99.2136 69.13 95.7736 68.18H95.7636Z" fill="#EEB422"/>
<path d="M96.0636 73.74C95.2236 73.51 94.3436 73.25 93.7136 72.65C93.5136 72.45 93.3236 72.17 93.4136 71.91C93.5336 71.55 94.0036 71.5 94.3836 71.52C98.4036 71.83 103.194 74.26 106.524 76.44C103.014 75.77 99.5136 74.69 96.0736 73.74H96.0636Z" fill="#EEB422"/>
<path d="M95.8336 80.13C94.9936 79.9 94.1136 79.64 93.4836 79.04C93.2836 78.84 93.0936 78.56 93.1836 78.3C93.3036 77.94 93.7736 77.89 94.1536 77.91C98.1736 78.22 102.964 80.65 106.294 82.83C102.784 82.16 99.2836 81.08 95.8436 80.13H95.8336Z" fill="#EEB422"/>
<path d="M104.144 33.75C104.554 32.98 104.984 32.17 105.704 31.68C105.934 31.52 106.254 31.4 106.494 31.54C106.824 31.73 106.774 32.21 106.664 32.57C105.514 36.44 102.134 40.6 99.2937 43.4C100.684 40.11 102.484 36.92 104.144 33.75Z" fill="#EEB422"/>
<path d="M106.044 37.84C106.454 37.07 106.884 36.26 107.604 35.77C107.834 35.61 108.154 35.49 108.394 35.63C108.724 35.82 108.674 36.3 108.564 36.66C107.414 40.53 104.034 44.69 101.194 47.49C102.584 44.2 104.384 41.01 106.044 37.84Z" fill="#EEB422"/>
<path d="M108.224 42.79C108.684 42.05 109.184 41.28 109.944 40.85C110.194 40.71 110.514 40.61 110.744 40.77C111.054 40.98 110.974 41.46 110.834 41.81C109.384 45.57 105.684 49.46 102.644 52.03C104.294 48.85 106.324 45.82 108.224 42.79Z" fill="#EEB422"/>
<path d="M110.204 47.66C110.714 46.95 111.264 46.22 112.054 45.84C112.304 45.72 112.634 45.64 112.854 45.82C113.144 46.05 113.034 46.52 112.874 46.86C111.174 50.52 107.214 54.14 103.994 56.49C105.854 53.44 108.094 50.55 110.204 47.66Z" fill="#EEB422"/>
<path d="M111.134 52.53C111.644 51.82 112.194 51.09 112.984 50.71C113.234 50.59 113.564 50.51 113.784 50.69C114.074 50.92 113.964 51.39 113.804 51.73C112.104 55.39 108.144 59.01 104.924 61.36C106.784 58.31 109.024 55.42 111.134 52.53Z" fill="#EEB422"/>
<path d="M112.054 57.4C112.564 56.69 113.114 55.96 113.904 55.58C114.154 55.46 114.484 55.38 114.704 55.56C114.994 55.79 114.884 56.26 114.724 56.6C113.024 60.26 109.064 63.88 105.844 66.23C107.704 63.18 109.944 60.29 112.054 57.4Z" fill="#EEB422"/>
<path d="M112.974 62.27C113.484 61.56 114.034 60.83 114.824 60.45C115.074 60.33 115.404 60.25 115.624 60.43C115.914 60.66 115.804 61.13 115.644 61.47C113.944 65.13 109.984 68.75 106.764 71.1C108.624 68.05 110.864 65.16 112.974 62.27Z" fill="#EEB422"/>
<path d="M112.694 74.39C113.204 73.68 113.754 72.95 114.544 72.57C114.794 72.45 115.124 72.37 115.344 72.55C115.634 72.78 115.524 73.25 115.364 73.59C113.664 77.25 109.704 80.87 106.484 83.22C108.344 80.17 110.584 77.28 112.694 74.39Z" fill="#EEB422"/>
<path d="M112.844 68.27C113.354 67.56 113.904 66.83 114.694 66.45C114.944 66.33 115.274 66.25 115.494 66.43C115.784 66.66 115.674 67.13 115.514 67.47C113.814 71.13 109.854 74.75 106.634 77.1C108.494 74.05 110.734 71.16 112.844 68.27Z" fill="#EEB422"/>
<path d="M93.6037 30.45C94.2137 31.52 94.8237 32.59 95.4137 33.68L97.1137 36.97L98.6737 40.33L100.134 43.74C101.994 48.32 103.484 53.06 104.644 57.87C105.724 62.7 106.474 67.62 106.674 72.57L106.724 76.28L106.594 79.99L106.234 83.68C106.054 84.9 105.864 86.12 105.664 87.34L105.964 83.66L106.084 79.98L106.064 76.3L105.864 72.63C105.494 67.74 104.764 62.88 103.614 58.12C102.554 53.34 101.064 48.65 99.3737 44.04L98.0537 40.6L96.6337 37.2L95.1537 33.82C94.6237 32.71 94.1037 31.59 93.5938 30.47L93.6037 30.45Z" fill="#5700DD"/>
<path d="M119.444 87.69C120.414 83.05 119.044 78.22 117.054 73.92C115.064 69.62 112.434 65.62 110.644 61.24C106.454 50.98 107.154 39.22 110.544 28.67C109.544 40.01 111.054 51.95 114.614 62.77C116.024 67.04 117.774 71.2 118.944 75.55C120.114 79.89 120.444 83.31 119.444 87.69Z" fill="#2C2D40"/>
<path d="M122.333 91.18C124.523 82.87 120.713 74.34 118.833 65.95C115.613 51.61 118.283 36.04 126.073 23.59C126.183 28.34 124.343 33.26 123.373 37.91C120.953 49.42 120.463 61.32 121.913 72.99C122.633 78.76 123.533 85.49 122.333 91.18Z" fill="#2C2D40"/>
<path d="M124.573 88.35C127.073 77.88 123.883 66.83 125.333 56.16C126.983 44.02 134.543 33.14 135.253 20.91C137.043 29.16 134.733 37.76 132.093 45.77C129.453 53.79 126.273 61.8 125.933 70.24C125.673 76.83 127.153 82.28 124.563 88.35H124.573Z" fill="#2C2D40"/>
<path d="M182.944 46.74C182.944 48.54 181.484 50 179.684 50C177.884 50 176.424 48.54 176.424 46.74C176.424 44.94 177.884 43.48 179.684 43.48C181.484 43.48 182.944 44.94 182.944 46.74Z" stroke="#5700DD" stroke-width="0.53" stroke-miterlimit="10"/>
<path d="M119.694 31.29C119.694 33.09 118.234 34.55 116.434 34.55C114.634 34.55 113.174 33.09 113.174 31.29C113.174 29.49 114.634 28.03 116.434 28.03C118.234 28.03 119.694 29.49 119.694 31.29Z" stroke="#EEB422" stroke-width="0.53" stroke-miterlimit="10"/>
<path d="M47.9636 60.55C49.7641 60.55 51.2236 59.0904 51.2236 57.29C51.2236 55.4896 49.7641 54.03 47.9636 54.03C46.1632 54.03 44.7036 55.4896 44.7036 57.29C44.7036 59.0904 46.1632 60.55 47.9636 60.55Z" stroke="#BFCDF2" stroke-width="0.53" stroke-miterlimit="10"/>
<path d="M167.994 55.18C167.994 56.08 167.264 56.81 166.364 56.81C165.464 56.81 164.734 56.08 164.734 55.18C164.734 54.28 165.464 53.55 166.364 53.55C167.264 53.55 167.994 54.28 167.994 55.18Z" fill="#2C2D40"/>
<path d="M108.554 17.53C108.554 18.43 107.824 19.16 106.924 19.16C106.024 19.16 105.294 18.43 105.294 17.53C105.294 16.63 106.024 15.9 106.924 15.9C107.824 15.9 108.554 16.63 108.554 17.53Z" fill="#8674FC"/>
<path d="M57.8535 63.64C57.8535 64.54 57.1235 65.27 56.2235 65.27C55.3235 65.27 54.5935 64.54 54.5935 63.64C54.5935 62.74 55.3235 62.01 56.2235 62.01C57.1235 62.01 57.8535 62.74 57.8535 63.64Z" fill="#EEB422"/>
<path d="M128.854 149.26L87.5937 81.79L61.1237 73.23C61.1237 73.23 54.1137 86.46 51.7837 93.99C49.4437 101.52 49.9637 108.26 48.1537 110.08C46.3337 111.9 31.2837 124.87 31.2837 124.87C34.2237 130.62 38.9437 134.85 45.2737 136.16C45.7237 140.2 45.7737 144.31 45.8537 148.41C47.6137 149.15 51.4637 150.9 51.4637 152.03C51.4637 153.16 47.8137 153 45.9637 152.86C46.0937 156.67 46.3737 160.46 47.1337 164.16C48.0137 168.45 49.8237 173.04 53.7737 174.95C55.6537 175.86 57.7937 176.03 59.8837 176.1C66.9537 176.34 74.0537 175.58 80.9137 173.84L103.354 213.78L148.064 182.74L128.864 149.27L128.854 149.26Z" fill="#E47573"/>
<path d="M157.624 89.19C161.214 95.66 162.714 103.28 161.844 110.63C161.774 111.21 161.564 111.93 160.984 112.02C160.684 112.06 160.394 111.91 160.144 111.74C158.754 110.79 157.814 109.21 157.664 107.53C158.744 114.17 157.494 121.02 155.034 127.28C152.584 133.54 148.974 139.27 145.194 144.84C143.464 147.38 141.684 149.93 140.584 152.8C139.484 155.67 139.114 158.95 140.274 161.8C138.794 161.9 137.284 161.18 136.444 159.96C137.474 161.31 138.414 163.45 137.064 164.47C136.164 165.14 134.904 164.74 133.864 164.31C131.104 163.16 128.294 161.98 125.964 160.11C122.904 157.66 120.844 154.18 119.084 150.67C115.034 142.62 112.164 133.99 110.574 125.13C106.594 124.66 102.164 124.35 98.1837 123.88C98.2437 118.72 98.3137 113.42 98.9037 108.3C95.9937 108.17 93.0537 105.8 91.7637 103.19C90.4737 100.58 90.1737 97.61 89.8937 94.71C86.7437 94.76 83.2237 93.91 81.0437 91.64C78.8637 89.37 77.6937 86.17 77.8737 83.03C74.9737 84.73 71.3237 84.7 68.2037 83.46C65.0837 82.22 62.5937 79.48 61.6537 76.25C59.5837 78.17 57.5537 80.57 56.0237 82.95C55.9237 83.1 55.9737 83 55.8737 83.16C53.5837 79.69 54.0537 74.89 56.2537 71.36C58.4537 67.83 62.1137 65.44 65.9537 63.84C65.9537 63.84 81.1937 75.13 110.954 81.95C140.714 88.76 157.604 89.19 157.604 89.19H157.624Z" fill="#2C2D40"/>
<path d="M130.474 119.25C130.124 125.2 127.104 130.94 122.404 134.6C120.934 135.75 119.264 136.71 117.414 137C113.254 137.65 109.194 134.53 107.594 130.64C105.994 126.75 106.374 122.33 107.304 118.23C108.514 112.93 111.214 107.25 116.384 105.58C124.724 102.89 130.904 111.88 130.464 119.25H130.474Z" fill="#E47573"/>
<g style="mix-blend-mode:multiply">
<path d="M112.074 132.3C113.854 131.59 115.434 130.38 116.564 128.83C116.794 128.52 117.014 128.18 117.044 127.79C117.104 127.06 116.484 126.46 115.924 125.99C114.784 125.03 113.644 124.07 112.514 123.11C112.284 122.92 112.054 122.71 111.944 122.44C111.834 122.13 111.894 121.79 111.964 121.47C112.824 117.39 113.884 112.99 117.124 110.36C117.994 109.65 119.034 109.09 120.154 108.98C121.814 108.81 123.454 109.65 124.624 110.84C125.794 112.03 126.574 113.54 127.304 115.04C127.304 115.04 128.884 123.48 123.394 129.1C117.904 134.72 112.074 132.29 112.074 132.29V132.3Z" fill="#E47573"/>
</g>
<path d="M127.304 115.05C126.374 113.6 125.454 112.11 124.194 111.06C122.974 110.01 121.364 109.41 119.964 109.74C118.564 110.08 117.274 111.16 116.334 112.41C115.364 113.66 114.664 115.15 114.154 116.72C113.604 118.28 113.224 119.93 112.844 121.6C112.794 121.81 112.754 121.97 112.754 122.06C112.754 122.16 112.734 122.12 112.764 122.18C112.814 122.29 113.244 122.64 113.544 122.92C114.194 123.49 114.824 124.07 115.464 124.65L116.424 125.53C116.754 125.84 117.114 126.18 117.384 126.69C117.674 127.17 117.714 127.94 117.444 128.44C117.184 128.95 116.884 129.25 116.574 129.59C115.334 130.89 113.764 131.86 112.084 132.31C113.604 131.48 114.914 130.36 115.864 129.01C116.094 128.68 116.354 128.32 116.454 128.03C116.544 127.74 116.494 127.56 116.324 127.3C115.984 126.81 115.194 126.3 114.534 125.77C113.854 125.24 113.174 124.71 112.504 124.17C112.164 123.87 111.864 123.74 111.384 123.16C111.154 122.87 111.014 122.39 111.034 122.06C111.034 121.72 111.094 121.45 111.134 121.24C111.474 119.54 111.844 117.82 112.414 116.12C113.004 114.44 113.794 112.75 114.984 111.31C115.574 110.59 116.274 109.96 117.044 109.41C117.824 108.87 118.734 108.45 119.734 108.31C120.734 108.17 121.754 108.35 122.614 108.75C123.484 109.15 124.234 109.73 124.844 110.4C126.064 111.77 126.754 113.41 127.324 115.04L127.304 115.05Z" fill="#2C2D40"/>
<g style="mix-blend-mode:overlay">
<path d="M133.194 95.91C133.764 97.81 134.414 99.67 135.234 101.46C136.024 103.24 136.934 105.04 138.014 106.6C138.574 107.33 139.254 108.06 140.024 108.24C140.414 108.33 140.724 108.26 140.894 108.02C141.084 107.79 141.154 107.34 141.194 106.86C141.384 104.93 141.334 102.98 141.114 101.05C141.084 100.76 141.284 100.5 141.574 100.47C141.834 100.44 142.064 100.61 142.134 100.85C142.744 103.1 144.074 105.16 145.864 106.67C146.094 106.85 146.314 107.05 146.524 107.16C146.744 107.28 146.984 107.35 147.124 107.34C147.254 107.32 147.324 107.29 147.384 107.08C147.434 106.88 147.444 106.54 147.464 106.26C147.514 105.08 147.384 103.89 147.074 102.74C147.034 102.57 147.124 102.41 147.284 102.37C147.404 102.34 147.534 102.39 147.604 102.49C148.274 103.46 148.934 104.44 149.754 105.26C150.574 106.08 151.594 106.75 152.784 106.92C151.574 106.9 150.444 106.29 149.534 105.51C148.604 104.73 147.834 103.79 147.124 102.83L147.654 102.57C148.034 103.76 148.244 105.01 148.254 106.27C148.254 106.59 148.274 106.87 148.194 107.27C148.154 107.66 147.734 108.17 147.244 108.21C146.324 108.28 145.764 107.73 145.284 107.38C143.314 105.78 141.844 103.58 141.134 101.14L142.144 100.94C142.394 102.94 142.374 104.97 142.144 106.97C142.084 107.46 142.044 108.06 141.614 108.62C141.404 108.89 141.074 109.09 140.734 109.16C140.394 109.24 140.074 109.2 139.784 109.13C138.604 108.8 137.884 107.91 137.314 107.07C136.234 105.33 135.444 103.52 134.724 101.65C134.054 99.77 133.504 97.85 133.174 95.9L133.194 95.91Z" fill="#BFCDF2"/>
<path d="M141.144 119.92C140.714 121.2 140.344 122.48 140.024 123.78C139.704 125.07 139.434 126.38 139.244 127.67C139.164 128.29 139.204 128.9 139.434 129.3C139.564 129.5 139.684 129.57 139.804 129.56C139.934 129.56 140.174 129.44 140.414 129.26C141.434 128.53 142.264 127.54 142.844 126.42V126.4C142.974 126.17 143.264 126.08 143.494 126.2C143.724 126.32 143.814 126.6 143.704 126.83C143.424 127.42 143.204 128.03 143.084 128.64C142.974 129.26 143.004 129.88 143.214 130.46C143.424 131.03 143.824 131.55 144.404 131.8C144.974 132.05 145.704 132.06 146.274 131.66C145.804 132.18 144.984 132.33 144.284 132.14C143.554 131.96 142.954 131.38 142.624 130.71C142.274 130.04 142.184 129.26 142.254 128.52C142.324 127.78 142.554 127.08 142.824 126.43L143.684 126.83C143.104 128.13 142.164 129.26 141.014 130.11C140.714 130.31 140.344 130.57 139.804 130.59C139.234 130.61 138.754 130.19 138.554 129.82C138.104 129.03 138.184 128.22 138.294 127.52C138.554 126.16 138.934 124.86 139.404 123.58C139.874 122.31 140.454 121.08 141.124 119.91L141.144 119.92Z" fill="#BFCDF2"/>
<path d="M124.054 140.37C124.204 141.6 124.484 142.79 124.874 143.93C125.274 145.05 125.784 146.19 126.414 147.12C126.744 147.57 127.134 147.9 127.564 148C128.034 148.09 128.404 147.99 128.614 147.62C128.854 147.24 129.034 146.61 129.154 146.07C129.264 145.51 129.344 144.93 129.334 144.35H130.274C130.214 145.51 130.154 146.67 130.854 147.48C131.194 147.87 131.674 148.15 132.204 148.1C132.744 148.05 133.254 147.69 133.684 147.29C133.364 147.79 132.914 148.26 132.274 148.44C131.624 148.63 130.894 148.36 130.414 147.91C129.904 147.46 129.614 146.8 129.484 146.18C129.344 145.54 129.344 144.92 129.344 144.32C129.344 144.06 129.554 143.85 129.814 143.85C130.064 143.85 130.264 144.05 130.284 144.29V144.31C130.324 144.96 130.284 145.62 130.164 146.26C130.014 146.91 129.894 147.5 129.504 148.18C129.304 148.51 128.934 148.84 128.524 148.96C128.114 149.09 127.704 149.08 127.324 148.99C126.544 148.8 125.984 148.21 125.634 147.65C124.944 146.51 124.544 145.33 124.264 144.09C124.004 142.86 123.934 141.59 124.054 140.36V140.37Z" fill="#BFCDF2"/>
<path d="M94.6138 85.76C95.4038 87.62 96.3938 89.37 97.6338 90.94C98.8438 92.52 100.264 93.93 101.854 95.1C102.654 95.68 103.464 96.24 104.334 96.7C105.124 97.17 106.164 97.44 106.554 97.01C106.764 96.82 106.864 96.42 106.894 95.94C106.924 95.46 106.934 94.98 106.894 94.5C106.834 93.54 106.644 92.59 106.334 91.69L107.324 91.4C107.584 92.55 108.114 93.64 108.834 94.6C109.554 95.55 110.474 96.36 111.514 96.95C112.544 97.52 113.744 97.99 114.884 97.96C115.164 97.94 115.434 97.89 115.684 97.78C115.804 97.73 115.924 97.65 116.014 97.58C116.084 97.53 116.124 97.44 116.164 97.34C116.274 96.87 116.094 96.22 115.884 95.68V95.65C115.824 95.53 115.884 95.39 116.014 95.35C116.084 95.32 116.164 95.33 116.224 95.37C116.934 95.81 117.684 96.23 118.444 96.59C119.214 96.94 119.994 97.29 120.834 97.42C119.974 97.39 119.144 97.13 118.344 96.83C117.534 96.53 116.764 96.17 115.984 95.78L116.324 95.47C116.604 96.07 116.864 96.69 116.754 97.47C116.704 97.66 116.624 97.88 116.444 98.04C116.294 98.18 116.154 98.27 115.984 98.36C115.664 98.53 115.304 98.62 114.954 98.65C113.554 98.75 112.294 98.3 111.104 97.73C109.934 97.11 108.904 96.24 108.064 95.2C107.234 94.16 106.634 92.93 106.324 91.63C106.254 91.35 106.424 91.07 106.704 91.01C106.964 90.95 107.224 91.09 107.314 91.34C107.664 92.34 107.884 93.39 107.934 94.44C107.964 94.97 107.954 95.5 107.914 96.02C107.864 96.53 107.794 97.21 107.254 97.73C106.714 98.25 105.934 98.29 105.394 98.16C104.824 98.04 104.314 97.79 103.864 97.52C102.974 97 102.124 96.42 101.324 95.77C99.7338 94.47 98.3338 92.94 97.1838 91.25C96.0538 89.55 95.1638 87.7 94.6038 85.76H94.6138Z" fill="#BFCDF2"/>
<path d="M71.0137 71.07C70.7837 72.07 70.7437 73.1 71.0237 74.04C71.2737 74.98 71.8237 75.8 72.5637 76.35C73.3037 76.91 74.2137 77.18 75.0737 77.03C75.9437 76.9 76.7437 76.37 77.1437 75.64C77.2837 75.38 77.5937 75.29 77.8437 75.43C77.9737 75.5 78.0637 75.63 78.0937 75.77C78.4537 77.33 79.6937 78.63 81.1637 79.44C81.9137 79.85 82.7237 80.16 83.5737 80.41C84.4137 80.67 85.2937 80.83 86.1637 81.03C85.2637 81.05 84.3737 80.99 83.4637 80.88C82.5637 80.75 81.6637 80.53 80.8137 80.15C79.9537 79.77 79.1537 79.23 78.4937 78.54C77.8237 77.85 77.3137 76.98 77.0737 76.01L78.0437 76.13C77.4737 77.23 76.3437 77.88 75.1937 78.04C74.0237 78.21 72.8237 77.76 71.9937 77.02C71.1437 76.28 70.6037 75.23 70.4637 74.15C70.3437 73.08 70.5137 72 70.9837 71.07H71.0137Z" fill="#BFCDF2"/>
</g>
<path d="M68.4236 112.61C67.3536 113.52 66.1536 114.27 64.8936 114.95C63.6336 115.61 62.2936 116.14 60.9036 116.54C59.5236 116.94 58.0936 117.45 56.6236 117.3C55.1736 117.17 53.7136 116.79 52.4436 115.87L52.4836 115.61C53.9436 115.09 55.2436 114.88 56.5536 114.67C57.8436 114.44 59.1636 114.63 60.4836 114.48C61.7936 114.32 63.1136 114.07 64.4136 113.73C65.7236 113.41 67.0036 112.93 68.2836 112.39L68.4236 112.61Z" fill="#2C2D40"/>
<path d="M54.9436 115.49L57.7036 104.99L55.9736 115.7L54.9436 115.49Z" fill="#2C2D40"/>
<path d="M53.3737 89.62C53.3737 89.62 52.3837 91.87 51.5437 94.77C56.6737 93.97 61.5837 94.79 66.1237 97.31C70.6637 99.84 74.9237 104.01 76.9537 108.79C76.9537 108.79 74.3937 97.74 66.7037 93.04C58.0037 87.72 53.3737 89.61 53.3737 89.61V89.62Z" fill="#2C2D40"/>
<path d="M80.6538 173.98C89.1738 169.55 96.7038 163.23 102.544 155.61C98.5138 165.18 92.3838 174.06 84.8738 181.24" fill="#2C2D40"/>
<path d="M191.294 234.69C191.294 234.69 156.594 181.16 145.024 177.06C133.454 172.96 109.604 191.04 93.9336 203.81C78.2736 216.58 59.9536 238.3 59.9536 238.3L191.294 234.69Z" fill="#8674FC"/>
<g style="mix-blend-mode:multiply" opacity="0.32">
<path d="M78.6637 130.3C78.3037 134.06 73.2037 136.65 67.2737 136.08C61.3437 135.51 56.8337 132 57.1937 128.25C57.5537 124.49 62.6537 121.9 68.5837 122.47C74.5137 123.04 79.0237 126.54 78.6637 130.3Z" fill="#FF7673"/>
</g>
<path d="M44.1638 133.16C46.3138 133.24 48.4038 133.89 50.3238 134.84L49.5838 135.16C50.1838 133.16 50.1938 131.04 49.7438 128.85C51.0038 130.72 51.2638 133.25 50.5838 135.46L50.3938 136.06L49.8438 135.77C48.0038 134.82 46.1138 134.02 44.1538 133.15L44.1638 133.16Z" fill="#2C2D40"/>
</g>
</svg>
