<svg width="194" height="230" viewBox="0 0 194 230" fill="none" xmlns="http://www.w3.org/2000/svg">
<mask id="mask0_991_1544" style="mask-type:luminance" maskUnits="userSpaceOnUse" x="0" y="0" width="194" height="230">
<path d="M193.67 133.26C193.67 186.65 150.39 229.93 97.0001 229.93C43.6101 229.93 0.330078 186.65 0.330078 133.26C0.330078 79.87 43.6101 0.339966 97.0001 0.339966C150.39 0.339966 193.67 79.87 193.67 133.26Z" fill="white"/>
</mask>
<g mask="url(#mask0_991_1544)">
<path d="M97.0001 229.93C150.389 229.93 193.67 186.649 193.67 133.26C193.67 79.8706 150.389 36.59 97.0001 36.59C43.6107 36.59 0.330078 79.8706 0.330078 133.26C0.330078 186.649 43.6107 229.93 97.0001 229.93Z" fill="#8674FC"/>
<path d="M50.6201 89.78C50.6201 89.78 67.5801 80.34 92.4801 73.55C117.38 66.76 142.27 64.43 142.27 64.43C142.27 64.43 115.73 84.25 97.8301 87.95C79.9301 91.65 50.6201 89.77 50.6201 89.77V89.78Z" fill="#BFCDF2"/>
<path d="M79.3902 149.85L120.65 82.38L147.12 73.82C147.12 73.82 154.13 87.05 156.46 94.58C158.8 102.11 160.51 113.77 160.51 113.77L168.32 121.18C171.58 125.35 170.67 131.4 166.32 134.41L162.97 136.74C162.97 136.74 163.63 181.49 127.34 174.42L104.9 214.36L60.1902 183.32L79.3902 149.85Z" fill="#E47573"/>
<path d="M50.6202 89.78C47.0302 96.25 45.5302 103.87 46.4002 111.22C46.4702 111.8 46.6802 112.52 47.2602 112.61C47.5602 112.65 47.8502 112.5 48.1002 112.33C49.4902 111.38 50.4302 109.8 50.5802 108.12C49.5002 114.76 50.7502 121.61 53.2102 127.87C55.6702 134.13 59.2702 139.86 63.0502 145.43C64.7802 147.97 66.5602 150.52 67.6602 153.39C68.7602 156.26 69.1302 159.54 67.9702 162.39C69.4502 162.49 70.9602 161.77 71.8002 160.55C70.7702 161.9 69.8302 164.04 71.1802 165.06C72.0802 165.73 73.3402 165.33 74.3802 164.9C77.1402 163.75 79.9502 162.57 82.2802 160.7C85.3402 158.25 87.4002 154.77 89.1602 151.26C93.2102 143.21 96.0802 134.58 97.6702 125.72C101.65 125.25 106.08 124.94 110.06 124.47C110 119.31 109.93 114.01 109.34 108.89C148.6 102.29 145.64 80.08 146.58 76.85C148.65 78.77 150.68 81.17 152.21 83.55C152.31 83.7 152.26 83.6 152.36 83.76C154.65 80.29 154.18 75.49 151.98 71.96C149.78 68.43 146.12 66.04 142.28 64.44C142.28 64.44 127.04 75.73 97.2802 82.55C67.5202 89.36 50.6302 89.79 50.6302 89.79L50.6202 89.78Z" fill="#2C2D40"/>
<path d="M98.8901 123.53C94.1301 156.07 77.3401 186.7 52.4801 208.23C46.5501 213.36 40.2101 217.98 33.8701 222.59C27.8301 226.98 21.8001 231.37 15.7601 235.76C6.88011 228.21 2.25011 217.3 1.64011 205.66C1.04011 194.02 4.94011 182.31 11.8601 172.93C8.32011 176.7 4.18011 181.68 1.48011 186.08C-1.55989 174.54 3.47011 162.34 10.4501 152.67C17.4301 143 26.4601 134.93 33.3201 125.17C40.2201 115.35 44.7401 104.1 49.2001 92.96C55.7601 94.4 62.3201 95.84 68.8701 97.28C76.1201 98.87 83.5501 100.54 89.7501 104.61C95.9501 108.68 99.9701 116.18 98.8901 123.53Z" fill="#2C2D40"/>
<path d="M77.7701 119.84C78.1201 125.79 81.1402 131.53 85.8402 135.19C87.3102 136.34 88.9801 137.3 90.8301 137.59C94.9901 138.24 99.0502 135.12 100.65 131.23C102.25 127.34 101.87 122.92 100.94 118.82C99.7302 113.52 97.0301 107.84 91.8601 106.17C83.5201 103.48 77.3402 112.47 77.7802 119.84H77.7701Z" fill="#E47573"/>
<g style="mix-blend-mode:multiply">
<path d="M96.1701 132.89C94.3901 132.18 92.8101 130.97 91.6801 129.42C91.4501 129.11 91.2301 128.77 91.2001 128.38C91.1401 127.65 91.7601 127.05 92.3201 126.58C93.4601 125.62 94.6001 124.66 95.7301 123.7C95.9601 123.51 96.1901 123.3 96.3001 123.03C96.4101 122.72 96.3501 122.38 96.2801 122.06C95.4201 117.98 94.3601 113.58 91.1201 110.95C90.2501 110.24 89.2101 109.68 88.0901 109.57C86.4301 109.4 84.7901 110.24 83.6201 111.43C82.4501 112.62 81.6701 114.13 80.9401 115.63C80.9401 115.63 79.3601 124.07 84.8501 129.69C90.3401 135.31 96.1701 132.88 96.1701 132.88V132.89Z" fill="#E47573"/>
</g>
<path d="M80.9402 115.64C81.5102 114.01 82.2002 112.38 83.4202 111C84.0402 110.32 84.7902 109.75 85.6602 109.35C86.5202 108.95 87.5402 108.77 88.5402 108.91C89.5402 109.05 90.4502 109.47 91.2302 110.01C92.0002 110.56 92.7002 111.19 93.2902 111.91C94.4802 113.35 95.2702 115.03 95.8602 116.72C96.4302 118.42 96.8002 120.14 97.1402 121.84C97.1802 122.05 97.2402 122.31 97.2402 122.66C97.2502 122.99 97.1102 123.47 96.8902 123.76C96.4202 124.33 96.1102 124.46 95.7702 124.77C95.1002 125.31 94.4202 125.84 93.7402 126.37C93.0802 126.91 92.2902 127.42 91.9502 127.9C91.7802 128.15 91.7302 128.34 91.8202 128.63C91.9102 128.92 92.1702 129.28 92.4102 129.61C93.3602 130.96 94.6702 132.08 96.1902 132.91C94.5102 132.46 92.9502 131.5 91.7002 130.19C91.4002 129.85 91.0902 129.55 90.8402 129.04C90.5602 128.54 90.6102 127.77 90.9002 127.29C91.1602 126.79 91.5302 126.44 91.8602 126.13L92.8202 125.25C93.4502 124.66 94.0902 124.08 94.7402 123.52C95.0402 123.25 95.4702 122.9 95.5202 122.78C95.5502 122.72 95.5202 122.77 95.5302 122.66C95.5302 122.57 95.4902 122.41 95.4402 122.2C95.0602 120.53 94.6802 118.88 94.1302 117.32C93.6202 115.75 92.9202 114.26 91.9502 113.01C91.0002 111.76 89.7202 110.68 88.3202 110.34C86.9202 110.01 85.3102 110.61 84.0902 111.66C82.8302 112.71 81.9102 114.19 80.9802 115.65L80.9402 115.64Z" fill="#2C2D40"/>
<path d="M127.59 174.57C119.07 170.14 111.54 163.82 105.7 156.2C109.73 165.77 115.86 174.65 123.37 181.83" fill="#2C2D40"/>
<path d="M16.9502 235.28C16.9502 235.28 51.6502 181.75 63.2202 177.65C74.7902 173.55 98.6402 191.63 114.31 204.4C129.97 217.17 148.29 238.89 148.29 238.89L16.9502 235.28Z" fill="#BFCDF2"/>
<g style="mix-blend-mode:multiply" opacity="0.32">
<path d="M129.58 130.89C129.94 134.65 135.04 137.24 140.97 136.67C146.9 136.1 151.41 132.59 151.05 128.84C150.69 125.08 145.59 122.49 139.66 123.06C133.73 123.63 129.22 127.13 129.58 130.89Z" fill="#FF7673"/>
</g>
<path d="M155.1 112.43C155.1 114.79 153.88 116.71 152.37 116.71C150.86 116.71 149.64 114.8 149.64 112.43C149.64 110.06 150.86 108.15 152.37 108.15C153.88 108.15 155.1 110.06 155.1 112.43Z" fill="#2C2D40"/>
<path d="M132.46 107.62C141.43 105.88 157.09 96.79 157.09 96.79C157.09 96.79 155.92 92.66 155.16 90.95C148.83 97.85 140.98 103.74 132.46 107.62Z" fill="#2C2D40"/>
<path d="M161.7 149.21C156.9 151.3 151.5 151.98 146.33 151.13C152.39 149.2 157.58 146.32 162.68 142.51C164.16 144.55 164.01 148.2 161.7 149.21Z" fill="#C33C4C"/>
<path d="M146.86 150.68C150.87 152.29 154.89 153.91 159.06 155.05C159.6 155.2 160.19 155.34 160.71 155.12C161.4 154.84 161.72 154.03 161.84 153.29C162.15 151.39 161.63 149.36 160.43 147.85" fill="#C33C4C"/>
<g style="mix-blend-mode:overlay">
<path d="M140.69 69.86C140.36 72.49 139.54 75.05 138.41 77.47C137.25 79.87 135.76 82.11 134.06 84.17C130.64 88.29 126.36 91.61 121.78 94.32C117.15 96.96 112.22 99.06 107.09 100.48C104.53 101.18 101.92 101.73 99.3001 102.12C96.6701 102.47 94.0301 102.7 91.3801 102.7C94.0101 102.46 96.6301 102.13 99.2201 101.61C101.81 101.12 104.36 100.49 106.87 99.71C111.89 98.15 116.74 96.08 121.26 93.42C125.81 90.83 129.99 87.57 133.46 83.66C136.92 79.76 139.6 75.07 140.69 69.88V69.86Z" fill="#BFCDF2"/>
<path d="M107.24 86.11C106.37 86.66 105.49 87.21 104.61 87.75L101.9 89.25L99.1001 90.6L96.2401 91.83C92.3901 93.38 88.3801 94.5 84.3101 95.34C80.2301 96.09 76.0901 96.55 71.9401 96.56L68.8301 96.5L65.7301 96.3L62.6501 95.92C61.6301 95.75 60.6101 95.58 59.6001 95.39C60.6301 95.46 61.6601 95.55 62.6801 95.64L65.7601 95.78L68.8401 95.83L71.9201 95.75C76.0101 95.57 80.1001 95.13 84.1101 94.3C88.1401 93.56 92.0901 92.43 95.9501 91.07L98.8301 89.99L101.67 88.79L104.47 87.5C105.38 87.03 106.3 86.56 107.23 86.11H107.24Z" fill="#BFCDF2"/>
<path d="M79.0301 140.04C78.3301 141.46 77.5601 142.84 76.8101 144.23C76.0201 145.6 75.2101 146.96 74.3901 148.31C72.7401 151.01 70.9601 153.62 69.1101 156.19C67.2401 158.74 65.3101 161.25 63.2601 163.65C62.2301 164.85 61.1901 166.04 60.1301 167.21C59.0401 168.36 57.9701 169.52 56.8301 170.62L59.7301 166.88C60.7001 165.64 61.6701 164.4 62.6201 163.14C64.5201 160.63 66.4201 158.12 68.2501 155.57C70.1101 153.03 71.9001 150.45 73.7001 147.87C74.6001 146.58 75.4801 145.27 76.3601 143.96L79.0201 140.04H79.0301Z" fill="#BFCDF2"/>
<path d="M67.19 113.65C66.41 118.07 65.04 122.39 63.35 126.56C61.63 130.72 59.55 134.73 57.27 138.61C52.69 146.38 47.26 153.57 41.97 160.81C36.61 168 31.42 175.32 27.14 183.18C22.87 191.01 19.6 199.5 18.54 208.45C18.85 203.97 19.8 199.53 21.15 195.24C22.54 190.95 24.35 186.81 26.42 182.81C30.59 174.81 35.82 167.44 41.12 160.19C46.49 153 51.88 145.82 56.58 138.2C61.26 130.59 65.18 122.42 67.19 113.65Z" fill="#BFCDF2"/>
<path d="M57.58 104.67C55.97 107.4 54.28 110.08 52.59 112.76C50.86 115.42 49.1 118.05 47.32 120.67C43.74 125.9 39.96 130.99 36.1 136.02C32.18 141 28.17 145.92 23.99 150.68C21.89 153.05 19.77 155.41 17.62 157.74C15.44 160.04 13.26 162.34 11.01 164.57L14.14 161L17.24 157.4C19.31 155 21.36 152.59 23.38 150.16C27.43 145.3 31.43 140.4 35.27 135.38C39.19 130.41 42.94 125.33 46.66 120.21C48.52 117.65 50.35 115.07 52.16 112.48L54.88 108.59L57.57 104.68L57.58 104.67Z" fill="#BFCDF2"/>
</g>
<path d="M110.62 29.39C111.37 32.94 110.71 36.79 108.63 40.93L104.42 49.38C103.81 50.62 103.56 51.81 103.65 52.94C103.73 53.75 103.21 54.5 102.42 54.66L92.18 56.83C91.12 57.05 90.09 56.38 89.86 55.32C89.12 51.83 89.6101 48.51 91.3201 45.37L95.7 37.32C96.82 35.23 97.24 33.52 96.96 32.19C96.24 28.81 94.22 27.47 90.9 28.17C88.13 28.76 86.7701 30.31 86.8201 32.83C86.8401 33.78 86.2201 34.63 85.2901 34.83L75.3801 36.93C74.2501 37.17 73.1601 36.38 73.0301 35.23C72.5101 30.68 73.5701 26.64 76.1901 23.12C78.9901 19.4 83.03 16.98 88.3 15.87C93.51 14.77 98.15 15.32 102.21 17.53C106.66 19.95 109.47 23.9 110.63 29.39H110.62ZM107.54 66.18C108 68.34 107.61 70.36 106.39 72.24C105.17 74.12 103.47 75.29 101.31 75.75C99.1501 76.21 97.1301 75.82 95.2501 74.6C93.3701 73.38 92.2 71.68 91.74 69.52C91.28 67.36 91.67 65.34 92.89 63.46C94.11 61.58 95.8101 60.41 97.9701 59.95C100.13 59.49 102.15 59.88 104.03 61.1C105.91 62.32 107.08 64.02 107.54 66.18Z" fill="#2C2D40"/>
<path d="M137.23 43.25C136.44 45.24 134.86 46.91 132.49 48.27L127.67 51.04C126.97 51.45 126.45 51.95 126.13 52.54C125.9 52.96 125.41 53.16 124.96 52.98L119.23 50.7C118.64 50.46 118.35 49.79 118.58 49.2C119.36 47.24 120.68 45.77 122.54 44.79L127.32 42.27C128.55 41.61 129.32 40.91 129.61 40.16C130.36 38.27 129.81 36.95 127.95 36.21C126.4 35.59 125.22 35.91 124.42 37.17C124.12 37.64 123.54 37.86 123.02 37.65L117.47 35.45C116.84 35.2 116.56 34.45 116.87 33.85C118.1 31.45 119.94 29.81 122.37 28.94C124.96 28.03 127.73 28.16 130.68 29.33C133.6 30.49 135.69 32.27 136.96 34.69C138.35 37.33 138.44 40.19 137.22 43.26L137.23 43.25ZM123.71 60.31C123.23 61.52 122.38 62.39 121.17 62.91C119.95 63.43 118.74 63.46 117.53 62.97C116.32 62.48 115.45 61.64 114.93 60.43C114.41 59.22 114.38 58 114.87 56.79C115.36 55.58 116.2 54.71 117.41 54.19C118.62 53.67 119.84 53.65 121.05 54.13C122.26 54.61 123.13 55.46 123.65 56.67C124.17 57.88 124.19 59.1 123.71 60.31Z" fill="#EEB422"/>
<path d="M67.2301 45.68C68.7701 47.17 69.7101 49.26 70.0701 51.97L70.8001 57.49C70.9101 58.3 71.1801 58.96 71.6001 59.48C71.9001 59.85 71.9001 60.38 71.5701 60.73L67.2801 65.16C66.8401 65.62 66.1101 65.63 65.6501 65.19C64.1401 63.73 63.2801 61.95 63.0801 59.85L62.5601 54.47C62.4201 53.08 62.0601 52.1 61.4801 51.55C60.0201 50.13 58.5901 50.15 57.1901 51.59C56.0301 52.79 55.8801 54 56.7301 55.21C57.0501 55.67 57.0301 56.28 56.6401 56.69L52.4901 60.98C52.0201 61.47 51.2201 61.44 50.7801 60.92C49.0301 58.87 48.2101 56.55 48.3301 53.96C48.4701 51.22 49.6501 48.71 51.8501 46.42C54.0301 44.16 56.4801 42.9 59.1901 42.65C62.1601 42.36 64.8401 43.37 67.2101 45.67L67.2301 45.68ZM77.8601 64.67C78.8001 65.58 79.2801 66.69 79.3001 68.01C79.3201 69.33 78.8801 70.46 77.9801 71.4C77.0701 72.34 75.9601 72.82 74.6401 72.84C73.3201 72.86 72.1901 72.42 71.2501 71.52C70.3101 70.61 69.8301 69.5 69.8101 68.18C69.7901 66.86 70.2301 65.73 71.1301 64.79C72.0401 63.85 73.1501 63.37 74.4701 63.35C75.7901 63.33 76.9201 63.77 77.8601 64.67Z" fill="#EEB422"/>
<path d="M58.6802 75.12C60.4806 75.12 61.9402 73.6604 61.9402 71.86C61.9402 70.0595 60.4806 68.6 58.6802 68.6C56.8797 68.6 55.4202 70.0595 55.4202 71.86C55.4202 73.6604 56.8797 75.12 58.6802 75.12Z" stroke="#BFCDF2" stroke-width="0.53" stroke-miterlimit="10"/>
<path d="M46.9802 80.29C46.9802 81.19 46.2502 81.92 45.3502 81.92C44.4502 81.92 43.7202 81.19 43.7202 80.29C43.7202 79.39 44.4502 78.66 45.3502 78.66C46.2502 78.66 46.9802 79.39 46.9802 80.29Z" fill="#BFCDF2"/>
<path d="M154.03 51.35C155.83 51.35 157.29 49.8904 157.29 48.09C157.29 46.2895 155.83 44.83 154.03 44.83C152.23 44.83 150.77 46.2895 150.77 48.09C150.77 49.8904 152.23 51.35 154.03 51.35Z" stroke="#BFCDF2" stroke-width="0.53" stroke-miterlimit="10"/>
<path d="M142.33 56.52C142.33 57.42 141.6 58.15 140.7 58.15C139.8 58.15 139.07 57.42 139.07 56.52C139.07 55.62 139.8 54.89 140.7 54.89C141.6 54.89 142.33 55.62 142.33 56.52Z" fill="#BFCDF2"/>
<path d="M61.03 23.66C62.8305 23.66 64.29 22.2004 64.29 20.4C64.29 18.5995 62.8305 17.14 61.03 17.14C59.2296 17.14 57.77 18.5995 57.77 20.4C57.77 22.2004 59.2296 23.66 61.03 23.66Z" stroke="#BFCDF2" stroke-width="0.53" stroke-miterlimit="10"/>
<path d="M63.1799 33.01C63.1799 33.91 62.4499 34.64 61.5499 34.64C60.6499 34.64 59.9199 33.91 59.9199 33.01C59.9199 32.11 60.6499 31.38 61.5499 31.38C62.4499 31.38 63.1799 32.11 63.1799 33.01Z" fill="#BFCDF2"/>
<path d="M141.58 41.06C142.4 40.01 143.32 39.09 144.28 38.22C145.23 37.34 146.24 36.54 147.26 35.75C148.3 34.99 149.35 34.24 150.46 33.58C151.56 32.9 152.7 32.28 153.94 31.78C153.12 32.83 152.2 33.75 151.24 34.62C150.29 35.5 149.28 36.3 148.26 37.09C147.22 37.85 146.17 38.6 145.06 39.26C143.96 39.94 142.82 40.56 141.58 41.06Z" fill="#5700DD"/>
<path d="M138.45 32.5C138.71 31.73 139.09 31.08 139.51 30.47C139.92 29.85 140.4 29.29 140.9 28.76C141.41 28.23 141.96 27.74 142.56 27.31C143.16 26.87 143.8 26.47 144.56 26.19C144.3 26.96 143.92 27.61 143.5 28.22C143.09 28.84 142.61 29.4 142.1 29.93C141.59 30.45 141.04 30.94 140.44 31.38C139.84 31.82 139.2 32.22 138.44 32.5H138.45Z" fill="#5700DD"/>
<path d="M116.34 27.25C116.57 25.98 116.94 24.78 117.37 23.6C117.79 22.42 118.28 21.28 118.82 20.15C119.36 19.03 119.94 17.93 120.6 16.86C121.25 15.79 121.95 14.75 122.81 13.78C122.59 15.05 122.21 16.25 121.78 17.43C121.36 18.61 120.87 19.75 120.33 20.88C119.79 22 119.2 23.1 118.55 24.17C117.9 25.24 117.2 26.28 116.35 27.26L116.34 27.25Z" fill="#5700DD"/>
<path d="M113.61 20.64C113.44 20.01 113.43 19.43 113.47 18.86C113.5 18.29 113.62 17.75 113.78 17.22C113.94 16.69 114.15 16.18 114.44 15.69C114.72 15.2 115.05 14.72 115.55 14.29C115.72 14.92 115.74 15.5 115.69 16.07C115.66 16.64 115.54 17.18 115.38 17.71C115.22 18.24 115.01 18.75 114.72 19.24C114.44 19.73 114.11 20.21 113.61 20.64Z" fill="#5700DD"/>
<path d="M43.2102 31.17C44.2302 31.4 45.1502 31.81 46.0402 32.28C46.9302 32.75 47.7602 33.32 48.5402 33.94C49.3202 34.57 50.0502 35.25 50.7002 36.02C51.3602 36.78 51.9502 37.6 52.4002 38.54C51.4602 38.09 50.6302 37.55 49.8302 36.99C49.0202 36.44 48.2502 35.85 47.5002 35.25C46.7502 34.64 46.0102 34.02 45.3002 33.35C44.5802 32.69 43.8802 31.99 43.2302 31.18L43.2102 31.17Z" fill="#5700DD"/>
<path d="M41.05 38.82C41.84 38.81 42.56 38.95 43.25 39.14C43.95 39.32 44.61 39.58 45.26 39.88C45.9 40.18 46.52 40.53 47.11 40.95C47.7 41.36 48.27 41.83 48.76 42.45C47.97 42.46 47.25 42.33 46.55 42.14C45.85 41.96 45.19 41.7 44.54 41.4C43.9 41.09 43.28 40.75 42.69 40.33C42.1 39.92 41.53 39.45 41.04 38.83L41.05 38.82Z" fill="#5700DD"/>
<path d="M28.8701 69.28C30.3701 68.96 31.8701 68.8 33.3701 68.7C34.8701 68.59 36.3601 68.58 37.8601 68.58C39.3601 68.62 40.8501 68.68 42.3401 68.83C43.8301 68.98 45.3301 69.18 46.8201 69.55C45.3201 69.88 43.8201 70.03 42.3201 70.13C40.8201 70.24 39.3301 70.25 37.8301 70.24C36.3301 70.2 34.8401 70.14 33.3501 69.98C31.8601 69.83 30.3601 69.63 28.8701 69.26V69.28Z" fill="#5700DD"/>
<path d="M39.0901 63.43C39.9401 63.17 40.7801 63.09 41.6101 63.08C42.4501 63.06 43.2701 63.14 44.0901 63.28C44.9001 63.42 45.7101 63.63 46.4901 63.93C47.2701 64.22 48.0401 64.58 48.7501 65.11C47.8701 65.25 47.0401 65.25 46.2201 65.21C45.4001 65.17 44.6001 65.07 43.8001 64.94C43.0001 64.8 42.2101 64.63 41.4301 64.38C40.6401 64.15 39.8601 63.87 39.0801 63.45L39.0901 63.43Z" fill="#5700DD"/>
</g>
</svg>
