<svg width="270" height="296" viewBox="0 0 270 296" fill="none" xmlns="http://www.w3.org/2000/svg">
<g clip-path="url(#clip0_991_1749)">
<g clip-path="url(#clip1_991_1749)">
<path d="M52.0547 65.3846C0.842163 202.011 -62.0972 191.169 -54.3487 262.515C-48.634 315.077 -7.16798 299.981 41.0326 301.952C89.2332 303.923 233.55 302.119 233.55 302.119C233.55 302.119 215.061 227.095 252.282 151.789C322.14 10.3934 86.9319 -27.6613 52.0547 65.3846Z" fill="#EDE4DD"/>
<path d="M49.2129 279.82C49.2129 279.82 116.06 240.812 129.963 230.32C144.329 219.479 181.147 214.66 212.236 223.669C243.326 232.679 295.904 252.578 310.42 266.822C318.588 274.826 317.609 279.833 317.609 279.833L49.2129 279.82Z" fill="#565697"/>
<path d="M191.49 220.457L207.676 225.402C207.676 225.402 174.673 252.94 163.28 258.696C151.221 264.793 137.747 269.675 126.776 263.728C113.463 256.51 132.581 236.424 132.581 236.424L191.49 220.457Z" fill="#1D1E40"/>
<path d="M121.362 206.885C121.362 206.885 131.525 213.456 130.214 244.205C128.903 274.955 197.845 225.545 197.845 225.545C197.845 225.545 182.691 221.139 179.191 180.138C175.691 139.136 173.111 154.038 173.111 154.038C173.111 154.038 116.269 199.341 121.362 206.885Z" fill="#EFB6AB"/>
<path opacity="0.64" d="M168.865 155.847C168.865 155.847 174.7 217.325 129.963 230.32C128.324 221.519 128.634 216.553 124.786 212.29C129.492 185.159 168.865 155.847 168.865 155.847Z" fill="#EFB6AB"/>
<path d="M174.589 149.628C174.589 149.628 169.747 185.991 182.74 184.463C195.733 182.936 207.565 120.574 208.21 115.319C208.854 110.064 213.264 75.5039 211.989 72.2014C210.713 68.8988 164.796 53.4058 89.2514 62.3042C51.1442 65.6102 53.0894 75.1803 53.0894 75.1803C53.0894 75.1803 65.8244 122.529 71.4266 129.719C77.0289 136.909 174.589 149.628 174.589 149.628Z" fill="#A16D4B"/>
<path d="M326.586 266.943H-57.2544V295.709H326.586V266.943Z" fill="#989CB7"/>
<path d="M65.9154 76.1999C65.9154 76.1999 64.8695 136.752 78.5423 172.423C92.215 208.093 105.881 212.29 105.881 212.29C105.881 212.29 111.588 214.806 124.8 212.29C140.533 209.297 163.315 191.062 173.122 154.326C173.122 154.326 195.207 157.657 197.734 130.408C199.418 112.277 183.298 111.143 175.817 114.132C170.671 116.185 165.836 122.136 163.043 125.512C157.284 132.472 156.479 120.086 158.476 104.353C160.272 90.2766 142.907 82.102 142.907 82.102" fill="#EFB6AB"/>
<path fill-rule="evenodd" clip-rule="evenodd" d="M178.531 125.347C180.987 124.442 183.89 124.308 187.251 125.5C187.586 125.619 187.762 125.987 187.642 126.323C187.523 126.658 187.154 126.833 186.819 126.714C183.729 125.618 181.137 125.759 178.977 126.555C176.803 127.355 175.021 128.836 173.602 130.488C172.215 132.102 171.196 133.857 170.515 135.235C171.179 134.761 171.974 134.264 172.857 133.85C174.159 133.239 175.686 132.791 177.285 132.886C178.902 132.983 180.546 133.635 182.056 135.142C182.308 135.393 182.308 135.801 182.056 136.052C181.804 136.304 181.396 136.304 181.144 136.052C179.852 134.763 178.504 134.249 177.208 134.172C175.894 134.093 174.588 134.46 173.406 135.015C172.226 135.569 171.204 136.293 170.473 136.885C170.109 137.179 169.82 137.438 169.624 137.622C169.525 137.714 169.451 137.787 169.401 137.836C169.376 137.861 169.358 137.879 169.346 137.891L169.334 137.904L169.331 137.907L169.331 137.907L169.331 137.907L169.331 137.907C169.123 138.125 168.791 138.169 168.533 138.014C168.274 137.859 168.158 137.546 168.252 137.26L168.865 137.462C168.252 137.26 168.252 137.26 168.253 137.26L168.253 137.259L168.254 137.255L168.258 137.245C168.261 137.236 168.265 137.223 168.271 137.207C168.282 137.174 168.298 137.127 168.32 137.066C168.364 136.945 168.43 136.769 168.517 136.55C168.691 136.11 168.954 135.49 169.31 134.762C170.021 133.309 171.111 131.409 172.623 129.649C174.134 127.89 176.088 126.246 178.531 125.347Z" fill="#4C1C17"/>
<path d="M101.952 109.587C102.07 106.535 109.273 103.556 115.548 103.897C121.823 104.238 124.685 106.427 126.522 108.157C128.032 109.587 126.871 112.43 123.28 110.687C119.32 108.756 115.987 107.555 110.381 108.829C104.553 110.155 101.844 112.323 101.952 109.587Z" fill="#E69766"/>
<path fill-rule="evenodd" clip-rule="evenodd" d="M82.8356 120.007C83.1858 120.071 83.4172 120.407 83.3524 120.757L82.7182 120.64L82.0841 120.523C82.1489 120.173 82.4853 119.942 82.8356 120.007ZM97.2432 169.581C97.2422 169.582 97.2391 169.586 97.2338 169.593C97.2231 169.607 97.2036 169.631 97.1743 169.665C97.1159 169.732 97.0187 169.836 96.8759 169.968C96.5905 170.23 96.1216 170.603 95.4143 171.002C94.0013 171.799 91.6217 172.711 87.8298 173.055C84.1094 173.393 81.6169 172.417 79.9506 170.982C78.2673 169.532 77.3613 167.557 76.9377 165.802L76.9374 165.801C76.8231 165.331 76.8063 164.285 76.9054 162.712C77.0022 161.173 77.2023 159.217 77.4755 156.99C78.0218 152.536 78.8564 147.027 79.7275 141.656C80.5984 136.286 81.5047 131.061 82.1933 127.178C82.5376 125.237 82.8274 123.631 83.0312 122.511C83.133 121.951 83.2134 121.512 83.2682 121.214C83.2957 121.064 83.3167 120.95 83.3309 120.873L83.3523 120.757C83.3523 120.757 83.3524 120.757 82.7182 120.64C82.0841 120.523 82.084 120.523 82.084 120.523L82.0624 120.64C82.0481 120.717 82.027 120.832 81.9995 120.981C81.9445 121.281 81.864 121.72 81.762 122.281C81.558 123.403 81.2678 125.01 80.9232 126.954C80.2339 130.841 79.3265 136.072 78.4542 141.45C77.5823 146.826 76.7445 152.355 76.1952 156.833C75.9206 159.072 75.7172 161.056 75.618 162.631C75.5211 164.17 75.5159 165.412 75.6837 166.104M97.768 169.955C98.2958 170.325 98.2952 170.326 98.2952 170.326L98.2931 170.329L98.2895 170.334C98.2869 170.338 98.2837 170.342 98.2799 170.347C98.2724 170.357 98.2626 170.37 98.2504 170.386C98.226 170.417 98.1921 170.459 98.1477 170.51C98.059 170.611 97.9288 170.75 97.7503 170.914C97.393 171.243 96.8438 171.674 96.0489 172.123C94.4577 173.02 91.8975 173.979 87.9466 174.337C83.9242 174.703 81.0724 173.648 79.108 171.957C77.1607 170.28 76.1493 168.032 75.6839 166.105M97.2432 169.581C97.4489 169.294 97.8486 169.225 98.1386 169.428C98.4301 169.633 98.5005 170.034 98.2958 170.325L97.768 169.955" fill="#4C1C17"/>
<path d="M101.146 180.475C101.146 180.475 111.438 184.568 116.137 173.759L101.146 180.475Z" fill="#EFB6AB"/>
<path fill-rule="evenodd" clip-rule="evenodd" d="M116.779 172.282C117.596 172.636 117.971 173.584 117.616 174.4C115.014 180.385 110.731 182.389 107.046 182.771C105.256 182.957 103.65 182.76 102.501 182.522C101.922 182.402 101.45 182.27 101.116 182.166C100.949 182.114 100.816 182.068 100.72 182.034C100.672 182.017 100.634 182.003 100.605 181.992C100.591 181.987 100.579 181.982 100.57 181.978L100.558 181.974L100.553 181.972L100.551 181.971C100.551 181.971 100.55 181.971 101.138 180.497L100.55 181.971C99.7225 181.642 99.319 180.705 99.6486 179.88C99.9775 179.056 100.912 178.653 101.738 178.978L101.747 178.981C101.758 178.986 101.778 178.993 101.806 179.003C101.864 179.024 101.956 179.056 102.079 179.094C102.327 179.171 102.695 179.275 103.155 179.37C104.082 179.562 105.342 179.712 106.713 179.57C109.348 179.296 112.561 177.941 114.658 173.118C115.012 172.303 115.962 171.929 116.779 172.282Z" fill="#3A130D"/>
<path fill-rule="evenodd" clip-rule="evenodd" d="M125.091 127.124C125.745 127.728 125.785 128.746 125.181 129.399C120.746 134.192 116.041 134.673 112.436 133.82C110.685 133.406 109.235 132.691 108.228 132.088C107.722 131.785 107.319 131.505 107.039 131.296C106.898 131.192 106.787 131.105 106.708 131.041C106.669 131.009 106.637 130.983 106.614 130.963C106.602 130.954 106.592 130.945 106.585 130.939L106.575 130.931L106.571 130.927L106.57 130.926C106.569 130.925 106.568 130.925 107.611 129.727L106.568 130.925C105.896 130.342 105.825 129.325 106.409 128.654C106.992 127.985 108.007 127.912 108.679 128.491L108.687 128.498C108.695 128.505 108.712 128.518 108.735 128.538C108.783 128.576 108.86 128.636 108.963 128.713C109.171 128.867 109.485 129.087 109.887 129.328C110.699 129.814 111.839 130.371 113.18 130.688C115.758 131.298 119.239 131.077 122.812 127.215C123.417 126.562 124.437 126.521 125.091 127.124Z" fill="black"/>
<path fill-rule="evenodd" clip-rule="evenodd" d="M71.0165 129.273C71.0165 129.273 71.0165 129.273 71.0165 129.273L71.016 129.271L71.0157 129.27C71.0157 129.27 71.0157 129.271 71.0158 129.271C70.7643 128.607 70.0218 128.271 69.3558 128.521C68.6889 128.771 68.3513 129.513 68.6017 130.179L69.8093 129.726C68.6017 130.179 68.6019 130.179 68.602 130.18L68.6031 130.182L68.605 130.188L68.6106 130.202C68.6151 130.213 68.621 130.229 68.6285 130.247C68.6434 130.285 68.6643 130.336 68.6913 130.399C68.7452 130.526 68.8235 130.701 68.9261 130.909C69.1296 131.321 69.437 131.88 69.8492 132.447C70.6261 133.516 72.0208 134.943 74.0449 134.943C76.0406 134.943 77.6287 133.974 78.6552 133.11C79.1775 132.671 79.5848 132.234 79.8628 131.905C80.0025 131.74 80.1115 131.601 80.1878 131.499C80.226 131.448 80.2562 131.406 80.2781 131.375C80.2891 131.36 80.298 131.347 80.3049 131.337L80.3135 131.324L80.3167 131.32L80.3186 131.317C80.3188 131.317 80.3191 131.316 79.2498 130.596L80.3191 131.316C80.7175 130.727 80.5617 129.926 79.9712 129.529C79.3818 129.132 78.5821 129.286 78.1829 129.872C78.1828 129.873 78.1827 129.873 78.1826 129.873C78.1815 129.875 78.1784 129.879 78.1734 129.886C78.1635 129.9 78.1462 129.924 78.1218 129.957C78.0728 130.022 77.9958 130.121 77.8926 130.243C77.685 130.488 77.3794 130.816 76.9927 131.141C76.2011 131.807 75.1868 132.367 74.0449 132.367C73.3115 132.367 72.5884 131.83 71.9369 130.934C71.6349 130.519 71.4003 130.095 71.2405 129.771C71.1615 129.611 71.1028 129.479 71.065 129.391C71.0462 129.347 71.0327 129.313 71.0246 129.293C71.0206 129.283 71.0179 129.276 71.0165 129.273C71.0162 129.272 71.0159 129.271 71.0158 129.271C71.0158 129.271 71.0158 129.271 71.0158 129.271M71.0165 129.273C71.0165 129.273 71.0165 129.273 71.0165 129.273V129.273ZM78.1809 129.875L78.1821 129.874L78.1826 129.873" fill="black"/>
<path d="M68.0104 107.83C69.9522 107.945 70.6041 105.794 75.3104 107.043C80.0167 108.293 80.5082 109.723 81.5855 109.385C83.8863 108.658 82.3908 105.209 77.3742 103.73C74.2854 102.815 71.1374 102.906 69.3386 104.291C68.3904 105.018 66.0686 107.715 68.0104 107.83Z" fill="#E69766"/>
<path d="M101.952 109.587C102.07 106.535 109.273 103.556 115.548 103.897C121.823 104.238 124.685 106.427 126.522 108.157C128.032 109.587 126.871 112.43 123.28 110.687C119.32 108.756 115.987 107.555 110.381 108.829C104.553 110.155 101.844 112.323 101.952 109.587Z" fill="#A16D4B"/>
<path d="M68.0104 107.83C69.9522 107.945 70.6041 105.794 75.3104 107.043C80.0167 108.293 80.5082 109.723 81.5855 109.385C83.8863 108.658 82.3908 105.209 77.3742 103.73C74.2854 102.815 71.1374 102.906 69.3386 104.291C68.3904 105.018 66.0686 107.715 68.0104 107.83Z" fill="#A16D4B"/>
<path d="M132.686 85.2863C176.487 85.2863 211.996 79.2316 211.996 71.7629C211.996 64.2941 176.487 58.2395 132.686 58.2395C88.8838 58.2395 53.3755 64.2941 53.3755 71.7629C53.3755 79.2316 88.8838 85.2863 132.686 85.2863Z" fill="#A16D4B"/>
<path opacity="0.62" d="M212.763 72.0726C212.763 79.5477 177.329 85.2967 133.529 85.2967C89.7292 85.2967 54.2192 79.2414 54.2192 71.7733C54.2192 64.3052 89.7292 58.2465 133.529 58.2465C177.329 58.2465 212.763 64.601 212.763 72.0726Z" fill="#A16D4B"/>
<path fill-rule="evenodd" clip-rule="evenodd" d="M168.52 167.894C168.863 167.988 169.065 168.342 168.971 168.685L168.349 168.515C168.971 168.685 168.971 168.686 168.971 168.686L168.968 168.694L168.962 168.716C168.957 168.735 168.949 168.763 168.938 168.8C168.917 168.873 168.885 168.98 168.843 169.119C168.757 169.397 168.628 169.803 168.451 170.321C168.097 171.357 167.551 172.841 166.78 174.644C165.239 178.248 162.797 183.131 159.194 188.25C151.987 198.489 140.111 209.699 121.484 213.474C121.135 213.545 120.794 213.32 120.723 212.971C120.653 212.623 120.878 212.283 121.227 212.212C139.438 208.522 151.059 197.568 158.139 187.509C161.679 182.479 164.079 177.68 165.593 174.138C166.35 172.368 166.885 170.914 167.23 169.905C167.403 169.401 167.528 169.007 167.609 168.742C167.65 168.609 167.68 168.508 167.699 168.441C167.709 168.408 167.716 168.383 167.721 168.366L167.726 168.348L167.727 168.344L167.727 168.344C167.822 168.001 168.176 167.799 168.52 167.894Z" fill="#4C1C17"/>
<path d="M91.448 287.897V288.081C91.4452 288.234 91.4124 288.384 91.3514 288.524C91.2903 288.664 91.2023 288.791 91.0922 288.897C90.9821 289.003 90.8522 289.086 90.7099 289.142C90.5675 289.198 90.4156 289.225 90.2627 289.223L12.8944 292.744L-36.8984 268.732V258.55L57.3603 267.88L89.9907 275.911C90.178 275.907 90.3643 275.94 90.5388 276.008C90.7134 276.075 90.8729 276.177 91.0082 276.306C91.1436 276.435 91.2521 276.59 91.3275 276.761C91.403 276.932 91.4439 277.117 91.448 277.303C91.4452 277.452 91.4132 277.598 91.3537 277.734C91.2942 277.87 91.2084 277.993 91.1012 278.096C90.994 278.199 90.8675 278.279 90.729 278.333C90.5905 278.387 90.4427 278.413 90.294 278.41H87.9095V286.832H90.3289C90.4725 286.828 90.6154 286.853 90.7495 286.904C90.8835 286.956 91.006 287.033 91.11 287.132C91.2139 287.231 91.2973 287.35 91.3553 287.481C91.4133 287.612 91.4448 287.753 91.448 287.897Z" fill="#E69766"/>
<path d="M87.9097 286.828L13.5186 290.562V281.003L87.9097 278.323V286.828Z" fill="white"/>
<path fill-rule="evenodd" clip-rule="evenodd" d="M87.9108 281.651C87.9178 281.829 87.7792 281.979 87.6012 281.986L29.2638 284.272C29.0859 284.279 28.936 284.141 28.929 283.963C28.922 283.785 29.0606 283.636 29.2385 283.629L87.5759 281.342C87.7539 281.335 87.9038 281.474 87.9108 281.651Z" fill="#5B5B5B"/>
<path fill-rule="evenodd" clip-rule="evenodd" d="M87.8585 285.012C87.8658 285.19 87.7275 285.34 87.5496 285.347L27.8387 287.801C27.6607 287.808 27.5105 287.67 27.5032 287.492C27.4959 287.315 27.6342 287.165 27.8121 287.157L87.5231 284.704C87.701 284.697 87.8512 284.835 87.8585 285.012Z" fill="#5B5B5B"/>
<path d="M-35.769 267.883L13.5183 290.562V281.003L-35.769 260.579V267.883Z" fill="white"/>
<path fill-rule="evenodd" clip-rule="evenodd" d="M-33.4226 262.996C-33.3524 262.832 -33.1629 262.757 -32.9992 262.827L13.6456 282.778C13.8093 282.848 13.8852 283.037 13.815 283.2C13.7449 283.364 13.5553 283.439 13.3916 283.369L-33.2532 263.418C-33.4169 263.348 -33.4927 263.159 -33.4226 262.996Z" fill="#5B5B5B"/>
<path fill-rule="evenodd" clip-rule="evenodd" d="M-19.036 271.112C-18.9624 270.95 -18.7713 270.878 -18.6091 270.952L13.6518 285.568C13.814 285.641 13.8858 285.832 13.8122 285.994C13.7386 286.156 13.5474 286.228 13.3852 286.154L-18.8757 271.538C-19.0378 271.464 -19.1096 271.274 -19.036 271.112Z" fill="#5B5B5B"/>
<path fill-rule="evenodd" clip-rule="evenodd" d="M-14.0165 275.264C-13.9395 275.104 -13.7469 275.036 -13.5863 275.113L13.658 288.16C13.8186 288.237 13.8863 288.429 13.8093 288.589C13.7322 288.75 13.5396 288.817 13.3791 288.74L-13.8653 275.694C-14.0258 275.617 -14.0936 275.424 -14.0165 275.264Z" fill="#5B5B5B"/>
<path d="M86.1942 272.518V272.797C86.1942 273.743 85.5423 274.513 84.73 274.513L-2.82139 279.315L-34.1201 259.524V241.428L44.2871 242.298L84.3953 254.426C85.3889 254.426 86.1872 255.372 86.1872 256.514C86.1872 257.433 85.5492 258.181 84.7683 258.181H81.826V270.886H84.7962C85.5702 270.876 86.1942 271.617 86.1942 272.518Z" fill="#E55558"/>
<path d="M81.8363 270.911L-1.70605 275.055V260.168L81.8363 258.08V270.911Z" fill="white"/>
<path fill-rule="evenodd" clip-rule="evenodd" d="M81.7646 263.107C81.7732 263.285 81.6359 263.435 81.458 263.444L9.76863 266.886C9.59074 266.894 9.4396 266.757 9.43104 266.58C9.42249 266.402 9.55976 266.251 9.73765 266.243L81.427 262.801C81.6049 262.792 81.756 262.929 81.7646 263.107Z" fill="#5B5B5B"/>
<path fill-rule="evenodd" clip-rule="evenodd" d="M81.6983 268.17C81.7073 268.347 81.5704 268.498 81.3925 268.507L8.02281 272.203C7.84494 272.212 7.69347 272.075 7.6845 271.898C7.67552 271.72 7.81244 271.569 7.99031 271.56L81.36 267.864C81.5379 267.855 81.6893 267.992 81.6983 268.17Z" fill="#5B5B5B"/>
<path d="M93.5324 252.996V253.201C93.503 253.562 93.3335 253.898 93.0601 254.136C92.7867 254.375 92.4308 254.497 92.0682 254.478L4.25191 256.472L-26.7749 243.38L-26.5413 232.276L38.8067 235.874L91.7405 239.601C92.7341 239.601 93.5324 240.297 93.5324 241.167C93.5065 241.518 93.343 241.844 93.0773 242.076C92.8117 242.307 92.4654 242.424 92.1135 242.402H89.1817V251.798H92.1519C92.494 251.775 92.8316 251.887 93.0904 252.112C93.3493 252.336 93.5083 252.654 93.5324 252.996Z" fill="#1D1E40"/>
<path d="M89.1748 251.805L4.25195 253.298V244.372L89.1748 242.305V251.805Z" fill="white"/>
<path fill-rule="evenodd" clip-rule="evenodd" d="M89.4969 245.102C89.5015 245.279 89.3608 245.427 89.1828 245.432L17.6852 247.248C17.5071 247.253 17.3591 247.112 17.3546 246.935C17.3501 246.757 17.4907 246.609 17.6688 246.605L89.1664 244.788C89.3444 244.784 89.4924 244.924 89.4969 245.102Z" fill="#5B5B5B"/>
<path fill-rule="evenodd" clip-rule="evenodd" d="M89.1484 248.192C89.1529 248.37 89.0123 248.517 88.8342 248.522L15.461 250.384C15.283 250.388 15.135 250.248 15.1305 250.07C15.126 249.892 15.2666 249.745 15.4446 249.74L88.8178 247.878C88.9959 247.874 89.1439 248.014 89.1484 248.192Z" fill="#5B5B5B"/>
<path d="M-25.5444 234.106V241.964L4.25176 253.298V244.372L-25.5444 234.106Z" fill="white"/>
<path fill-rule="evenodd" clip-rule="evenodd" d="M-21.5807 241.316C-21.515 241.151 -21.3276 241.07 -21.162 241.136L4.3706 251.249C4.53614 251.314 4.61709 251.501 4.55141 251.667C4.48573 251.832 4.29828 251.913 4.13274 251.847L-21.3999 241.734C-21.5654 241.669 -21.6464 241.481 -21.5807 241.316Z" fill="#5B5B5B"/>
<path fill-rule="evenodd" clip-rule="evenodd" d="M-16.0491 241.319C-15.9851 241.153 -15.7985 241.071 -15.6323 241.135L4.36782 248.829C4.534 248.893 4.6168 249.079 4.55275 249.245C4.48871 249.411 4.30207 249.494 4.13589 249.43L-15.8642 241.735C-16.0304 241.671 -16.1132 241.485 -16.0491 241.319Z" fill="#5B5B5B"/>
<path fill-rule="evenodd" clip-rule="evenodd" d="M-19.0684 237.091C-19.0046 236.925 -18.8181 236.842 -18.6518 236.906L4.36727 245.718C4.53356 245.781 4.61667 245.967 4.55291 246.133C4.48914 246.299 4.30264 246.382 4.13636 246.319L-18.8827 237.507C-19.049 237.444 -19.1321 237.257 -19.0684 237.091Z" fill="#5B5B5B"/>
<path d="M84.1511 239.5L-4.26485 240.22L-35.3091 229.147V211.312H30.3527L83.2865 217.099C84.2801 217.099 85.0784 218.188 85.0784 219.535C85.0784 220.579 84.4405 221.453 83.6596 221.453H80.7277V236.069H83.6979C86.2533 236.493 86.1312 239.208 84.1511 239.5Z" fill="#FCCA5F"/>
<path d="M80.7275 221.303H-3.19482V236.069H80.7275V221.303Z" fill="white"/>
<path fill-rule="evenodd" clip-rule="evenodd" d="M39.1885 225.074C39.1911 224.896 39.3375 224.754 39.5156 224.757L80.3769 225.345C80.5549 225.348 80.6972 225.494 80.6947 225.672C80.6921 225.849 80.5456 225.991 80.3676 225.989L39.5063 225.401C39.3282 225.398 39.1859 225.252 39.1885 225.074Z" fill="#5B5B5B"/>
<path fill-rule="evenodd" clip-rule="evenodd" d="M6.67627 230.462C6.67627 230.285 6.82064 230.141 6.99874 230.141H80.3719C80.55 230.141 80.6944 230.285 80.6944 230.462C80.6944 230.64 80.55 230.784 80.3719 230.784H6.99874C6.82064 230.784 6.67627 230.64 6.67627 230.462Z" fill="#5B5B5B"/>
<path fill-rule="evenodd" clip-rule="evenodd" d="M35.1377 233.518C35.1377 233.34 35.2821 233.196 35.4602 233.196H80.721C80.8991 233.196 81.0434 233.34 81.0434 233.518C81.0434 233.696 80.8991 233.84 80.721 233.84H35.4602C35.2821 233.84 35.1377 233.696 35.1377 233.518Z" fill="#5B5B5B"/>
<path d="M75.2893 215.38V215.62C75.2847 216.017 75.123 216.396 74.8396 216.674C74.5561 216.953 74.1739 217.108 73.7763 217.106H-17.324L-49.5117 208.789V195.394H18.5555L73.4207 199.741C73.9092 199.736 74.3796 199.925 74.7286 200.266C75.0776 200.608 75.2768 201.073 75.2823 201.561C75.2828 201.753 75.2448 201.944 75.1707 202.122C75.0965 202.3 74.9876 202.461 74.8504 202.597C74.7131 202.732 74.5502 202.839 74.3712 202.911C74.1922 202.983 74.0006 203.018 73.8076 203.015H70.7642V213.998H73.839C74.214 213.993 74.5762 214.134 74.8474 214.393C75.1187 214.651 75.2774 215.006 75.2893 215.38Z" fill="#565697"/>
<path d="M70.7748 202.901H-16.2153V213.991H70.7748V202.901Z" fill="white"/>
<path fill-rule="evenodd" clip-rule="evenodd" d="M21.96 206.175C21.96 205.998 22.1043 205.853 22.2824 205.853H70.9771C71.1552 205.853 71.2996 205.998 71.2996 206.175C71.2996 206.353 71.1552 206.497 70.9771 206.497H22.2824C22.1043 206.497 21.96 206.353 21.96 206.175Z" fill="#5B5B5B"/>
<path fill-rule="evenodd" clip-rule="evenodd" d="M-5.96094 209.781C-5.96094 209.603 -5.81656 209.459 -5.63847 209.459H70.4156C70.5937 209.459 70.7381 209.603 70.7381 209.781C70.7381 209.958 70.5937 210.103 70.4156 210.103H-5.63847C-5.81656 210.103 -5.96094 209.958 -5.96094 209.781Z" fill="#5B5B5B"/>
<path d="M6.0791 191.19V199.741H14.3762V195.464L21.1707 199.741H39.5114L22.8231 191.1L6.0791 191.19Z" fill="#9D4E49"/>
<path d="M6.0791 191.166V199.713H14.3762V195.439L21.1707 199.713H39.5114L22.8231 191.075L6.0791 191.166Z" fill="#9D4E49"/>
<path d="M33.334 192.499V199.741H40.5573V195.325L49.06 199.741H67.0695L51.8002 192.499H33.334Z" fill="#9D4E49"/>
<path fill-rule="evenodd" clip-rule="evenodd" d="M5.75635 198.091C5.75635 197.913 5.90072 197.769 6.07882 197.769H14.1388C14.3169 197.769 14.4613 197.913 14.4613 198.091C14.4613 198.269 14.3169 198.413 14.1388 198.413H6.07882C5.90072 198.413 5.75635 198.269 5.75635 198.091Z" fill="#4C1C17"/>
<path fill-rule="evenodd" clip-rule="evenodd" d="M18.4185 198.091C18.4185 197.913 18.5628 197.769 18.7409 197.769H33.334C33.5121 197.769 33.6564 197.913 33.6564 198.091C33.6564 198.269 33.5121 198.413 33.334 198.413H18.7409C18.5628 198.413 18.4185 198.269 18.4185 198.091Z" fill="#4C1C17"/>
<path fill-rule="evenodd" clip-rule="evenodd" d="M33.0112 198.091C33.0112 197.913 33.1556 197.769 33.3337 197.769H40.5535C40.7316 197.769 40.876 197.913 40.876 198.091C40.876 198.269 40.7316 198.413 40.5535 198.413H33.3337C33.1556 198.413 33.0112 198.269 33.0112 198.091Z" fill="#4C1C17"/>
<path fill-rule="evenodd" clip-rule="evenodd" d="M45.9136 198.091C45.9136 197.913 46.0579 197.769 46.236 197.769H63.2276C63.4057 197.769 63.5501 197.913 63.5501 198.091C63.5501 198.269 63.4057 198.413 63.2276 198.413H46.236C46.0579 198.413 45.9136 198.269 45.9136 198.091Z" fill="#4C1C17"/>
<path d="M0.0793192 99.4151C0.0793192 99.4151 2.57541 171.619 1.12517 179.477C-0.325075 187.334 -2.22852 192.137 -2.22852 192.137L28.4148 192.575L18.7616 145.999L11.5453 113.005C9.21957 111.566 7.10733 109.809 5.2702 107.785C2.99884 105.358 1.23003 102.508 0.0653715 99.3977" fill="#55957C"/>
<path d="M0.0793192 99.3386C0.0793192 99.3386 2.57541 171.539 1.12517 179.4C-0.325075 187.261 -2.22852 192.06 -2.22852 192.06L28.4218 192.499L18.7616 145.922L11.5453 112.928C9.22069 111.495 7.10851 109.743 5.2702 107.725C2.99884 105.299 1.23003 102.449 0.0653715 99.3386" fill="#E59666"/>
<path d="M3.60016 109.438C3.60016 109.438 21.031 189.377 28.4181 192.575H56.5201C56.5201 192.575 41.5923 172.068 35.2161 144.363C33.3336 136.178 28.4181 113.739 28.4181 113.739L1.57471 96.6416L3.60016 109.438Z" fill="#FCC95F"/>
<path fill-rule="evenodd" clip-rule="evenodd" d="M19.9184 115.89C20.049 115.861 20.1785 115.943 20.2078 116.073L19.9713 116.126L19.7349 116.179C19.7057 116.049 19.7878 115.919 19.9184 115.89ZM26.7617 146.061C25.699 142.045 23.942 134.573 22.4514 128.109C21.7059 124.876 21.0268 121.893 20.5341 119.719C20.2877 118.632 20.0879 117.747 19.9497 117.134C19.8806 116.827 19.8269 116.589 19.7905 116.427L19.7349 116.179C19.7349 116.179 19.7349 116.179 19.9713 116.126C20.2078 116.073 20.2077 116.073 20.2078 116.073L20.2633 116.321C20.2997 116.483 20.3534 116.721 20.4225 117.028C20.5606 117.641 20.7604 118.526 21.0067 119.612C21.4993 121.786 22.1783 124.768 22.9236 128C24.4146 134.466 26.1698 141.931 27.2302 145.937C29.3356 153.906 32.6171 164.336 36.3977 173.372C38.2881 177.891 40.3009 182.055 42.3508 185.386C44.4056 188.724 46.4796 191.196 48.4816 192.367C48.5971 192.434 48.6358 192.582 48.5682 192.698C48.5005 192.813 48.3521 192.852 48.2367 192.784C46.1267 191.55 44.0012 188.991 41.938 185.639C39.8699 182.278 37.8461 178.09 35.9506 173.559C32.1592 164.497 28.8711 154.044 26.7617 146.061Z" fill="white"/>
<path d="M38.1237 51.6344C38.1237 51.6344 35.6555 54.8604 36.5305 57.2686C37.5763 60.1083 26.0162 54.6864 29.0318 53.2178C30.9776 52.2422 32.7989 51.0364 34.4562 49.6264L38.1237 51.6344Z" fill="#EFB6AB"/>
<path opacity="0.64" d="M34.7002 46.5257L36.7187 54.1226L40.1804 47.4653L34.7002 46.5257Z" fill="#EFB6AB"/>
<path d="M52.9469 70.2978C53.3688 69.0554 56.2692 67.6773 58.4307 71.6689C60.5921 75.6605 59.5044 77.0803 58.3052 76.7776C57.1059 76.4748 56.2553 75.8763 55.708 74.4042C55.3612 73.4275 54.7449 72.5685 53.93 71.9264C53.93 71.9264 52.5425 71.5332 52.9469 70.2978Z" fill="#EFB6AB"/>
<path d="M36.3701 57.8985C36.3701 57.8985 48.3381 54.5333 51.9358 51.6936C55.5335 48.8539 63.4401 34.6902 66.4243 33.0929C69.4084 31.4955 71.7198 31.5999 75.4186 33.7889C79.1174 35.9778 80.6164 42.2662 76.0182 47.5489C71.42 52.8316 61.5297 60.3345 61.5297 60.3345L40.1805 74.3973C40.1805 74.3973 41.6238 66.1183 36.3701 57.8985Z" fill="#E55558"/>
<path d="M21.6691 56.8266C21.6691 56.8266 16.9035 60.8808 15.5892 72.1666C14.3028 83.3722 0.909017 92.4934 -0.447099 92.1836C-1.80321 91.8739 -0.680673 117.428 24.7264 114.487C39.6263 112.747 35.2163 99.4117 35.2163 99.4117C35.2163 99.4117 43.4123 100.365 49.6908 89.4692C55.1013 80.0732 55.9276 78.6359 56.5028 76.1964C57.1407 73.4716 54.439 68.9928 48.2406 70.6005C46.0408 71.1747 41.2404 76.4853 41.2404 76.4853C41.5402 75.7579 41.5158 62.0745 36.3598 57.9019C33.7172 57.9019 33.3163 57.279 30.266 55.7339C26.7693 53.9591 21.6691 56.8266 21.6691 56.8266Z" fill="#E55558"/>
<path d="M33.717 48.6312C33.717 48.6312 36.1852 53.2387 41.5818 51.1611C45.9534 48.652 45.6397 45.5339 46.33 43.7661C47.0388 43.4352 47.7196 43.0477 48.3659 42.6072C48.5035 42.5126 48.6067 42.376 48.6601 42.2179C48.7136 42.0599 48.7143 41.8888 48.6622 41.7303C48.4809 41.163 47.7976 40.2373 46.9017 39.2943C46.7099 35.2052 45.2004 33.4826 45.2004 33.4826C45.2004 33.4826 40.7521 29.1883 36.8337 34.4744C32.9152 39.7606 33.717 48.6312 33.717 48.6312Z" fill="#EFB6AB"/>
<path d="M45.3686 41.0503C45.5552 40.5354 45.4805 40.0365 45.2017 39.9358C44.923 39.8352 44.5459 40.171 44.3593 40.6859C44.1727 41.2008 44.2474 41.6998 44.5261 41.8004C44.8048 41.9011 45.182 41.5652 45.3686 41.0503Z" fill="black"/>
<path fill-rule="evenodd" clip-rule="evenodd" d="M45.7011 37.66C45.7042 37.8377 45.5624 37.9843 45.3843 37.9874C44.8305 37.9971 44.4072 38.342 44.1028 38.7401C43.9533 38.9355 43.8421 39.132 43.7682 39.2805C43.7314 39.3543 43.7044 39.4151 43.6869 39.4566C43.6782 39.4774 43.6719 39.4932 43.6679 39.5033L43.6638 39.514L43.6633 39.5155C43.6632 39.5155 43.6632 39.5156 43.6632 39.5157C43.6632 39.5156 43.6633 39.5155 43.3602 39.4056L43.057 39.2957C42.9963 39.4629 43.0827 39.6475 43.2501 39.7082C43.4174 39.7688 43.6023 39.6826 43.6632 39.5157M43.3602 39.4056C43.057 39.2957 43.0571 39.2956 43.0571 39.2955L43.0572 39.2952L43.0575 39.2946L43.0581 39.2928L43.0602 39.2874C43.0618 39.2829 43.0641 39.2769 43.0671 39.2694C43.0729 39.2543 43.0814 39.2333 43.0924 39.207C43.1145 39.1546 43.1472 39.0813 43.1907 38.9939C43.2774 38.8198 43.4093 38.5859 43.5902 38.3494C43.9464 37.8836 44.5324 37.3584 45.373 37.3437C45.5511 37.3406 45.6979 37.4822 45.7011 37.66" fill="#91461C"/>
<path fill-rule="evenodd" clip-rule="evenodd" d="M44.2796 44.3855C44.2239 44.217 44.0421 44.1253 43.873 44.1805C43.7038 44.2359 43.6115 44.4177 43.667 44.5867L43.9734 44.4864C43.667 44.5867 43.667 44.5868 43.6671 44.5869L43.6671 44.5871L43.6673 44.5877L43.6678 44.5892L43.6693 44.5935L43.674 44.6071C43.678 44.6183 43.6836 44.6338 43.6909 44.6529C43.7055 44.691 43.7269 44.7438 43.7553 44.8058C43.8115 44.9283 43.8981 45.0937 44.018 45.2538C44.2495 45.5631 44.6819 45.9411 45.2959 45.759C45.4666 45.7084 45.5639 45.5292 45.5132 45.3587C45.4625 45.1883 45.2829 45.0912 45.1122 45.1418C44.893 45.2068 44.7101 45.1028 44.5346 44.8684C44.4509 44.7566 44.3862 44.6347 44.3418 44.5379C44.3199 44.4902 44.3038 44.4503 44.2934 44.4231C44.2882 44.4095 44.2844 44.3992 44.2822 44.3929L44.2799 44.3864L44.2796 44.3855Z" fill="#4C1C17"/>
<path d="M40.0272 35.7968C40.0272 35.7968 43.1299 47.1104 32.9015 54.1748C22.6731 61.2393 17.2661 54.3802 16.7745 52.1703C16.283 49.9605 15.8716 46.9816 18.6431 44.9806C21.4146 42.9796 24.3883 38.0762 24.3883 34.7598C24.3883 31.4433 34.7212 29.1395 36.7885 27.8937C38.8558 26.6478 48.0872 20.6065 50.6146 26.6757C53.6058 33.8585 46.9716 35.4732 44.1722 35.4732C41.3728 35.4732 40.8708 34.6763 40.0272 35.7968Z" fill="#9D4E49"/>
<path fill-rule="evenodd" clip-rule="evenodd" d="M41.7147 25.5342L41.63 25.3076C41.5046 25.3543 41.4409 25.4937 41.4877 25.6188C41.5345 25.7439 41.6739 25.8075 41.7993 25.7609L41.8004 25.7605L41.8061 25.7584C41.8115 25.7565 41.8199 25.7535 41.8312 25.7497C41.8539 25.7419 41.8882 25.7305 41.9327 25.7168C42.0218 25.6893 42.1516 25.6525 42.3115 25.6161C42.6325 25.5431 43.0692 25.4731 43.5388 25.4816C44.4751 25.4984 45.5076 25.8215 46.0613 27.0271L46.0616 27.0276C46.6887 28.3848 46.5857 29.9206 45.6122 31.3132C44.8089 32.4624 43.4034 33.525 41.302 34.2919C41.6637 34.0004 42.0578 33.6457 42.4204 33.241C42.9521 32.6475 43.4287 31.9321 43.6228 31.1375C43.8193 30.3326 43.7216 29.4611 43.1288 28.5833L43.1285 28.5828C42.6461 27.8721 41.923 27.5184 41.1388 27.38C40.3588 27.2423 39.5039 27.3141 38.7215 27.4639C37.9368 27.6142 37.2103 27.8458 36.6813 28.0392C36.4164 28.136 36.1999 28.2235 36.0493 28.2871C35.9739 28.3189 35.915 28.3447 35.8746 28.3627C35.8544 28.3717 35.8388 28.3788 35.8281 28.3836L35.8159 28.3893L35.8125 28.3908L35.8116 28.3913C35.8115 28.3913 35.8111 28.3915 35.9137 28.6106L35.8111 28.3915C35.6899 28.4481 35.6376 28.592 35.6943 28.713C35.7509 28.834 35.8951 28.8862 36.0163 28.8297M36.0163 28.8297L36.0169 28.8294L36.0193 28.8283L36.0297 28.8236C36.039 28.8193 36.0533 28.8128 36.0721 28.8044C36.1098 28.7876 36.1658 28.7631 36.238 28.7327C36.3824 28.6717 36.5914 28.5871 36.8479 28.4934C37.3617 28.3056 38.0619 28.0828 38.8128 27.939C39.5661 27.7947 40.3558 27.733 41.0544 27.8563C41.7486 27.9788 42.338 28.2806 42.7272 28.854C43.2411 29.6151 43.3172 30.3461 43.152 31.0229C42.9842 31.7102 42.5633 32.3559 42.0592 32.9186C41.5567 33.4795 40.9843 33.9438 40.535 34.2689C40.3109 34.4311 40.1187 34.5577 39.9831 34.6435C39.9153 34.6864 39.8617 34.719 39.8254 34.7407C39.8072 34.7515 39.7934 34.7597 39.7843 34.765L39.7742 34.7708L39.7719 34.7721L39.7715 34.7724C39.7715 34.7724 39.7715 34.7724 39.7715 34.7724C39.6659 34.8324 39.6212 34.9614 39.667 35.0737C39.7129 35.1861 39.8351 35.2472 39.9527 35.2165C42.9567 34.4329 44.9449 33.113 46.0096 31.59C47.079 30.0603 47.2027 28.3424 46.5017 26.8252C45.8422 25.3896 44.5914 25.0167 43.5476 24.9979C43.0271 24.9885 42.5496 25.0658 42.2038 25.1445C42.0304 25.184 41.8887 25.2241 41.7897 25.2546C41.7401 25.2699 41.7012 25.2828 41.6741 25.2921C41.6606 25.2967 41.65 25.3004 41.6426 25.3031L41.6339 25.3062L41.6313 25.3071L41.6305 25.3075C41.6304 25.3075 41.63 25.3076 41.7147 25.5342" fill="#772220"/>
<path fill-rule="evenodd" clip-rule="evenodd" d="M39.7006 35.2429C39.825 35.2829 39.8952 35.4141 39.8594 35.5395C36.5502 47.1294 31.2238 51.9434 26.6771 53.8382C24.4094 54.7833 22.3499 54.9958 20.856 54.9716C20.1091 54.9595 19.503 54.8882 19.082 54.8195C18.8715 54.7852 18.7072 54.7515 18.5945 54.7261C18.5382 54.7134 18.4948 54.7028 18.465 54.6952C18.4501 54.6914 18.4386 54.6884 18.4306 54.6862L18.4212 54.6837L18.4184 54.6829L18.4176 54.6827C18.4173 54.6826 18.417 54.6825 18.4828 54.4498L18.417 54.6825C18.2883 54.6463 18.2133 54.5126 18.2497 54.3841C18.286 54.2556 18.4197 54.1808 18.5484 54.2169M18.5486 54.217L18.5498 54.2173L18.5563 54.2191C18.5623 54.2207 18.5718 54.2232 18.5846 54.2264C18.6103 54.233 18.6494 54.2425 18.7013 54.2542C18.8051 54.2776 18.9599 54.3095 19.1602 54.3421C19.5609 54.4075 20.1434 54.4762 20.8639 54.4879C22.305 54.5112 24.296 54.3063 26.4905 53.3918C30.3644 51.7774 34.9175 47.9315 38.1868 39.1092C37.3424 40.6529 36.1617 42.5328 34.6118 44.394C30.9787 48.7568 25.297 53.0369 17.1556 52.5998C17.0219 52.5926 16.9194 52.4787 16.9266 52.3453C16.9338 52.2119 17.048 52.1096 17.1816 52.1167C25.1148 52.5427 30.6621 48.3803 34.2392 44.0848C36.0275 41.9373 37.3185 39.7616 38.1624 38.1223C38.5842 37.3029 38.8938 36.6184 39.0977 36.1395C39.1997 35.9001 39.2752 35.7121 39.325 35.5845C39.35 35.5206 39.3685 35.4719 39.3807 35.4394C39.3867 35.4231 39.3913 35.4109 39.3942 35.4028L39.3975 35.394L39.3982 35.3919L39.3984 35.3915C39.3984 35.3915 39.3984 35.3915 39.4013 35.3925L39.3984 35.3915C39.4425 35.2687 39.5762 35.203 39.7006 35.2429M18.5486 54.217C18.5486 54.217 18.5486 54.217 18.5486 54.217C18.5486 54.217 18.5486 54.217 18.5485 54.217" fill="#772220"/>
<path fill-rule="evenodd" clip-rule="evenodd" d="M24.8265 70.0711C24.9519 70.0245 25.0914 70.0882 25.1381 70.2134L24.911 70.2978C25.1381 70.2134 25.138 70.2132 25.1381 70.2134L25.1383 70.214L25.1387 70.2151L25.14 70.2186L25.1445 70.2309C25.1483 70.2416 25.1537 70.257 25.1606 70.2772C25.1743 70.3175 25.1939 70.3768 25.218 70.4548C25.266 70.6106 25.332 70.8409 25.4049 71.1431C25.5509 71.7474 25.7251 72.6389 25.8411 73.7964C26.0731 76.1115 26.0721 79.4891 25.1479 83.7574C24.245 87.9267 25.3524 91.7933 27.3969 94.6145C29.446 97.4421 32.4151 99.1937 35.215 99.1802C35.3488 99.1796 35.4578 99.2874 35.4584 99.4209C35.4591 99.5545 35.3511 99.6633 35.2173 99.664C32.2196 99.6784 29.1176 97.8142 27.0043 94.898C24.8863 91.9755 23.7398 87.9703 24.6742 83.6552C25.5872 79.4392 25.5862 76.1125 25.3589 73.8445C25.2452 72.7104 25.075 71.8406 24.9339 71.2565C24.8633 70.9644 24.8001 70.7437 24.7548 70.5971C24.7322 70.5238 24.7141 70.469 24.7019 70.4331C24.6957 70.4151 24.6911 70.4019 24.688 70.3934L24.6847 70.3842L24.684 70.3823C24.684 70.3823 24.684 70.3824 24.684 70.3823M24.8265 70.0711C24.7011 70.1177 24.6374 70.2572 24.684 70.3823L24.8265 70.0711Z" fill="#93242A"/>
<path fill-rule="evenodd" clip-rule="evenodd" d="M32.7358 57.2764C32.8432 57.1966 32.995 57.2189 33.0749 57.326C36.2626 61.6018 37.8474 66.858 37.5533 72.1799C37.3791 75.3605 37.292 77.6126 37.2485 79.069C37.2292 79.7145 37.2185 80.2037 37.2125 80.5481L40.7679 76.6326C40.8578 76.5336 41.011 76.5261 41.1102 76.6158C41.2093 76.7055 41.2168 76.8584 41.127 76.9574L37.1423 81.3457C37.075 81.4198 36.969 81.4449 36.8756 81.409C36.7821 81.373 36.7205 81.2833 36.7205 81.1833H36.9628C36.7205 81.1833 36.7205 81.1833 36.7205 81.1833L36.7205 81.175L36.7206 81.151C36.7207 81.1297 36.7208 81.0978 36.7212 81.055C36.7219 80.9694 36.7232 80.8404 36.726 80.6657C36.7314 80.3165 36.7424 79.785 36.7642 79.0546C36.8078 77.5938 36.8951 75.3376 37.0695 72.1534C37.3573 66.9445 35.8062 61.7998 32.6861 57.6148C32.6062 57.5077 32.6285 57.3561 32.7358 57.2764Z" fill="#93242A"/>
<path fill-rule="evenodd" clip-rule="evenodd" d="M37.129 81.0324C37.2298 81.1203 37.2402 81.2731 37.1521 81.3737C35.2385 83.5616 34.1197 86.3296 33.9765 89.2306C33.9699 89.364 33.8562 89.4668 33.7226 89.4602C33.5889 89.4537 33.4859 89.3402 33.4925 89.2068C33.6411 86.1971 34.8018 83.3254 36.7871 81.0555C36.8751 80.9549 37.0282 80.9446 37.129 81.0324Z" fill="#93242A"/>
<path fill-rule="evenodd" clip-rule="evenodd" d="M56.2662 46.8271C56.3805 46.8965 56.4169 47.0453 56.3474 47.1594C52.3859 53.6661 49.6853 57.1001 47.9678 58.9108C47.1087 59.8165 46.4924 60.3194 46.0839 60.598C45.8795 60.7374 45.7261 60.8212 45.6196 60.8713C45.5663 60.8963 45.5246 60.913 45.4939 60.9239C45.4786 60.9293 45.466 60.9334 45.4561 60.9363C45.4512 60.9378 45.4469 60.939 45.4434 60.9399L45.4385 60.9412L45.4364 60.9417L45.4354 60.942C45.435 60.9421 45.4345 60.9422 45.3786 60.7068L45.4345 60.9422C45.3044 60.973 45.1738 60.8927 45.1428 60.7627C45.1123 60.6343 45.1905 60.5055 45.318 60.4727C45.3195 60.4722 45.3238 60.4709 45.3311 60.4683C45.346 60.463 45.3732 60.4524 45.4132 60.4336C45.4934 60.396 45.6244 60.3255 45.8106 60.1985C46.1834 59.9443 46.7738 59.4661 47.6159 58.5783C49.3009 56.8019 51.9812 53.3995 55.9333 46.9082C56.0028 46.7941 56.1518 46.7578 56.2662 46.8271Z" fill="#93242A"/>
<path fill-rule="evenodd" clip-rule="evenodd" d="M38.8318 60.4838C38.9552 60.4321 39.0972 60.4901 39.1489 60.6133C40.8236 64.6002 41.6423 68.8933 41.5522 73.2156C41.5494 73.3491 41.4387 73.4551 41.3049 73.4524C41.1712 73.4496 41.065 73.3391 41.0678 73.2055C41.1565 68.9509 40.3505 64.7249 38.702 60.8004C38.6503 60.6772 38.7084 60.5354 38.8318 60.4838Z" fill="#93242A"/>
<path d="M90.9528 29.0769V26.7522L88.4498 25.5934L88.1465 23.6968L90.2382 21.6088L89.4642 19.7122L86.6753 20.1402L85.1972 18.6682L86.1838 15.6753L84.3396 14.3599L82.0771 16.1625L80.2329 15.3064L79.7448 12.9192L77.2348 12.5537L76.189 15.3064H74.1565L72.6191 13.2915L70.2939 14.1476L70.5309 16.9629L69.1364 18.1287L66.6299 17.2727L65.0925 19.1136L66.7449 21.6157L66.0756 23.3279L63.1995 23.6307L62.959 26.018L65.7967 27.2429V29.2057L63.705 30.977L64.6916 33.2425L67.5084 32.8736L68.7983 34.464L67.8779 36.9L69.8964 38.3755L72.0648 36.6007L73.8462 37.7004L74.1495 40.206H76.9664L77.953 37.7004H79.7901L81.5716 39.6005L83.7748 38.5008L83.3425 36.0648L84.7545 34.9059L87.6305 35.5219L88.9204 33.5105L87.3272 31.4886L88.1221 29.5293L90.9528 29.0769ZM76.9454 31.6069C75.9112 31.6069 74.9002 31.3007 74.0402 30.7271C73.1803 30.1536 72.51 29.3383 72.1143 28.3845C71.7185 27.4306 71.6149 26.3811 71.8167 25.3685C72.0185 24.3559 72.5165 23.4258 73.2478 22.6957C73.9791 21.9657 74.9109 21.4685 75.9253 21.2671C76.9397 21.0657 77.9911 21.1691 78.9466 21.5642C79.9021 21.9593 80.7188 22.6283 81.2934 23.4867C81.868 24.3452 82.1747 25.3544 82.1747 26.3868C82.1747 27.7713 81.6238 29.099 80.6431 30.078C79.6624 31.0569 78.3323 31.6069 76.9454 31.6069Z" fill="#565697"/>
<path d="M72.6852 28.1686C72.6852 28.1686 70.6528 31.753 72.8456 33.2425C75.0384 34.7319 77.0778 33.0233 77.9737 32.1011C78.8697 31.1788 78.6047 30.0478 77.5972 29.2196C76.5897 28.3913 73.2605 26.8045 72.6852 28.1686Z" fill="#EFB6AB"/>
</g>
</g>
<defs>
<clipPath id="clip0_991_1749">
<rect width="270" height="296" rx="25" fill="white"/>
</clipPath>
<clipPath id="clip1_991_1749">
<rect width="385" height="296" fill="white" transform="translate(-57.5)"/>
</clipPath>
</defs>
</svg>
