<svg width="369" height="90" viewBox="0 0 369 90" fill="none" xmlns="http://www.w3.org/2000/svg">
<path d="M114.567 55.6784L109.634 57.1119L106.674 46.8549H96.893L93.937 57.1119L89.0044 55.6784L99.4573 19.4584H104.114L114.571 55.6784H114.567ZM105.196 41.7175L101.786 29.8934L98.3755 41.7175H105.196Z" fill="#000C5C"/>
<path d="M130.847 37.2657H123.947V32.1283H130.847V31.6163C130.847 29.9291 131.177 28.2908 131.831 26.7505C132.459 25.2636 133.362 23.9236 134.511 22.7795C135.66 21.6309 136.995 20.7316 138.482 20.0995C140.022 19.445 141.661 19.1156 143.348 19.1156C145.035 19.1156 146.673 19.445 148.214 20.0995L146.21 24.8317C145.302 24.4489 144.341 24.253 143.348 24.253C142.355 24.253 141.393 24.4489 140.485 24.8317C139.608 25.2012 138.82 25.7355 138.144 26.4121C137.467 27.0888 136.933 27.8768 136.563 28.7538C136.18 29.662 135.984 30.6236 135.984 31.6163V32.1283H148.944V37.2657H135.984V56.4397H130.847V37.2657Z" fill="#000C5C"/>
<path d="M159.793 32.0437C159.25 32.6625 158.951 33.3481 158.658 34.2251C158.622 34.2607 158.595 34.2963 158.568 34.3364V37.1989H161.636C161.605 37.0876 161.587 36.9719 161.573 36.8517C161.529 36.6558 161.502 36.4555 161.507 36.2551C161.48 36.0726 161.471 35.8856 161.489 35.6986C161.476 35.4939 161.484 35.2891 161.516 35.0843C161.493 34.8261 161.511 34.5634 161.565 34.3141C161.573 34.1494 161.596 33.9802 161.64 33.82C161.658 33.5039 161.729 33.1878 161.863 32.9029C161.93 32.6091 162.05 32.3286 162.223 32.0838C162.223 32.0704 162.232 32.0571 162.237 32.0437H159.788H159.793Z" fill="#000C5C"/>
<path opacity="0.99" d="M170.811 31.6831V31.1711C170.811 30.1784 171.007 29.2168 171.39 28.3086C171.759 27.4316 172.293 26.6436 172.97 25.9669C173.647 25.2903 174.435 24.7561 175.312 24.3866C176.22 24.0037 177.182 23.8078 178.174 23.8078C179.167 23.8078 180.129 24.0037 181.037 24.3866L183.04 19.6543C181.5 18.9998 179.862 18.6704 178.174 18.6704C176.487 18.6704 174.849 18.9998 173.309 19.6543C171.822 20.282 170.482 21.1857 169.337 22.3343C168.189 23.4828 167.29 24.8184 166.657 26.3053C166.484 26.7149 166.346 27.1333 166.221 27.5562C167.463 27.1422 168.705 26.7549 169.952 26.7549H172.169C171.955 26.933 171.75 27.1244 171.559 27.3247C170.13 28.8206 169.329 30.8773 169.057 32.9162C169.053 32.9652 169.053 33.0186 169.044 33.0676C169.044 33.1077 169.044 33.1522 169.044 33.1923C169.053 33.3347 169.053 33.4772 169.044 33.6152C169.044 33.7443 169.044 33.8778 169.021 34.0069C169.021 34.096 169.013 34.185 169.004 34.274C169.004 34.3631 169.004 34.4521 168.999 34.5412C169.004 34.7103 168.999 34.8795 168.972 35.0442V35.0531C168.99 35.3959 169.017 35.7387 169.066 36.0637C169.017 35.7342 168.99 35.3959 168.972 35.0531C168.981 35.3914 168.923 35.7342 168.794 36.0459C168.705 36.5133 168.496 36.9496 168.144 37.2701C167.98 37.4749 167.779 37.6574 167.53 37.7865C167.365 37.9156 167.178 38.018 166.965 38.0893C166.729 38.2406 166.453 38.3519 166.128 38.392C165.99 38.4632 165.838 38.5211 165.669 38.5611V55.9811H170.807V36.8071H183.766V31.6697H170.807L170.811 31.6831Z" fill="#000C5C"/>
<path d="M192.714 44.2862C192.714 37.3948 198.319 31.7855 205.21 31.7855C207.881 31.7855 210.454 32.6402 212.574 34.185V32.1283H217.711V56.4396H212.574V54.3829C210.454 55.9277 207.881 56.7824 205.21 56.7824C198.319 56.7824 192.714 51.1776 192.714 44.2817V44.2862ZM205.21 51.6495C209.27 51.6495 212.574 48.3462 212.574 44.2862C212.574 40.2261 209.27 36.9229 205.21 36.9229C201.15 36.9229 197.847 40.2261 197.847 44.2862C197.847 48.3462 201.15 51.6495 205.21 51.6495Z" fill="#000C5C"/>
<path d="M234.245 56.4396H229.108V32.1283H234.245V33.2323C235.834 32.2885 237.655 31.7855 239.552 31.7855C245.312 31.7855 249.996 36.4688 249.996 42.2294V56.4396H244.858V42.2294C244.858 39.3046 242.476 36.9229 239.552 36.9229C236.627 36.9229 234.245 39.3046 234.245 42.2294V56.4396Z" fill="#000C5C"/>
<path d="M148.53 53.1453C148.85 53.4347 149.189 53.7062 149.54 53.9511C149.883 54.2093 150.244 54.4363 150.609 54.6589C151.343 55.0863 152.118 55.4291 152.919 55.6739C154.504 56.1992 156.182 56.3061 157.803 56.0212C158.609 55.8698 159.397 55.6517 160.131 55.34C160.866 55.024 161.551 54.6099 162.143 54.098C163.328 53.083 164.178 51.6895 164.587 50.1448C165.019 48.6089 165.095 46.9484 164.806 45.3546C164.685 44.5533 164.449 43.7742 164.133 43.0397C163.826 42.3007 163.394 41.6284 162.878 41.0586C162.37 40.471 161.698 40.097 160.915 39.7008C160.527 39.5005 160.109 39.2779 159.73 38.9796C159.348 38.6858 159.005 38.3163 158.76 37.9112C158.261 37.092 158.057 36.1527 158.057 35.2534C158.048 34.3497 158.244 33.4772 158.528 32.6536L158.613 32.6758C158.408 33.5128 158.288 34.3764 158.346 35.2356C158.399 36.0904 158.653 36.9407 159.143 37.6441C160.1 39.1577 162.157 39.2378 163.363 40.5644C163.982 41.1788 164.489 41.9133 164.841 42.7102C165.206 43.5026 165.478 44.3396 165.629 45.1988C165.967 46.9127 165.896 48.6979 165.447 50.3852C164.984 52.068 164.026 53.6305 162.678 54.7435C161.32 55.8609 159.619 56.4886 157.896 56.7067C156.169 56.9293 154.384 56.7424 152.754 56.1102C151.13 55.4825 149.656 54.4764 148.472 53.2032L148.539 53.1453H148.53Z" fill="#000C5C"/>
<path d="M165.153 46.6724C165.135 46.6946 165.122 46.7213 165.104 46.7391C165.024 46.8237 164.895 46.8682 164.912 46.8638L164.823 46.8994L164.641 46.9662C164.521 47.0062 164.4 47.0419 164.28 47.0775C164.04 47.1443 163.791 47.1932 163.546 47.2333C163.052 47.309 162.544 47.3268 162.041 47.2734C161.035 47.1754 160.055 46.7614 159.29 46.1114C158.524 45.4615 157.963 44.5978 157.656 43.6629C157.349 42.7236 157.3 41.7175 157.482 40.7603L157.509 40.6179L157.643 40.5912C158.506 40.4087 159.397 40.2617 160.305 40.3864C160.75 40.4487 161.209 40.5912 161.578 40.885C161.761 41.0275 161.916 41.21 162.041 41.4059C162.161 41.6062 162.237 41.8243 162.299 42.038C162.419 42.4698 162.486 42.8972 162.611 43.3068C162.731 43.7208 162.896 44.1215 163.109 44.4954C163.532 45.2522 164.129 45.9067 164.828 46.4275L165.166 46.6813L165.153 46.6724ZM164.449 46.1381C163.884 45.693 163.385 45.1587 163.007 44.5399C162.776 44.166 162.589 43.7653 162.446 43.3469C162.299 42.9284 162.215 42.4966 162.081 42.0914C161.956 41.6819 161.738 41.3257 161.404 41.0898C161.075 40.8538 160.665 40.7381 160.251 40.698C159.414 40.6179 158.56 40.7871 157.732 41.0007L157.892 40.8316C157.763 41.7264 157.843 42.6479 158.159 43.4849C158.471 44.3174 159.005 45.0653 159.695 45.6039C160.389 46.1381 161.231 46.4542 162.094 46.5032C162.526 46.5299 162.967 46.4943 163.394 46.4142C163.608 46.3696 163.822 46.3207 164.031 46.2539C164.133 46.2227 164.236 46.1827 164.338 46.147L164.485 46.0847L164.556 46.0536C164.601 46.0358 164.498 46.0714 164.445 46.1426C164.445 46.1426 164.445 46.1426 164.445 46.147L164.449 46.1381Z" fill="#000C5C"/>
<path d="M165.077 46.5343C164.32 46.4498 163.586 46.2316 162.905 45.9155C162.223 45.5995 161.596 45.181 161.026 44.7046C159.891 43.743 158.996 42.5277 158.355 41.21C159.063 42.4965 160.011 43.6496 161.164 44.531C161.743 44.9673 162.366 45.3413 163.034 45.6084C163.701 45.8755 164.4 46.0446 165.108 46.0892L165.073 46.5343H165.077Z" fill="#000C5C"/>
<path d="M156.614 53.6706C156.24 52.7091 155.555 51.8231 154.633 51.2221C153.716 50.6167 152.572 50.2917 151.406 50.3273C152.545 50.0736 153.796 50.1582 154.94 50.6301C156.089 51.0975 157.104 51.9522 157.798 53.0563L156.61 53.6706H156.614Z" fill="#000C5C"/>
<path d="M161.467 55.5627C159.846 54.7613 158.132 54.147 156.351 53.8932C155.461 53.773 154.562 53.7285 153.663 53.8042C152.763 53.871 151.882 54.0668 151 54.325C149.242 54.8326 147.524 55.6472 145.64 55.9633C143.762 56.3106 141.776 55.803 140.298 54.6634C141.847 55.7096 143.802 56.0746 145.578 55.6339C147.368 55.2288 149.01 54.325 150.791 53.6884C151.682 53.3724 152.612 53.1008 153.569 52.9761C154.526 52.8381 155.497 52.8248 156.458 52.896C158.386 53.0563 160.26 53.6039 162.023 54.3518L161.462 55.5627H161.467Z" fill="#000C5C"/>
<path d="M158.88 27.0755C157.482 28.2151 156.53 29.9335 156.445 31.7677C156.405 32.6803 156.556 33.6063 156.872 34.4699C157.193 35.3336 157.647 36.1572 158.239 36.8784C157.62 36.1839 157.131 35.3736 156.77 34.51C156.414 33.6463 156.218 32.707 156.222 31.7588C156.231 30.8105 156.458 29.8667 156.872 29.0075C157.286 28.1483 157.874 27.3737 158.591 26.7371L158.88 27.0755Z" fill="#000C5C"/>
<path d="M171.203 27.8946L171.875 26.9552L171.911 27.0621C170.308 26.8261 168.661 26.9998 167.165 27.5073C165.669 28.0281 164.351 28.9764 163.408 30.2229C162.455 31.4605 161.903 32.9697 161.72 34.5144C161.547 36.0637 161.805 37.6441 162.379 39.0909L161.983 38.8193C163.372 38.8416 164.774 38.7793 166.07 38.4098C166.711 38.2228 167.321 37.9379 167.797 37.5194C168.278 37.1054 168.607 36.5489 168.732 35.9079C168.861 35.2668 168.852 34.55 168.901 33.8333C168.946 33.1166 169.035 32.3865 169.235 31.6875C169.622 30.2897 170.295 28.9897 171.203 27.8946C170.441 29.0921 169.867 30.4054 169.622 31.7766C169.498 32.4621 169.44 33.1522 169.444 33.8511C169.44 34.55 169.493 35.2668 169.377 36.0236C169.271 36.7849 168.879 37.5372 168.305 38.0714C167.73 38.6101 167.018 38.9484 166.315 39.1799C164.886 39.6385 163.412 39.7053 161.974 39.6964H161.689L161.578 39.4248C160.923 37.8533 160.665 36.1126 160.87 34.4165C161.066 32.7204 161.752 31.0865 162.82 29.7554C163.354 29.0877 164.009 28.5312 164.716 28.0593C165.424 27.5874 166.203 27.2357 167.014 27.0131C168.634 26.5546 170.339 26.5679 171.942 26.933L172.053 26.9597L171.977 27.0398L171.207 27.8901L171.203 27.8946Z" fill="#000C5C"/>
<path d="M157.767 36.4732C156.913 35.899 156.129 35.1956 155.537 34.3319C154.931 33.4772 154.566 32.4399 154.522 31.367C154.491 30.2941 154.829 29.2079 155.466 28.3309C156.098 27.4494 157.006 26.7816 157.999 26.3632L158.177 26.2875L158.342 26.4121C159.152 27.0265 159.944 27.6809 160.616 28.5134C160.95 28.9319 161.24 29.4127 161.387 29.9958C161.551 30.5701 161.404 31.2913 161.053 31.7766C160.714 32.2618 160.331 32.569 160.024 32.9296C159.713 33.2813 159.441 33.6508 159.232 34.0737C158.8 34.9062 158.609 35.8678 158.586 36.8516V37.1143L158.395 36.9763C158.177 36.8116 157.968 36.6424 157.758 36.4732L157.812 36.402C158.052 36.5133 158.288 36.6291 158.52 36.7493L158.328 36.8739C158.141 35.8722 158.208 34.786 158.595 33.7932C158.787 33.2946 159.058 32.8183 159.392 32.4043C159.713 31.9858 160.082 31.6208 160.309 31.278C160.532 30.9396 160.572 30.5968 160.496 30.2006C160.416 29.8089 160.193 29.4082 159.931 29.0253C159.397 28.2596 158.667 27.5919 157.914 26.9642L158.257 27.0131C157.349 27.3515 156.521 27.9079 155.924 28.6692C155.323 29.426 154.976 30.3832 154.958 31.3626C154.94 32.342 155.221 33.3347 155.755 34.185C156.276 35.0442 157.002 35.7832 157.816 36.3976L157.763 36.4688L157.767 36.4732Z" fill="#000C5C"/>
<path d="M162.58 39.2378C163.528 36.7047 164.783 34.2919 166.341 32.0882C167.125 30.9886 167.98 29.9469 168.901 28.9675C169.133 28.7226 169.364 28.4778 169.609 28.2463C169.849 28.0103 170.085 27.7744 170.344 27.5563L171.866 26.2341L170.384 27.5963C170.13 27.8189 169.903 28.0593 169.667 28.3042C169.431 28.5401 169.208 28.7939 168.981 29.0432C168.087 30.0404 167.267 31.1044 166.52 32.2129C165.033 34.4388 163.862 36.8606 162.994 39.3847L162.575 39.2334L162.58 39.2378Z" fill="#000C5C"/>
<path d="M170.905 26.7504L171.986 26.9419L172.316 26.6837L170.905 26.7504Z" fill="#000C5C"/>
<path d="M46.6776 13.6664L46.1033 15.3091L45.8006 16.1282L45.6403 16.5334L45.5557 16.7337L45.5112 16.8361L45.489 16.885L45.4756 16.9118L45.4667 16.9251L45.4578 16.9429C45.4355 16.983 45.3732 17.0142 45.3376 17.0097L45.4622 16.9385C44.9859 17.8155 44.3716 18.6168 43.6637 19.3246C42.9559 20.0369 42.1501 20.6468 41.3042 21.1811L41.2864 21.1944L41.2419 21.2122C40.0978 21.6396 38.9626 22.0981 37.8096 22.4988C36.6521 22.8816 35.4946 23.2734 34.3372 23.6696L34.5731 23.4826L24.1603 40.2705L24.2226 39.99C24.2182 39.9455 24.2226 39.99 24.2271 39.99C24.2271 39.9989 24.2404 40.0033 24.2449 40.0123C24.2582 40.0256 24.2805 40.0345 24.325 40.0479C24.4185 40.0701 24.5921 40.0568 24.7657 40.0123C25.1352 39.9099 25.4736 39.754 25.7585 39.5047C26.3461 39.0106 26.7201 38.2627 27.0139 37.4614C27.0807 37.2699 27.2098 36.9984 27.3255 36.7936C27.4502 36.5933 27.5748 36.384 27.7084 36.2059C27.9711 35.8275 28.256 35.4758 28.5409 35.1286C29.1152 34.4341 29.7117 33.7753 30.3216 33.1208C30.9315 32.4709 31.5503 31.8343 32.178 31.2021C32.4985 30.886 32.7924 30.5744 33.1441 30.2628L34.1546 29.3991L38.2013 25.9445L38.3349 25.8332H38.4907C38.7177 25.8466 38.8602 25.8955 39.0383 25.9935C39.1273 26.0469 39.1896 26.0959 39.2787 26.1938C39.3544 26.2873 39.39 26.3585 39.43 26.4387C39.4656 26.5188 39.4924 26.6034 39.5102 26.6835C39.5191 26.7236 39.5235 26.7681 39.528 26.8082C39.528 26.8482 39.5369 26.8838 39.528 26.9773C39.479 27.2711 39.3855 27.3557 39.3143 27.4848C39.0116 27.9078 38.691 28.2105 38.3616 28.531C37.7072 29.1498 37.0305 29.7241 36.3449 30.285L35.8285 30.7035C35.735 30.7792 35.6638 30.8326 35.5792 30.9083L35.3299 31.122L34.3327 31.9812L32.3338 33.6996L32.4451 33.5527C32.3427 33.7619 32.3828 34.0379 32.5475 34.2026C32.7033 34.3718 32.9749 34.4297 33.1886 34.3362L33.0862 34.3941L39.2342 29.6751L39.3098 29.6173L39.4033 29.595C41.0416 29.2121 42.6532 28.6957 44.1979 28.0369C44.5808 27.8721 44.9592 27.703 45.2886 27.4982C45.6181 27.2934 45.9208 27.0441 46.2013 26.7636C46.7711 26.2205 47.2385 25.5572 47.568 24.8137C48.209 23.2333 48.997 21.6752 49.8874 20.2106C50.7777 18.737 51.8016 17.3525 52.919 16.0615C51.9085 17.4415 51.0137 18.8973 50.2301 20.402C49.4466 21.9156 48.7922 23.4648 48.258 25.0942C47.9464 25.9356 47.4834 26.7414 46.8423 27.4047C46.5218 27.7341 46.1523 28.019 45.7516 28.2594C45.351 28.4954 44.9458 28.6824 44.5452 28.8515C42.947 29.5371 41.2909 30.0669 39.6037 30.4586L39.7728 30.3785L33.6249 35.0974L33.5803 35.1331L33.5225 35.1553C32.9793 35.3868 32.3027 35.2533 31.8931 34.8125C31.4746 34.3852 31.3722 33.6996 31.6349 33.1698L31.6794 33.0808L31.7506 33.0229L33.7584 31.3C34.4217 30.7302 35.1029 30.1337 35.784 29.5994C36.4607 29.0474 37.1284 28.482 37.7517 27.8899C38.0589 27.5961 38.3705 27.2845 38.5797 26.9907C38.6243 26.9328 38.6599 26.826 38.6421 26.9016C38.6421 26.9417 38.6421 26.9194 38.6421 26.9061V26.8705C38.6332 26.8482 38.6243 26.8215 38.6153 26.8037C38.5842 26.7458 38.6064 26.7814 38.5797 26.7592C38.5708 26.7458 38.4907 26.7325 38.4996 26.7325L38.7845 26.6256L34.7512 30.0669L33.7451 30.9261C33.4379 31.1976 33.1174 31.5315 32.8102 31.8343C32.1869 32.4575 31.577 33.0897 30.976 33.7307C30.375 34.3718 29.7874 35.0262 29.2309 35.6984C28.9549 36.0323 28.6833 36.3751 28.4385 36.7224C28.3094 36.896 28.207 37.0696 28.0957 37.2432C27.9978 37.4257 27.9265 37.5504 27.8464 37.7774C27.5303 38.6233 27.1074 39.527 26.3283 40.1903C25.9455 40.5242 25.4647 40.7557 24.9794 40.8804C24.7257 40.9427 24.4497 40.9917 24.1069 40.9204C23.9377 40.8804 23.7552 40.7958 23.6083 40.6489C23.537 40.5776 23.4747 40.493 23.4302 40.404C23.3812 40.3061 23.3545 40.2437 23.3278 40.0879L23.3055 39.9455L23.3901 39.8075L33.8029 23.0197L33.8875 22.8861L34.0389 22.8371C35.1964 22.4454 36.3494 22.0492 37.5024 21.644C38.6599 21.2567 39.8396 20.9273 41.006 20.5667L40.9437 20.5934C42.6309 19.6941 44.1712 18.4476 45.2085 16.8049L45.3331 16.7337C45.2975 16.7292 45.2397 16.7559 45.2174 16.7916C45.204 16.8094 45.2174 16.7916 45.2174 16.796V16.7871L45.2352 16.7648L45.2619 16.7203L45.3109 16.6268L45.4088 16.4354L45.6003 16.0481L45.9698 15.2646L46.6776 13.6753V13.6664Z" fill="#000C5C"/>
<path d="M70.9623 63.8962C70.4592 63.2818 69.9606 62.663 69.4754 62.0353C69.235 61.7193 68.9901 61.4076 68.7675 61.0648C68.5583 60.7042 68.3847 60.3526 68.2244 59.9741C67.5923 58.4828 67.3385 56.8445 67.334 55.2241V55.2018L67.343 55.1573C67.5878 53.9597 67.797 52.7533 68.073 51.5647C68.3624 50.3805 68.6384 49.1874 68.9189 47.9987L68.9545 48.297L60.2245 30.5743L60.4293 30.7791C60.4693 30.7969 60.4293 30.7791 60.4293 30.7836C60.4204 30.7836 60.4115 30.7836 60.4026 30.7836C60.3848 30.7836 60.3625 30.8014 60.3269 30.8325C60.2557 30.8993 60.1755 31.0551 60.1221 31.2243C60.0108 31.5893 59.9663 31.9633 60.0286 32.3372C60.1355 33.0941 60.5717 33.8108 61.097 34.4875C61.2262 34.6433 61.3864 34.897 61.4977 35.1018C61.6046 35.3155 61.7114 35.5292 61.796 35.7384C61.9785 36.1614 62.1254 36.5887 62.2679 37.0161C62.5528 37.8709 62.7976 38.7256 63.0291 39.5893C63.2562 40.4485 63.4743 41.3121 63.6746 42.1802C63.7726 42.621 63.8794 43.0305 63.9596 43.498L64.1554 44.8157L64.9434 50.0777L64.9701 50.2514L64.8855 50.3805C64.7564 50.5674 64.6451 50.6609 64.4626 50.7633C64.3691 50.8078 64.2935 50.839 64.1644 50.8613C64.0486 50.8746 63.9685 50.8702 63.875 50.8613C63.7859 50.8479 63.7058 50.8257 63.6257 50.7989C63.5856 50.7856 63.5455 50.7678 63.5099 50.75C63.4743 50.7322 63.4432 50.7188 63.3675 50.6609C63.1449 50.4651 63.1226 50.3404 63.0514 50.2113C62.8511 49.7305 62.7665 49.2987 62.6685 48.8535C62.4905 47.972 62.3614 47.095 62.2501 46.2136L62.1699 45.5547C62.1566 45.4345 62.1477 45.3455 62.1299 45.2342L62.0809 44.9092L61.8806 43.6093L61.4844 41.0049L61.5511 41.1786C61.4265 40.9782 61.1727 40.8714 60.9501 40.9204C60.7231 40.9649 60.5317 41.1652 60.4961 41.3967V41.281L61.2484 48.9915L61.2573 49.085L61.2261 49.174C60.6786 50.7811 60.2601 52.4372 60.0063 54.1111C59.944 54.5296 59.8906 54.9391 59.8951 55.3309C59.8951 55.7227 59.9574 56.1189 60.0509 56.5017C60.22 57.2763 60.5539 58.0287 61.0169 58.7009C62.0319 60.1032 62.9356 61.608 63.7103 63.1572C64.4893 64.7064 65.1215 66.3269 65.6245 67.9785C64.9879 66.3759 64.2311 64.8266 63.363 63.3486C62.4905 61.8706 61.5155 60.4683 60.4159 59.1506C59.8594 58.4427 59.3964 57.6236 59.165 56.7199C59.0537 56.2702 58.9958 55.8028 59.0002 55.3309C59.0002 54.859 59.0626 54.4138 59.1249 53.9775C59.3875 52.2458 59.8194 50.5407 60.3848 48.8891L60.3625 49.0761L59.6146 41.3655V41.3077V41.2453C59.7036 40.6622 60.1755 40.1591 60.7676 40.0433C61.3553 39.9142 61.9874 40.1903 62.299 40.6933L62.3525 40.7779L62.3658 40.8669L62.7665 43.4846C62.8956 44.3483 63.0469 45.2431 63.136 46.1023C63.2473 46.9659 63.3719 47.834 63.5455 48.6754C63.6301 49.0894 63.7325 49.5213 63.8705 49.8552C63.8928 49.9219 63.9685 50.0065 63.9106 49.9531C63.875 49.9308 63.8928 49.9442 63.9061 49.9531L63.9418 49.9665C63.964 49.9754 63.9863 49.9798 64.0085 49.9843C64.0753 49.9843 64.0308 49.9887 64.0664 49.9798C64.0842 49.9798 64.1376 49.9219 64.1332 49.9264L64.0709 50.2247L63.2873 44.9849L63.0915 43.676C63.0247 43.2709 62.9089 42.8257 62.8155 42.4028C62.6151 41.5436 62.4014 40.6889 62.1744 39.8386C61.9473 38.9883 61.7025 38.1469 61.4309 37.3188C61.2929 36.9048 61.1505 36.4952 60.9813 36.1079C60.9056 35.9076 60.8077 35.7295 60.7186 35.5426C60.6162 35.3645 60.545 35.2354 60.3937 35.0484C59.8416 34.3361 59.2985 33.4947 59.1516 32.4842C59.0715 31.9811 59.1293 31.4513 59.2807 30.975C59.3653 30.7301 59.4677 30.463 59.7081 30.2137C59.8327 30.0935 59.9974 29.9822 60.2022 29.9333C60.3002 29.911 60.4026 29.9021 60.505 29.911C60.6118 29.9244 60.683 29.9333 60.8255 29.9911L60.959 30.049L61.0303 30.1959L69.7603 47.9186L69.8315 48.0611L69.7959 48.2169C69.5199 49.4055 69.2394 50.5942 68.9723 51.7872C68.6963 52.9759 68.3491 54.1512 68.0374 55.3309L68.0463 55.2641C67.9439 56.8089 68.0775 58.3848 68.585 59.8584C68.7097 60.2234 68.861 60.5929 69.0302 60.9313C69.2216 61.2652 69.4353 61.6035 69.649 61.9374C70.0808 62.6007 70.526 63.2596 70.9756 63.914L70.9623 63.8962Z" fill="#000C5C"/>
<path d="M16.5477 58.8523C17.2422 58.7722 17.9322 58.6921 18.6312 58.6431C19.3479 58.5986 20.0468 58.701 20.7413 58.8479C22.1303 59.1506 23.448 59.7427 24.6545 60.4906L24.6723 60.4995L24.7034 60.5262L27.379 63.0326C27.8242 63.4511 28.2515 63.8874 28.6745 64.3236L29.9655 65.6236L29.6939 65.4945L49.3532 67.4755L49.0727 67.5423C49.0816 67.5334 49.0816 67.5245 49.0861 67.52C49.0905 67.5067 49.0905 67.48 49.0861 67.431C49.0638 67.3375 48.9792 67.1862 48.859 67.0526C48.6053 66.7677 48.3159 66.5317 47.9642 66.3848C47.2653 66.0732 46.4239 66.0643 45.5736 66.1533C45.3732 66.18 45.0705 66.18 44.839 66.1667C44.6031 66.1444 44.3627 66.1222 44.1401 66.0821C43.6815 66.0109 43.2453 65.9129 42.8045 65.8061C41.932 65.5969 41.0728 65.3476 40.218 65.0893C39.3677 64.8267 38.5219 64.5507 37.6805 64.2658C37.2576 64.1144 36.848 63.9898 36.4117 63.8072L35.1919 63.2775L30.3083 61.1584L30.148 61.0872L30.0857 60.9447C29.9922 60.7355 29.9744 60.5886 29.9833 60.3838C29.9922 60.2814 30.01 60.2013 30.059 60.0811C30.1079 59.9742 30.1569 59.9074 30.2148 59.8407C30.2727 59.7739 30.335 59.716 30.4018 59.6626C30.4374 59.6359 30.4685 59.6136 30.5042 59.5914C30.5398 59.5735 30.5665 59.5513 30.6555 59.5157C30.9404 59.4311 31.0562 59.4756 31.2031 59.4845C31.7195 59.5735 32.1291 59.7249 32.5609 59.8807C33.4067 60.1968 34.217 60.5529 35.0228 60.9224L35.6237 61.2029C35.7306 61.2519 35.8152 61.2964 35.9176 61.3365L36.2203 61.4656L37.4312 61.9864L39.853 63.0282L39.6705 62.9925C39.9064 62.9925 40.1334 62.8323 40.2091 62.6186C40.2937 62.4049 40.2225 62.1378 40.0444 61.982L40.1423 62.0488L33.202 58.5986L33.1174 58.5541L33.055 58.4784C31.9822 57.1607 30.8024 55.932 29.5159 54.8279C29.1953 54.5519 28.8748 54.2937 28.5409 54.0845C28.207 53.8797 27.842 53.7239 27.4636 53.5948C26.7112 53.3365 25.9054 53.2163 25.0863 53.2564C23.359 53.3722 21.605 53.341 19.8777 53.1763C18.1504 53.016 16.4409 52.6955 14.7759 52.2458C16.472 52.5575 18.1904 52.7311 19.8999 52.7801C21.6183 52.8246 23.3189 52.7356 25.0195 52.5041C25.9188 52.4061 26.8581 52.4417 27.744 52.7355C28.6299 53.0116 29.4402 53.5814 30.0901 54.1557C31.4212 55.2953 32.6366 56.5641 33.7406 57.9175L33.5937 57.8017L40.5341 61.2519L40.5831 61.2786L40.6276 61.3187C41.0772 61.706 41.2509 62.3737 41.0372 62.9302C40.8368 63.4956 40.267 63.8874 39.6749 63.8874H39.577L39.4924 63.8517L37.0617 62.8056C36.2604 62.4583 35.4234 62.1111 34.6444 61.7327C33.8519 61.3676 33.0506 61.0159 32.2448 60.7177C31.8486 60.5708 31.4257 60.4283 31.0695 60.3704C30.9983 60.3526 30.887 60.3704 30.9627 60.3526C30.9805 60.3437 30.9983 60.3348 30.9627 60.3526L30.9315 60.3749C30.9315 60.3749 30.8959 60.406 30.8826 60.4238C30.8469 60.4773 30.8648 60.4417 30.8559 60.4728C30.8469 60.4862 30.8692 60.5618 30.8648 60.5574L30.6422 60.3482L35.5036 62.4583L36.7189 62.9881C37.0973 63.1484 37.538 63.2819 37.9476 63.4288C38.7801 63.7137 39.617 63.9853 40.4584 64.2435C41.2998 64.5017 42.1457 64.7421 42.9915 64.9469C43.4144 65.0493 43.8374 65.1428 44.2558 65.2096C44.4695 65.2496 44.6698 65.263 44.8746 65.2852C45.0839 65.2897 45.2263 65.2986 45.4667 65.2719C46.3615 65.1828 47.3632 65.165 48.3025 65.5746C48.77 65.7705 49.1884 66.1044 49.5179 66.4828C49.6826 66.6831 49.8518 66.9101 49.9364 67.2485C49.972 67.4177 49.9809 67.618 49.9141 67.8139C49.8785 67.9118 49.834 68.0008 49.7716 68.081C49.7049 68.1656 49.6603 68.219 49.5312 68.308L49.411 68.3881L49.2508 68.3703L29.5915 66.3893L29.4357 66.3715L29.3244 66.2602L28.0289 64.9647C27.5927 64.5373 27.1564 64.1099 26.7424 63.6603L24.2494 60.9759L24.2983 61.0159C23.1898 60.2191 21.97 59.5646 20.6523 59.1773C20.3228 59.0794 19.989 58.9993 19.6506 58.9414C19.3078 58.8791 18.9784 58.8212 18.6312 58.8256C17.9367 58.8167 17.2377 58.8345 16.5433 58.8568L16.5477 58.8523Z" fill="#000C5C"/>
<path d="M73.5176 34.7323C74.0786 36.286 74.5282 37.8753 74.8443 39.4957C74.9155 39.8697 74.9823 40.2436 75.0401 40.6221C75.1158 41.1162 75.1203 41.1429 75.1782 41.6638C75.2672 42.4607 75.3251 43.262 75.3473 44.0633C75.4007 45.6259 75.334 47.1929 75.1514 48.7466C75.1381 48.8446 75.1292 48.9425 75.1158 49.0404C75.0847 49.2897 75.1425 48.849 75.1069 49.0939C75.0847 49.263 75.058 49.4367 75.0312 49.6058C74.9645 50.0198 74.8932 50.4294 74.8131 50.8434C74.6617 51.6136 74.4792 52.3793 74.27 53.1406C74.0607 53.9018 73.8248 54.6453 73.5621 55.3843C73.4375 55.7315 73.3084 56.0743 73.1748 56.4171C73.1036 56.5996 73.0279 56.7822 72.9522 56.9602C73.0324 56.7733 72.8365 57.2229 72.8098 57.2897C72.1732 58.7231 71.4342 60.1121 70.5972 61.4343C70.1788 62.0976 69.7336 62.7476 69.2661 63.3798C68.8744 63.914 68.4648 64.4215 67.9217 65.0447C66.8844 66.2423 65.7537 67.3597 64.5517 68.3881C63.9017 68.9401 63.5233 69.2383 62.9 69.688C62.2456 70.1599 61.5779 70.6095 60.8878 71.028C60.1978 71.4464 59.481 71.8516 58.7554 72.2211C58.0876 72.5594 57.2195 72.9601 56.712 73.1693C55.1984 73.7881 53.6403 74.2867 52.051 74.6607C50.3726 75.0569 49.1083 75.2483 47.4878 75.364C45.8674 75.4798 44.3003 75.4709 42.7155 75.3418C41.2152 75.2216 39.9643 75.0257 38.3572 74.6429C36.7501 74.26 35.3299 73.8104 33.8697 73.2272C33.4156 73.0491 33.4824 73.0758 33.0639 72.8888C32.6811 72.7197 32.3071 72.546 31.9332 72.3591C31.2521 72.0252 30.5798 71.6646 29.9254 71.2862C27.1653 69.6791 24.9483 67.9073 22.758 65.5255C22.2193 64.9379 21.7029 64.3324 21.2087 63.7092C21.1954 63.6914 21.044 63.4955 21.1598 63.6469C21.1153 63.589 21.0707 63.5267 21.0218 63.4688C20.9016 63.3085 20.7814 63.1483 20.6656 62.9835C20.4163 62.6363 20.1715 62.2846 19.9355 61.9285C19.0496 60.5929 18.2661 59.1861 17.5939 57.7304C17.2511 56.9914 17.0374 56.4661 16.7347 55.6247C16.4498 54.8456 16.2005 54.0532 15.9779 53.2519C15.7553 52.4505 15.5861 51.7115 15.4347 50.9325C15.3591 50.5318 15.2878 50.1356 15.2255 49.7305C15.1543 49.263 15.1587 49.2942 15.0964 48.7644C14.9228 47.1751 14.8694 45.5725 14.9361 43.9787C15.0074 42.2781 15.1498 41.1118 15.4704 39.5135C16.6857 33.4413 19.6061 27.97 23.96 23.6517C24.5254 23.0908 25.1085 22.5566 25.714 22.0402C25.9989 21.7998 26.2883 21.5594 26.5821 21.3279C26.7735 21.1765 27.0896 20.9361 27.4279 20.6957C28.7412 19.7475 30.1302 18.9061 31.577 18.1715C33.0239 17.437 34.2837 16.9206 35.9042 16.4042C37.5247 15.8877 39.065 15.5316 40.6855 15.2867C41.0683 15.2289 41.0995 15.2244 41.5758 15.171C41.9765 15.1265 42.3771 15.0909 42.7778 15.0642C43.5747 15.0063 44.3716 14.9796 45.1729 14.984C45.9742 14.9885 46.7622 15.0241 47.5502 15.0864C47.9464 15.1176 48.3381 15.1576 48.7299 15.2022C48.8056 15.2111 48.8768 15.22 48.9525 15.2289C49.2018 15.26 48.7611 15.2022 49.0059 15.2378C49.224 15.2689 49.4466 15.3001 49.6648 15.3357C51.2185 15.585 52.7499 15.9545 54.2502 16.4264C54.9981 16.6624 55.7371 16.9295 56.4627 17.2188C56.8589 17.3791 56.8456 17.3702 57.2685 17.5616C57.6246 17.7219 57.9808 17.8866 58.3325 18.0602C59.7392 18.7503 61.097 19.5427 62.3925 20.4331C63.688 21.3234 64.6407 22.0936 65.8382 23.211C67.0358 24.3284 68.0731 25.4681 69.0569 26.7146C69.2394 26.9416 69.1459 26.8259 69.1059 26.7769C69.1682 26.857 69.2261 26.9372 69.2884 27.0173C69.4086 27.1776 69.5288 27.3378 69.6445 27.5025C69.8805 27.8275 70.1075 28.1614 70.3301 28.4953C70.7798 29.172 71.1982 29.862 71.5944 30.5698C72.3913 31.9989 72.979 33.2988 73.5043 34.7234C73.7758 35.4579 74.4837 35.9521 75.285 35.734C75.9928 35.5381 76.5671 34.6922 76.2956 33.9532C73.9094 27.4714 69.6045 21.9066 63.9151 17.9801C58.4616 14.2139 51.8284 12.1349 45.1862 12.0992C38.3126 12.0636 31.4212 14.245 25.8564 18.2917C20.2917 22.3384 16.2405 27.8364 13.9523 34.2114C11.6774 40.5553 11.4147 47.6025 13.2177 54.0977C15.0207 60.5929 18.9517 66.6429 24.2894 70.9033C29.5737 75.1192 35.9799 77.6834 42.7199 78.231C49.5668 78.7875 56.574 77.0825 62.4192 73.4854C68.2645 69.8883 72.694 64.7287 75.3696 58.6119C78.1075 52.357 78.9355 45.4389 77.6267 38.7256C77.3106 37.1051 76.8609 35.5114 76.3 33.9621C76.0329 33.2276 75.3162 32.7334 74.5193 32.9516C73.8114 33.1474 73.2416 33.9933 73.5087 34.7323H73.5176Z" fill="#F6BE31"/>
<path d="M45.3242 49.9086C47.8026 49.9086 49.8117 47.8996 49.8117 45.4212C49.8117 42.9429 47.8026 40.9338 45.3242 40.9338C42.8459 40.9338 40.8368 42.9429 40.8368 45.4212C40.8368 47.8996 42.8459 49.9086 45.3242 49.9086Z" stroke="#F6BE31" stroke-width="3" stroke-miterlimit="10"/>
<path d="M49.8073 45.1452H54.1967" stroke="#F6BE31" stroke-width="3" stroke-miterlimit="10"/>
<path d="M36.5275 45.1452H40.8012" stroke="#F6BE31" stroke-width="3" stroke-miterlimit="10"/>
<path d="M41.7228 48.7687L39.0873 51.4042" stroke="#F6BE31" stroke-width="3" stroke-miterlimit="10"/>
<path d="M51.5835 38.9128L48.6409 41.851" stroke="#F6BE31" stroke-width="3" stroke-miterlimit="10"/>
<path d="M48.7211 48.5417L51.8062 51.6268" stroke="#F6BE31" stroke-width="3" stroke-miterlimit="10"/>
<path d="M39.3098 39.1354L42.2925 42.1137" stroke="#F6BE31" stroke-width="3" stroke-miterlimit="10"/>
<path d="M45.3822 50.4338V54.2891" stroke="#F6BE31" stroke-width="3" stroke-miterlimit="10"/>
<path d="M45.3822 36.6242V40.9336" stroke="#F6BE31" stroke-width="3" stroke-miterlimit="10"/>
<path d="M92.8516 68.5391H90.3672V67.3125H92.8516C93.3203 67.3125 93.6979 67.2188 93.9844 67.0312C94.276 66.8438 94.487 66.5833 94.6172 66.25C94.7526 65.9167 94.8203 65.5365 94.8203 65.1094C94.8203 64.7188 94.7526 64.3516 94.6172 64.0078C94.487 63.6641 94.276 63.388 93.9844 63.1797C93.6979 62.9661 93.3203 62.8594 92.8516 62.8594H90.6641V73H89.2266V61.625H92.8516C93.5859 61.625 94.2057 61.7734 94.7109 62.0703C95.2161 62.3672 95.599 62.7786 95.8594 63.3047C96.125 63.8255 96.2578 64.4219 96.2578 65.0938C96.2578 65.8229 96.125 66.4453 95.8594 66.9609C95.599 67.4766 95.2161 67.8698 94.7109 68.1406C94.2057 68.4062 93.5859 68.5391 92.8516 68.5391ZM105.216 70.8359C105.216 70.6224 105.164 70.4349 105.059 70.2734C104.955 70.112 104.783 69.9557 104.544 69.8047C104.309 69.6536 103.992 69.4922 103.591 69.3203C103.2 69.1589 102.848 69 102.536 68.8438C102.229 68.6823 101.968 68.5078 101.755 68.3203C101.541 68.1328 101.377 67.9167 101.262 67.6719C101.153 67.4219 101.098 67.1276 101.098 66.7891C101.098 66.4505 101.161 66.138 101.286 65.8516C101.416 65.5599 101.598 65.3047 101.833 65.0859C102.067 64.8672 102.348 64.6979 102.677 64.5781C103.005 64.4531 103.372 64.3906 103.778 64.3906C104.356 64.3906 104.848 64.5026 105.255 64.7266C105.661 64.9505 105.971 65.2578 106.184 65.6484C106.403 66.0339 106.512 66.4688 106.512 66.9531H105.137C105.137 66.7188 105.085 66.4974 104.981 66.2891C104.877 66.0807 104.723 65.9115 104.52 65.7812C104.317 65.6458 104.07 65.5781 103.778 65.5781C103.471 65.5781 103.221 65.6328 103.028 65.7422C102.835 65.8516 102.695 65.9948 102.606 66.1719C102.523 66.3438 102.481 66.5339 102.481 66.7422C102.481 66.8984 102.502 67.0339 102.544 67.1484C102.591 67.2578 102.669 67.362 102.778 67.4609C102.887 67.5547 103.036 67.6536 103.223 67.7578C103.416 67.8568 103.661 67.9714 103.958 68.1016C104.531 68.3255 105.012 68.5521 105.403 68.7812C105.794 69.0104 106.091 69.2786 106.294 69.5859C106.497 69.8932 106.598 70.2734 106.598 70.7266C106.598 71.0964 106.531 71.4323 106.395 71.7344C106.265 72.0312 106.078 72.2865 105.833 72.5C105.588 72.7135 105.294 72.8776 104.95 72.9922C104.611 73.1016 104.231 73.1562 103.809 73.1562C103.174 73.1562 102.635 73.0312 102.192 72.7812C101.755 72.526 101.421 72.1953 101.192 71.7891C100.968 71.3776 100.856 70.9375 100.856 70.4688H102.239C102.255 70.8646 102.343 71.1719 102.505 71.3906C102.671 71.6094 102.872 71.7604 103.106 71.8438C103.341 71.9271 103.575 71.9688 103.809 71.9688C104.117 71.9688 104.374 71.9245 104.583 71.8359C104.791 71.7422 104.947 71.6094 105.052 71.4375C105.161 71.2656 105.216 71.0651 105.216 70.8359ZM113.095 64.5469V73H111.72V64.5469H113.095ZM111.642 62.3047C111.642 62.0703 111.707 61.8724 111.837 61.7109C111.968 61.5495 112.163 61.4688 112.423 61.4688C112.684 61.4688 112.879 61.5495 113.009 61.7109C113.145 61.8724 113.212 62.0703 113.212 62.3047C113.212 62.5286 113.145 62.7214 113.009 62.8828C112.879 63.0391 112.684 63.1172 112.423 63.1172C112.163 63.1172 111.968 63.0391 111.837 62.8828C111.707 62.7214 111.642 62.5286 111.642 62.3047ZM119.873 61V73H118.491V61H119.873ZM124.163 64.5469L121.155 68.4922L119.295 70.6328L119.202 69.0938L120.483 67.3281L122.498 64.5469H124.163ZM122.897 73L120.522 68.9688L121.233 67.6797L124.506 73H122.897ZM128.612 69.1797V68.375C128.612 67.7188 128.696 67.1432 128.862 66.6484C129.029 66.1484 129.261 65.7318 129.558 65.3984C129.855 65.0651 130.201 64.8151 130.597 64.6484C130.993 64.4766 131.417 64.3906 131.87 64.3906C132.334 64.3906 132.764 64.4766 133.159 64.6484C133.555 64.8151 133.902 65.0651 134.198 65.3984C134.501 65.7318 134.735 66.1484 134.902 66.6484C135.068 67.1432 135.152 67.7188 135.152 68.375V69.1797C135.152 69.8359 135.068 70.4141 134.902 70.9141C134.735 71.4089 134.503 71.8229 134.206 72.1562C133.909 72.4896 133.563 72.7396 133.167 72.9062C132.771 73.0729 132.344 73.1562 131.886 73.1562C131.428 73.1562 131.001 73.0729 130.605 72.9062C130.209 72.7396 129.86 72.4896 129.558 72.1562C129.261 71.8229 129.029 71.4089 128.862 70.9141C128.696 70.4141 128.612 69.8359 128.612 69.1797ZM129.995 68.375V69.1797C129.995 69.6432 130.042 70.0495 130.136 70.3984C130.23 70.7474 130.362 71.0391 130.534 71.2734C130.706 71.5078 130.907 71.6849 131.136 71.8047C131.365 71.9193 131.615 71.9766 131.886 71.9766C132.198 71.9766 132.472 71.9193 132.706 71.8047C132.946 71.6849 133.144 71.5078 133.3 71.2734C133.456 71.0391 133.573 70.7474 133.652 70.3984C133.73 70.0495 133.769 69.6432 133.769 69.1797V68.375C133.769 67.9115 133.722 67.5078 133.628 67.1641C133.534 66.8151 133.402 66.5234 133.23 66.2891C133.058 66.0495 132.855 65.8724 132.62 65.7578C132.391 65.638 132.141 65.5781 131.87 65.5781C131.605 65.5781 131.357 65.638 131.128 65.7578C130.899 65.8724 130.698 66.0495 130.527 66.2891C130.36 66.5234 130.23 66.8151 130.136 67.1641C130.042 67.5078 129.995 67.9115 129.995 68.375ZM144.234 70.8359C144.234 70.6224 144.182 70.4349 144.078 70.2734C143.974 70.112 143.802 69.9557 143.562 69.8047C143.328 69.6536 143.01 69.4922 142.609 69.3203C142.219 69.1589 141.867 69 141.555 68.8438C141.247 68.6823 140.987 68.5078 140.773 68.3203C140.56 68.1328 140.396 67.9167 140.281 67.6719C140.172 67.4219 140.117 67.1276 140.117 66.7891C140.117 66.4505 140.18 66.138 140.305 65.8516C140.435 65.5599 140.617 65.3047 140.852 65.0859C141.086 64.8672 141.367 64.6979 141.695 64.5781C142.023 64.4531 142.391 64.3906 142.797 64.3906C143.375 64.3906 143.867 64.5026 144.273 64.7266C144.68 64.9505 144.99 65.2578 145.203 65.6484C145.422 66.0339 145.531 66.4688 145.531 66.9531H144.156C144.156 66.7188 144.104 66.4974 144 66.2891C143.896 66.0807 143.742 65.9115 143.539 65.7812C143.336 65.6458 143.089 65.5781 142.797 65.5781C142.49 65.5781 142.24 65.6328 142.047 65.7422C141.854 65.8516 141.714 65.9948 141.625 66.1719C141.542 66.3438 141.5 66.5339 141.5 66.7422C141.5 66.8984 141.521 67.0339 141.562 67.1484C141.609 67.2578 141.688 67.362 141.797 67.4609C141.906 67.5547 142.055 67.6536 142.242 67.7578C142.435 67.8568 142.68 67.9714 142.977 68.1016C143.549 68.3255 144.031 68.5521 144.422 68.7812C144.812 69.0104 145.109 69.2786 145.312 69.5859C145.516 69.8932 145.617 70.2734 145.617 70.7266C145.617 71.0964 145.549 71.4323 145.414 71.7344C145.284 72.0312 145.096 72.2865 144.852 72.5C144.607 72.7135 144.312 72.8776 143.969 72.9922C143.63 73.1016 143.25 73.1562 142.828 73.1562C142.193 73.1562 141.654 73.0312 141.211 72.7812C140.773 72.526 140.44 72.1953 140.211 71.7891C139.987 71.3776 139.875 70.9375 139.875 70.4688H141.258C141.273 70.8646 141.362 71.1719 141.523 71.3906C141.69 71.6094 141.891 71.7604 142.125 71.8438C142.359 71.9271 142.594 71.9688 142.828 71.9688C143.135 71.9688 143.393 71.9245 143.602 71.8359C143.81 71.7422 143.966 71.6094 144.07 71.4375C144.18 71.2656 144.234 71.0651 144.234 70.8359ZM150.341 69.1797V68.375C150.341 67.7188 150.424 67.1432 150.591 66.6484C150.757 66.1484 150.989 65.7318 151.286 65.3984C151.583 65.0651 151.929 64.8151 152.325 64.6484C152.721 64.4766 153.145 64.3906 153.598 64.3906C154.062 64.3906 154.492 64.4766 154.888 64.6484C155.283 64.8151 155.63 65.0651 155.927 65.3984C156.229 65.7318 156.463 66.1484 156.63 66.6484C156.796 67.1432 156.88 67.7188 156.88 68.375V69.1797C156.88 69.8359 156.796 70.4141 156.63 70.9141C156.463 71.4089 156.231 71.8229 155.934 72.1562C155.638 72.4896 155.291 72.7396 154.895 72.9062C154.499 73.0729 154.072 73.1562 153.614 73.1562C153.156 73.1562 152.729 73.0729 152.333 72.9062C151.937 72.7396 151.588 72.4896 151.286 72.1562C150.989 71.8229 150.757 71.4089 150.591 70.9141C150.424 70.4141 150.341 69.8359 150.341 69.1797ZM151.723 68.375V69.1797C151.723 69.6432 151.77 70.0495 151.864 70.3984C151.958 70.7474 152.091 71.0391 152.263 71.2734C152.434 71.5078 152.635 71.6849 152.864 71.8047C153.093 71.9193 153.343 71.9766 153.614 71.9766C153.927 71.9766 154.2 71.9193 154.434 71.8047C154.674 71.6849 154.872 71.5078 155.028 71.2734C155.184 71.0391 155.302 70.7474 155.38 70.3984C155.458 70.0495 155.497 69.6432 155.497 69.1797V68.375C155.497 67.9115 155.45 67.5078 155.356 67.1641C155.263 66.8151 155.13 66.5234 154.958 66.2891C154.786 66.0495 154.583 65.8724 154.348 65.7578C154.119 65.638 153.869 65.5781 153.598 65.5781C153.333 65.5781 153.085 65.638 152.856 65.7578C152.627 65.8724 152.427 66.0495 152.255 66.2891C152.088 66.5234 151.958 66.8151 151.864 67.1641C151.77 67.5078 151.723 67.9115 151.723 68.375ZM165.963 70.8359C165.963 70.6224 165.91 70.4349 165.806 70.2734C165.702 70.112 165.53 69.9557 165.291 69.8047C165.056 69.6536 164.739 69.4922 164.338 69.3203C163.947 69.1589 163.595 69 163.283 68.8438C162.976 68.6823 162.715 68.5078 162.502 68.3203C162.288 68.1328 162.124 67.9167 162.009 67.6719C161.9 67.4219 161.845 67.1276 161.845 66.7891C161.845 66.4505 161.908 66.138 162.033 65.8516C162.163 65.5599 162.345 65.3047 162.58 65.0859C162.814 64.8672 163.095 64.6979 163.423 64.5781C163.752 64.4531 164.119 64.3906 164.525 64.3906C165.103 64.3906 165.595 64.5026 166.002 64.7266C166.408 64.9505 166.718 65.2578 166.931 65.6484C167.15 66.0339 167.259 66.4688 167.259 66.9531H165.884C165.884 66.7188 165.832 66.4974 165.728 66.2891C165.624 66.0807 165.47 65.9115 165.267 65.7812C165.064 65.6458 164.817 65.5781 164.525 65.5781C164.218 65.5781 163.968 65.6328 163.775 65.7422C163.582 65.8516 163.442 65.9948 163.353 66.1719C163.27 66.3438 163.228 66.5339 163.228 66.7422C163.228 66.8984 163.249 67.0339 163.291 67.1484C163.338 67.2578 163.416 67.362 163.525 67.4609C163.634 67.5547 163.783 67.6536 163.97 67.7578C164.163 67.8568 164.408 67.9714 164.705 68.1016C165.278 68.3255 165.759 68.5521 166.15 68.7812C166.541 69.0104 166.838 69.2786 167.041 69.5859C167.244 69.8932 167.345 70.2734 167.345 70.7266C167.345 71.0964 167.278 71.4323 167.142 71.7344C167.012 72.0312 166.824 72.2865 166.58 72.5C166.335 72.7135 166.041 72.8776 165.697 72.9922C165.358 73.1016 164.978 73.1562 164.556 73.1562C163.921 73.1562 163.382 73.0312 162.939 72.7812C162.502 72.526 162.168 72.1953 161.939 71.7891C161.715 71.3776 161.603 70.9375 161.603 70.4688H162.986C163.002 70.8646 163.09 71.1719 163.252 71.3906C163.418 71.6094 163.619 71.7604 163.853 71.8438C164.088 71.9271 164.322 71.9688 164.556 71.9688C164.864 71.9688 165.121 71.9245 165.33 71.8359C165.538 71.7422 165.694 71.6094 165.798 71.4375C165.908 71.2656 165.963 71.0651 165.963 70.8359ZM174.319 72.125L176.202 64.5469H177.67L174.881 74.3047C174.814 74.513 174.722 74.737 174.608 74.9766C174.498 75.2214 174.358 75.4531 174.186 75.6719C174.014 75.8906 173.808 76.0677 173.569 76.2031C173.329 76.3438 173.048 76.4141 172.725 76.4141C172.626 76.4141 172.498 76.3984 172.342 76.3672C172.191 76.3359 172.082 76.3099 172.014 76.2891V75.1172C172.045 75.1224 172.095 75.1276 172.162 75.1328C172.23 75.1432 172.28 75.1484 172.311 75.1484C172.582 75.1484 172.811 75.1042 172.998 75.0156C173.191 74.9323 173.355 74.7891 173.491 74.5859C173.626 74.388 173.741 74.1146 173.834 73.7656L174.319 72.125ZM173.1 64.5469L174.78 71.1094L175.139 72.6328L174.155 73.1641L171.592 64.5469H173.1ZM186.245 71.5547V66.9688C186.245 66.6354 186.193 66.3672 186.089 66.1641C185.99 65.9609 185.839 65.8125 185.636 65.7188C185.438 65.625 185.188 65.5781 184.886 65.5781C184.594 65.5781 184.342 65.638 184.128 65.7578C183.92 65.8776 183.758 66.0365 183.644 66.2344C183.534 66.4323 183.48 66.651 183.48 66.8906H182.097C182.097 66.5885 182.162 66.2891 182.292 65.9922C182.428 65.6953 182.62 65.4271 182.87 65.1875C183.12 64.9427 183.42 64.75 183.769 64.6094C184.123 64.4635 184.519 64.3906 184.956 64.3906C185.477 64.3906 185.938 64.4766 186.339 64.6484C186.74 64.8151 187.055 65.0885 187.284 65.4688C187.514 65.849 187.628 66.3542 187.628 66.9844V71.1562C187.628 71.4375 187.649 71.737 187.691 72.0547C187.738 72.3724 187.803 72.6458 187.886 72.875V73H186.456C186.389 72.8333 186.336 72.612 186.3 72.3359C186.264 72.0547 186.245 71.7943 186.245 71.5547ZM186.464 67.875L186.48 68.8906H185.519C185.191 68.8906 184.891 68.9271 184.62 69C184.355 69.0729 184.126 69.1797 183.933 69.3203C183.74 69.4557 183.592 69.625 183.488 69.8281C183.389 70.0312 183.339 70.263 183.339 70.5234C183.339 70.862 183.386 71.1328 183.48 71.3359C183.573 71.5339 183.714 71.6771 183.902 71.7656C184.089 71.8542 184.326 71.8984 184.613 71.8984C184.961 71.8984 185.269 71.8177 185.534 71.6562C185.8 71.4948 186.006 71.2995 186.152 71.0703C186.303 70.8411 186.373 70.6276 186.363 70.4297L186.667 71.0781C186.646 71.2812 186.579 71.5026 186.464 71.7422C186.355 71.9766 186.201 72.2031 186.003 72.4219C185.805 72.6354 185.571 72.8125 185.3 72.9531C185.034 73.0885 184.735 73.1562 184.402 73.1562C183.912 73.1562 183.482 73.0625 183.113 72.875C182.748 72.6875 182.464 72.4115 182.261 72.0469C182.058 71.6823 181.956 71.2318 181.956 70.6953C181.956 70.2891 182.027 69.9141 182.167 69.5703C182.308 69.2266 182.516 68.9297 182.792 68.6797C183.068 68.4245 183.415 68.2266 183.831 68.0859C184.253 67.9453 184.74 67.875 185.292 67.875H186.464ZM194.461 61V73H193.086V61H194.461ZM209.486 73H207.548L207.564 71.7734H209.486C210.168 71.7734 210.723 71.6432 211.15 71.3828C211.577 71.1172 211.892 70.7266 212.095 70.2109C212.298 69.6901 212.4 69.0469 212.4 68.2812V66.3359C212.4 65.7318 212.343 65.2109 212.228 64.7734C212.114 64.3359 211.942 63.9766 211.713 63.6953C211.483 63.4141 211.194 63.2057 210.845 63.0703C210.496 62.9297 210.088 62.8594 209.619 62.8594H207.509V61.625H209.619C210.259 61.625 210.838 61.7266 211.353 61.9297C211.869 62.1276 212.311 62.4271 212.681 62.8281C213.051 63.224 213.332 63.7161 213.525 64.3047C213.723 64.8932 213.822 65.5755 213.822 66.3516V68.2812C213.822 69.0573 213.723 69.7396 213.525 70.3281C213.332 70.9167 213.048 71.4089 212.673 71.8047C212.298 72.2005 211.843 72.5 211.306 72.7031C210.775 72.901 210.168 73 209.486 73ZM208.345 61.625V73H206.908V61.625H208.345ZM222.084 73.1562C221.579 73.1562 221.123 73.0807 220.717 72.9297C220.311 72.7786 219.965 72.5495 219.678 72.2422C219.392 71.9297 219.173 71.5365 219.022 71.0625C218.871 70.5885 218.795 70.0286 218.795 69.3828V68.4297C218.795 67.6849 218.881 67.0547 219.053 66.5391C219.23 66.0234 219.467 65.6094 219.764 65.2969C220.061 64.9792 220.397 64.75 220.772 64.6094C221.147 64.4635 221.532 64.3906 221.928 64.3906C222.459 64.3906 222.913 64.4766 223.288 64.6484C223.663 64.8203 223.967 65.0755 224.202 65.4141C224.436 65.7526 224.608 66.1693 224.717 66.6641C224.832 67.1589 224.889 67.7292 224.889 68.375V69.1797H219.608V68H223.506V67.8047C223.485 67.3672 223.426 66.9818 223.327 66.6484C223.233 66.3151 223.077 66.0547 222.858 65.8672C222.639 65.6745 222.329 65.5781 221.928 65.5781C221.673 65.5781 221.436 65.6224 221.217 65.7109C221.004 65.7943 220.819 65.9427 220.663 66.1562C220.511 66.3646 220.392 66.6536 220.303 67.0234C220.22 67.3932 220.178 67.862 220.178 68.4297V69.3828C220.178 69.8359 220.22 70.2266 220.303 70.5547C220.392 70.8776 220.519 71.1458 220.686 71.3594C220.858 71.5677 221.066 71.724 221.311 71.8281C221.561 71.9271 221.845 71.9766 222.163 71.9766C222.626 71.9766 223.009 71.888 223.311 71.7109C223.613 71.5286 223.876 71.2969 224.1 71.0156L224.827 71.8828C224.676 72.0964 224.478 72.3021 224.233 72.5C223.993 72.6927 223.696 72.8516 223.342 72.9766C222.993 73.0964 222.574 73.1562 222.084 73.1562ZM233.863 70.8359C233.863 70.6224 233.81 70.4349 233.706 70.2734C233.602 70.112 233.43 69.9557 233.191 69.8047C232.956 69.6536 232.639 69.4922 232.238 69.3203C231.847 69.1589 231.495 69 231.183 68.8438C230.876 68.6823 230.615 68.5078 230.402 68.3203C230.188 68.1328 230.024 67.9167 229.909 67.6719C229.8 67.4219 229.745 67.1276 229.745 66.7891C229.745 66.4505 229.808 66.138 229.933 65.8516C230.063 65.5599 230.245 65.3047 230.48 65.0859C230.714 64.8672 230.995 64.6979 231.323 64.5781C231.652 64.4531 232.019 64.3906 232.425 64.3906C233.003 64.3906 233.495 64.5026 233.902 64.7266C234.308 64.9505 234.618 65.2578 234.831 65.6484C235.05 66.0339 235.159 66.4688 235.159 66.9531H233.784C233.784 66.7188 233.732 66.4974 233.628 66.2891C233.524 66.0807 233.37 65.9115 233.167 65.7812C232.964 65.6458 232.717 65.5781 232.425 65.5781C232.118 65.5781 231.868 65.6328 231.675 65.7422C231.482 65.8516 231.342 65.9948 231.253 66.1719C231.17 66.3438 231.128 66.5339 231.128 66.7422C231.128 66.8984 231.149 67.0339 231.191 67.1484C231.238 67.2578 231.316 67.362 231.425 67.4609C231.534 67.5547 231.683 67.6536 231.87 67.7578C232.063 67.8568 232.308 67.9714 232.605 68.1016C233.178 68.3255 233.659 68.5521 234.05 68.7812C234.441 69.0104 234.738 69.2786 234.941 69.5859C235.144 69.8932 235.245 70.2734 235.245 70.7266C235.245 71.0964 235.178 71.4323 235.042 71.7344C234.912 72.0312 234.724 72.2865 234.48 72.5C234.235 72.7135 233.941 72.8776 233.597 72.9922C233.258 73.1016 232.878 73.1562 232.456 73.1562C231.821 73.1562 231.282 73.0312 230.839 72.7812C230.402 72.526 230.068 72.1953 229.839 71.7891C229.615 71.3776 229.503 70.9375 229.503 70.4688H230.886C230.902 70.8646 230.99 71.1719 231.152 71.3906C231.318 71.6094 231.519 71.7604 231.753 71.8438C231.988 71.9271 232.222 71.9688 232.456 71.9688C232.764 71.9688 233.021 71.9245 233.23 71.8359C233.438 71.7422 233.594 71.6094 233.698 71.4375C233.808 71.2656 233.863 71.0651 233.863 70.8359ZM243.344 64.5469V65.6562H239.398V64.5469H243.344ZM240.688 62.4922H242.07V70.9062C242.07 71.1927 242.104 71.4089 242.172 71.5547C242.245 71.7005 242.336 71.7969 242.445 71.8438C242.555 71.8906 242.672 71.9141 242.797 71.9141C242.891 71.9141 242.995 71.9036 243.109 71.8828C243.224 71.8568 243.302 71.8359 243.344 71.8203L243.336 73C243.242 73.0365 243.117 73.0703 242.961 73.1016C242.805 73.138 242.607 73.1562 242.367 73.1562C242.07 73.1562 241.794 73.0859 241.539 72.9453C241.284 72.8047 241.078 72.5703 240.922 72.2422C240.766 71.9089 240.688 71.4609 240.688 70.8984V62.4922ZM251.216 73.1562C250.71 73.1562 250.255 73.0807 249.848 72.9297C249.442 72.7786 249.096 72.5495 248.809 72.2422C248.523 71.9297 248.304 71.5365 248.153 71.0625C248.002 70.5885 247.927 70.0286 247.927 69.3828V68.4297C247.927 67.6849 248.012 67.0547 248.184 66.5391C248.361 66.0234 248.598 65.6094 248.895 65.2969C249.192 64.9792 249.528 64.75 249.903 64.6094C250.278 64.4635 250.664 64.3906 251.059 64.3906C251.591 64.3906 252.044 64.4766 252.419 64.6484C252.794 64.8203 253.098 65.0755 253.333 65.4141C253.567 65.7526 253.739 66.1693 253.848 66.6641C253.963 67.1589 254.02 67.7292 254.02 68.375V69.1797H248.739V68H252.637V67.8047C252.617 67.3672 252.557 66.9818 252.458 66.6484C252.364 66.3151 252.208 66.0547 251.989 65.8672C251.77 65.6745 251.46 65.5781 251.059 65.5781C250.804 65.5781 250.567 65.6224 250.348 65.7109C250.135 65.7943 249.95 65.9427 249.794 66.1562C249.643 66.3646 249.523 66.6536 249.434 67.0234C249.351 67.3932 249.309 67.862 249.309 68.4297V69.3828C249.309 69.8359 249.351 70.2266 249.434 70.5547C249.523 70.8776 249.651 71.1458 249.817 71.3594C249.989 71.5677 250.197 71.724 250.442 71.8281C250.692 71.9271 250.976 71.9766 251.294 71.9766C251.757 71.9766 252.14 71.888 252.442 71.7109C252.744 71.5286 253.007 71.2969 253.231 71.0156L253.958 71.8828C253.807 72.0964 253.609 72.3021 253.364 72.5C253.124 72.6927 252.828 72.8516 252.473 72.9766C252.124 73.0964 251.705 73.1562 251.216 73.1562ZM260.283 61V73H258.9V61H260.283ZM264.572 64.5469L261.564 68.4922L259.705 70.6328L259.611 69.0938L260.892 67.3281L262.908 64.5469H264.572ZM263.306 73L260.931 68.9688L261.642 67.6797L264.916 73H263.306ZM279.995 68.5391H277.511V67.3125H279.995C280.464 67.3125 280.842 67.2188 281.128 67.0312C281.42 66.8438 281.631 66.5833 281.761 66.25C281.896 65.9167 281.964 65.5365 281.964 65.1094C281.964 64.7188 281.896 64.3516 281.761 64.0078C281.631 63.6641 281.42 63.388 281.128 63.1797C280.842 62.9661 280.464 62.8594 279.995 62.8594H277.808V73H276.37V61.625H279.995C280.73 61.625 281.349 61.7734 281.855 62.0703C282.36 62.3672 282.743 62.7786 283.003 63.3047C283.269 63.8255 283.402 64.4219 283.402 65.0938C283.402 65.8229 283.269 66.4453 283.003 66.9609C282.743 67.4766 282.36 67.8698 281.855 68.1406C281.349 68.4062 280.73 68.5391 279.995 68.5391ZM289.641 65.875V73H288.258V64.5469H289.594L289.641 65.875ZM291.742 64.5L291.75 65.8438C291.635 65.8177 291.531 65.8021 291.438 65.7969C291.349 65.7865 291.245 65.7812 291.125 65.7812C290.865 65.7812 290.635 65.8333 290.438 65.9375C290.245 66.0417 290.078 66.1875 289.938 66.375C289.797 66.5625 289.685 66.7865 289.602 67.0469C289.518 67.3021 289.461 67.5833 289.43 67.8906L289.07 68.125C289.07 67.6146 289.109 67.1354 289.188 66.6875C289.271 66.2396 289.398 65.8438 289.57 65.5C289.742 65.151 289.961 64.8802 290.227 64.6875C290.497 64.4896 290.82 64.3906 291.195 64.3906C291.279 64.3906 291.38 64.4036 291.5 64.4297C291.625 64.4505 291.706 64.474 291.742 64.5ZM295.887 69.1797V68.375C295.887 67.7188 295.971 67.1432 296.137 66.6484C296.304 66.1484 296.536 65.7318 296.833 65.3984C297.13 65.0651 297.476 64.8151 297.872 64.6484C298.268 64.4766 298.692 64.3906 299.145 64.3906C299.609 64.3906 300.039 64.4766 300.434 64.6484C300.83 64.8151 301.177 65.0651 301.473 65.3984C301.776 65.7318 302.01 66.1484 302.177 66.6484C302.343 67.1432 302.427 67.7188 302.427 68.375V69.1797C302.427 69.8359 302.343 70.4141 302.177 70.9141C302.01 71.4089 301.778 71.8229 301.481 72.1562C301.184 72.4896 300.838 72.7396 300.442 72.9062C300.046 73.0729 299.619 73.1562 299.161 73.1562C298.703 73.1562 298.276 73.0729 297.88 72.9062C297.484 72.7396 297.135 72.4896 296.833 72.1562C296.536 71.8229 296.304 71.4089 296.137 70.9141C295.971 70.4141 295.887 69.8359 295.887 69.1797ZM297.27 68.375V69.1797C297.27 69.6432 297.317 70.0495 297.411 70.3984C297.505 70.7474 297.637 71.0391 297.809 71.2734C297.981 71.5078 298.182 71.6849 298.411 71.8047C298.64 71.9193 298.89 71.9766 299.161 71.9766C299.473 71.9766 299.747 71.9193 299.981 71.8047C300.221 71.6849 300.419 71.5078 300.575 71.2734C300.731 71.0391 300.848 70.7474 300.927 70.3984C301.005 70.0495 301.044 69.6432 301.044 69.1797V68.375C301.044 67.9115 300.997 67.5078 300.903 67.1641C300.809 66.8151 300.677 66.5234 300.505 66.2891C300.333 66.0495 300.13 65.8724 299.895 65.7578C299.666 65.638 299.416 65.5781 299.145 65.5781C298.88 65.5781 298.632 65.638 298.403 65.7578C298.174 65.8724 297.973 66.0495 297.802 66.2891C297.635 66.5234 297.505 66.8151 297.411 67.1641C297.317 67.5078 297.27 67.9115 297.27 68.375ZM307.439 64.5469H308.814V74.0078C308.814 74.5234 308.746 74.9609 308.611 75.3203C308.481 75.6797 308.278 75.9505 308.002 76.1328C307.731 76.3203 307.384 76.4141 306.962 76.4141C306.848 76.4141 306.715 76.401 306.564 76.375C306.418 76.349 306.293 76.3177 306.189 76.2812V75.1172C306.278 75.138 306.374 75.1536 306.478 75.1641C306.582 75.1797 306.668 75.1875 306.736 75.1875C306.887 75.1875 307.015 75.1484 307.119 75.0703C307.223 74.9922 307.301 74.8672 307.353 74.6953C307.41 74.5234 307.439 74.2943 307.439 74.0078V64.5469ZM307.314 62.3047C307.314 62.0703 307.379 61.8724 307.509 61.7109C307.645 61.5495 307.84 61.4688 308.095 61.4688C308.356 61.4688 308.551 61.5495 308.681 61.7109C308.817 61.8724 308.884 62.0703 308.884 62.3047C308.884 62.5286 308.817 62.7214 308.681 62.8828C308.551 63.0391 308.356 63.1172 308.095 63.1172C307.84 63.1172 307.645 63.0391 307.509 62.8828C307.379 62.7214 307.314 62.5286 307.314 62.3047ZM317.225 73.1562C316.72 73.1562 316.264 73.0807 315.858 72.9297C315.452 72.7786 315.105 72.5495 314.819 72.2422C314.532 71.9297 314.314 71.5365 314.163 71.0625C314.011 70.5885 313.936 70.0286 313.936 69.3828V68.4297C313.936 67.6849 314.022 67.0547 314.194 66.5391C314.371 66.0234 314.608 65.6094 314.905 65.2969C315.202 64.9792 315.538 64.75 315.913 64.6094C316.288 64.4635 316.673 64.3906 317.069 64.3906C317.6 64.3906 318.053 64.4766 318.428 64.6484C318.803 64.8203 319.108 65.0755 319.342 65.4141C319.577 65.7526 319.748 66.1693 319.858 66.6641C319.972 67.1589 320.03 67.7292 320.03 68.375V69.1797H314.748V68H318.647V67.8047C318.626 67.3672 318.566 66.9818 318.467 66.6484C318.373 66.3151 318.217 66.0547 317.998 65.8672C317.78 65.6745 317.47 65.5781 317.069 65.5781C316.814 65.5781 316.577 65.6224 316.358 65.7109C316.144 65.7943 315.959 65.9427 315.803 66.1562C315.652 66.3646 315.532 66.6536 315.444 67.0234C315.36 67.3932 315.319 67.862 315.319 68.4297V69.3828C315.319 69.8359 315.36 70.2266 315.444 70.5547C315.532 70.8776 315.66 71.1458 315.827 71.3594C315.998 71.5677 316.207 71.724 316.452 71.8281C316.702 71.9271 316.985 71.9766 317.303 71.9766C317.767 71.9766 318.149 71.888 318.452 71.7109C318.754 71.5286 319.017 71.2969 319.241 71.0156L319.967 71.8828C319.816 72.0964 319.618 72.3021 319.373 72.5C319.134 72.6927 318.837 72.8516 318.483 72.9766C318.134 73.0964 317.715 73.1562 317.225 73.1562ZM329.003 70.8359C329.003 70.6224 328.951 70.4349 328.847 70.2734C328.743 70.112 328.571 69.9557 328.331 69.8047C328.097 69.6536 327.779 69.4922 327.378 69.3203C326.988 69.1589 326.636 69 326.323 68.8438C326.016 68.6823 325.756 68.5078 325.542 68.3203C325.329 68.1328 325.165 67.9167 325.05 67.6719C324.941 67.4219 324.886 67.1276 324.886 66.7891C324.886 66.4505 324.948 66.138 325.073 65.8516C325.204 65.5599 325.386 65.3047 325.62 65.0859C325.855 64.8672 326.136 64.6979 326.464 64.5781C326.792 64.4531 327.159 64.3906 327.566 64.3906C328.144 64.3906 328.636 64.5026 329.042 64.7266C329.448 64.9505 329.758 65.2578 329.972 65.6484C330.191 66.0339 330.3 66.4688 330.3 66.9531H328.925C328.925 66.7188 328.873 66.4974 328.769 66.2891C328.665 66.0807 328.511 65.9115 328.308 65.7812C328.105 65.6458 327.857 65.5781 327.566 65.5781C327.258 65.5781 327.008 65.6328 326.816 65.7422C326.623 65.8516 326.482 65.9948 326.394 66.1719C326.31 66.3438 326.269 66.5339 326.269 66.7422C326.269 66.8984 326.29 67.0339 326.331 67.1484C326.378 67.2578 326.456 67.362 326.566 67.4609C326.675 67.5547 326.823 67.6536 327.011 67.7578C327.204 67.8568 327.448 67.9714 327.745 68.1016C328.318 68.3255 328.8 68.5521 329.191 68.7812C329.581 69.0104 329.878 69.2786 330.081 69.5859C330.284 69.8932 330.386 70.2734 330.386 70.7266C330.386 71.0964 330.318 71.4323 330.183 71.7344C330.053 72.0312 329.865 72.2865 329.62 72.5C329.376 72.7135 329.081 72.8776 328.738 72.9922C328.399 73.1016 328.019 73.1562 327.597 73.1562C326.961 73.1562 326.422 73.0312 325.98 72.7812C325.542 72.526 325.209 72.1953 324.98 71.7891C324.756 71.3776 324.644 70.9375 324.644 70.4688H326.027C326.042 70.8646 326.131 71.1719 326.292 71.3906C326.459 71.6094 326.659 71.7604 326.894 71.8438C327.128 71.9271 327.363 71.9688 327.597 71.9688C327.904 71.9688 328.162 71.9245 328.37 71.8359C328.579 71.7422 328.735 71.6094 328.839 71.4375C328.948 71.2656 329.003 71.0651 329.003 70.8359ZM336.883 64.5469V73H335.508V64.5469H336.883ZM335.43 62.3047C335.43 62.0703 335.495 61.8724 335.625 61.7109C335.755 61.5495 335.951 61.4688 336.211 61.4688C336.471 61.4688 336.667 61.5495 336.797 61.7109C336.932 61.8724 337 62.0703 337 62.3047C337 62.5286 336.932 62.7214 336.797 62.8828C336.667 63.0391 336.471 63.1172 336.211 63.1172C335.951 63.1172 335.755 63.0391 335.625 62.8828C335.495 62.7214 335.43 62.5286 335.43 62.3047Z" fill="black"/>
</svg>
