<svg width="161" height="184" viewBox="0 0 161 184" fill="none" xmlns="http://www.w3.org/2000/svg">
<path d="M4.85156 142.539H2.36719V141.312H4.85156C5.32031 141.312 5.69792 141.219 5.98438 141.031C6.27604 140.844 6.48698 140.583 6.61719 140.25C6.7526 139.917 6.82031 139.536 6.82031 139.109C6.82031 138.719 6.7526 138.352 6.61719 138.008C6.48698 137.664 6.27604 137.388 5.98438 137.18C5.69792 136.966 5.32031 136.859 4.85156 136.859H2.66406V147H1.22656V135.625H4.85156C5.58594 135.625 6.20573 135.773 6.71094 136.07C7.21615 136.367 7.59896 136.779 7.85938 137.305C8.125 137.826 8.25781 138.422 8.25781 139.094C8.25781 139.823 8.125 140.445 7.85938 140.961C7.59896 141.477 7.21615 141.87 6.71094 142.141C6.20573 142.406 5.58594 142.539 4.85156 142.539ZM17.2156 144.836C17.2156 144.622 17.1635 144.435 17.0594 144.273C16.9552 144.112 16.7833 143.956 16.5437 143.805C16.3094 143.654 15.9917 143.492 15.5906 143.32C15.2 143.159 14.8484 143 14.5359 142.844C14.2286 142.682 13.9682 142.508 13.7547 142.32C13.5411 142.133 13.3771 141.917 13.2625 141.672C13.1531 141.422 13.0984 141.128 13.0984 140.789C13.0984 140.451 13.1609 140.138 13.2859 139.852C13.4161 139.56 13.5984 139.305 13.8328 139.086C14.0672 138.867 14.3484 138.698 14.6766 138.578C15.0047 138.453 15.3719 138.391 15.7781 138.391C16.3562 138.391 16.8484 138.503 17.2547 138.727C17.6609 138.951 17.9708 139.258 18.1844 139.648C18.4031 140.034 18.5125 140.469 18.5125 140.953H17.1375C17.1375 140.719 17.0854 140.497 16.9812 140.289C16.8771 140.081 16.7234 139.911 16.5203 139.781C16.3172 139.646 16.0698 139.578 15.7781 139.578C15.4708 139.578 15.2208 139.633 15.0281 139.742C14.8354 139.852 14.6948 139.995 14.6062 140.172C14.5229 140.344 14.4812 140.534 14.4812 140.742C14.4812 140.898 14.5021 141.034 14.5437 141.148C14.5906 141.258 14.6687 141.362 14.7781 141.461C14.8875 141.555 15.0359 141.654 15.2234 141.758C15.4161 141.857 15.6609 141.971 15.9578 142.102C16.5307 142.326 17.0125 142.552 17.4031 142.781C17.7937 143.01 18.0906 143.279 18.2937 143.586C18.4969 143.893 18.5984 144.273 18.5984 144.727C18.5984 145.096 18.5307 145.432 18.3953 145.734C18.2651 146.031 18.0776 146.286 17.8328 146.5C17.588 146.714 17.2937 146.878 16.95 146.992C16.6115 147.102 16.2312 147.156 15.8094 147.156C15.174 147.156 14.6349 147.031 14.1922 146.781C13.7547 146.526 13.4214 146.195 13.1922 145.789C12.9682 145.378 12.8562 144.938 12.8562 144.469H14.2391C14.2547 144.865 14.3432 145.172 14.5047 145.391C14.6714 145.609 14.8719 145.76 15.1062 145.844C15.3406 145.927 15.575 145.969 15.8094 145.969C16.1167 145.969 16.3745 145.924 16.5828 145.836C16.7911 145.742 16.9474 145.609 17.0516 145.438C17.1609 145.266 17.2156 145.065 17.2156 144.836ZM25.0953 138.547V147H23.7203V138.547H25.0953ZM23.6422 136.305C23.6422 136.07 23.7073 135.872 23.8375 135.711C23.9677 135.549 24.163 135.469 24.4234 135.469C24.6839 135.469 24.8792 135.549 25.0094 135.711C25.1448 135.872 25.2125 136.07 25.2125 136.305C25.2125 136.529 25.1448 136.721 25.0094 136.883C24.8792 137.039 24.6839 137.117 24.4234 137.117C24.163 137.117 23.9677 137.039 23.8375 136.883C23.7073 136.721 23.6422 136.529 23.6422 136.305ZM31.8734 135V147H30.4906V135H31.8734ZM36.1625 138.547L33.1547 142.492L31.2953 144.633L31.2016 143.094L32.4828 141.328L34.4984 138.547H36.1625ZM34.8969 147L32.5219 142.969L33.2328 141.68L36.5063 147H34.8969ZM40.6125 143.18V142.375C40.6125 141.719 40.6958 141.143 40.8625 140.648C41.0292 140.148 41.2609 139.732 41.5578 139.398C41.8547 139.065 42.201 138.815 42.5969 138.648C42.9927 138.477 43.4172 138.391 43.8703 138.391C44.3339 138.391 44.7635 138.477 45.1594 138.648C45.5552 138.815 45.9016 139.065 46.1984 139.398C46.5005 139.732 46.7349 140.148 46.9016 140.648C47.0682 141.143 47.1516 141.719 47.1516 142.375V143.18C47.1516 143.836 47.0682 144.414 46.9016 144.914C46.7349 145.409 46.5031 145.823 46.2062 146.156C45.9094 146.49 45.563 146.74 45.1672 146.906C44.7714 147.073 44.3443 147.156 43.8859 147.156C43.4276 147.156 43.0005 147.073 42.6047 146.906C42.2089 146.74 41.8599 146.49 41.5578 146.156C41.2609 145.823 41.0292 145.409 40.8625 144.914C40.6958 144.414 40.6125 143.836 40.6125 143.18ZM41.9953 142.375V143.18C41.9953 143.643 42.0422 144.049 42.1359 144.398C42.2297 144.747 42.3625 145.039 42.5344 145.273C42.7062 145.508 42.9068 145.685 43.1359 145.805C43.3651 145.919 43.6151 145.977 43.8859 145.977C44.1984 145.977 44.4719 145.919 44.7062 145.805C44.9458 145.685 45.1437 145.508 45.3 145.273C45.4562 145.039 45.5734 144.747 45.6516 144.398C45.7297 144.049 45.7687 143.643 45.7687 143.18V142.375C45.7687 141.911 45.7219 141.508 45.6281 141.164C45.5344 140.815 45.4016 140.523 45.2297 140.289C45.0578 140.049 44.8547 139.872 44.6203 139.758C44.3911 139.638 44.1411 139.578 43.8703 139.578C43.6047 139.578 43.3573 139.638 43.1281 139.758C42.899 139.872 42.6984 140.049 42.5266 140.289C42.3599 140.523 42.2297 140.815 42.1359 141.164C42.0422 141.508 41.9953 141.911 41.9953 142.375ZM56.2344 144.836C56.2344 144.622 56.1823 144.435 56.0781 144.273C55.974 144.112 55.8021 143.956 55.5625 143.805C55.3281 143.654 55.0104 143.492 54.6094 143.32C54.2188 143.159 53.8672 143 53.5547 142.844C53.2474 142.682 52.987 142.508 52.7734 142.32C52.5599 142.133 52.3958 141.917 52.2812 141.672C52.1719 141.422 52.1172 141.128 52.1172 140.789C52.1172 140.451 52.1797 140.138 52.3047 139.852C52.4349 139.56 52.6172 139.305 52.8516 139.086C53.0859 138.867 53.3672 138.698 53.6953 138.578C54.0234 138.453 54.3906 138.391 54.7969 138.391C55.375 138.391 55.8672 138.503 56.2734 138.727C56.6797 138.951 56.9896 139.258 57.2031 139.648C57.4219 140.034 57.5312 140.469 57.5312 140.953H56.1562C56.1562 140.719 56.1042 140.497 56 140.289C55.8958 140.081 55.7422 139.911 55.5391 139.781C55.3359 139.646 55.0885 139.578 54.7969 139.578C54.4896 139.578 54.2396 139.633 54.0469 139.742C53.8542 139.852 53.7135 139.995 53.625 140.172C53.5417 140.344 53.5 140.534 53.5 140.742C53.5 140.898 53.5208 141.034 53.5625 141.148C53.6094 141.258 53.6875 141.362 53.7969 141.461C53.9062 141.555 54.0547 141.654 54.2422 141.758C54.4349 141.857 54.6797 141.971 54.9766 142.102C55.5495 142.326 56.0312 142.552 56.4219 142.781C56.8125 143.01 57.1094 143.279 57.3125 143.586C57.5156 143.893 57.6172 144.273 57.6172 144.727C57.6172 145.096 57.5495 145.432 57.4141 145.734C57.2839 146.031 57.0964 146.286 56.8516 146.5C56.6068 146.714 56.3125 146.878 55.9688 146.992C55.6302 147.102 55.25 147.156 54.8281 147.156C54.1927 147.156 53.6536 147.031 53.2109 146.781C52.7734 146.526 52.4401 146.195 52.2109 145.789C51.987 145.378 51.875 144.938 51.875 144.469H53.2578C53.2734 144.865 53.362 145.172 53.5234 145.391C53.6901 145.609 53.8906 145.76 54.125 145.844C54.3594 145.927 54.5938 145.969 54.8281 145.969C55.1354 145.969 55.3932 145.924 55.6016 145.836C55.8099 145.742 55.9661 145.609 56.0703 145.438C56.1797 145.266 56.2344 145.065 56.2344 144.836ZM62.3406 143.18V142.375C62.3406 141.719 62.424 141.143 62.5906 140.648C62.7573 140.148 62.9891 139.732 63.2859 139.398C63.5828 139.065 63.9292 138.815 64.325 138.648C64.7208 138.477 65.1453 138.391 65.5984 138.391C66.062 138.391 66.4917 138.477 66.8875 138.648C67.2833 138.815 67.6297 139.065 67.9266 139.398C68.2286 139.732 68.463 140.148 68.6297 140.648C68.7964 141.143 68.8797 141.719 68.8797 142.375V143.18C68.8797 143.836 68.7964 144.414 68.6297 144.914C68.463 145.409 68.2313 145.823 67.9344 146.156C67.6375 146.49 67.2911 146.74 66.8953 146.906C66.4995 147.073 66.0724 147.156 65.6141 147.156C65.1557 147.156 64.7286 147.073 64.3328 146.906C63.937 146.74 63.588 146.49 63.2859 146.156C62.9891 145.823 62.7573 145.409 62.5906 144.914C62.424 144.414 62.3406 143.836 62.3406 143.18ZM63.7234 142.375V143.18C63.7234 143.643 63.7703 144.049 63.8641 144.398C63.9578 144.747 64.0906 145.039 64.2625 145.273C64.4344 145.508 64.6349 145.685 64.8641 145.805C65.0932 145.919 65.3432 145.977 65.6141 145.977C65.9266 145.977 66.2 145.919 66.4344 145.805C66.674 145.685 66.8719 145.508 67.0281 145.273C67.1844 145.039 67.3016 144.747 67.3797 144.398C67.4578 144.049 67.4969 143.643 67.4969 143.18V142.375C67.4969 141.911 67.45 141.508 67.3563 141.164C67.2625 140.815 67.1297 140.523 66.9578 140.289C66.7859 140.049 66.5828 139.872 66.3484 139.758C66.1193 139.638 65.8693 139.578 65.5984 139.578C65.3328 139.578 65.0854 139.638 64.8563 139.758C64.6271 139.872 64.4266 140.049 64.2547 140.289C64.088 140.523 63.9578 140.815 63.8641 141.164C63.7703 141.508 63.7234 141.911 63.7234 142.375ZM77.9625 144.836C77.9625 144.622 77.9104 144.435 77.8063 144.273C77.7021 144.112 77.5302 143.956 77.2906 143.805C77.0563 143.654 76.7385 143.492 76.3375 143.32C75.9469 143.159 75.5953 143 75.2828 142.844C74.9755 142.682 74.7151 142.508 74.5016 142.32C74.288 142.133 74.124 141.917 74.0094 141.672C73.9 141.422 73.8453 141.128 73.8453 140.789C73.8453 140.451 73.9078 140.138 74.0328 139.852C74.163 139.56 74.3453 139.305 74.5797 139.086C74.8141 138.867 75.0953 138.698 75.4234 138.578C75.7516 138.453 76.1188 138.391 76.525 138.391C77.1031 138.391 77.5953 138.503 78.0016 138.727C78.4078 138.951 78.7177 139.258 78.9313 139.648C79.15 140.034 79.2594 140.469 79.2594 140.953H77.8844C77.8844 140.719 77.8323 140.497 77.7281 140.289C77.624 140.081 77.4703 139.911 77.2672 139.781C77.0641 139.646 76.8167 139.578 76.525 139.578C76.2177 139.578 75.9677 139.633 75.775 139.742C75.5823 139.852 75.4417 139.995 75.3531 140.172C75.2698 140.344 75.2281 140.534 75.2281 140.742C75.2281 140.898 75.249 141.034 75.2906 141.148C75.3375 141.258 75.4156 141.362 75.525 141.461C75.6344 141.555 75.7828 141.654 75.9703 141.758C76.163 141.857 76.4078 141.971 76.7047 142.102C77.2776 142.326 77.7594 142.552 78.15 142.781C78.5406 143.01 78.8375 143.279 79.0406 143.586C79.2438 143.893 79.3453 144.273 79.3453 144.727C79.3453 145.096 79.2776 145.432 79.1422 145.734C79.012 146.031 78.8245 146.286 78.5797 146.5C78.3349 146.714 78.0406 146.878 77.6969 146.992C77.3583 147.102 76.9781 147.156 76.5563 147.156C75.9208 147.156 75.3818 147.031 74.9391 146.781C74.5016 146.526 74.1682 146.195 73.9391 145.789C73.7151 145.378 73.6031 144.938 73.6031 144.469H74.9859C75.0016 144.865 75.0901 145.172 75.2516 145.391C75.4182 145.609 75.6188 145.76 75.8531 145.844C76.0875 145.927 76.3219 145.969 76.5563 145.969C76.8635 145.969 77.1214 145.924 77.3297 145.836C77.538 145.742 77.6943 145.609 77.7984 145.438C77.9078 145.266 77.9625 145.065 77.9625 144.836ZM86.3187 146.125L88.2016 138.547H89.6703L86.8812 148.305C86.8135 148.513 86.7224 148.737 86.6078 148.977C86.4984 149.221 86.3578 149.453 86.1859 149.672C86.0141 149.891 85.8083 150.068 85.5687 150.203C85.3292 150.344 85.0479 150.414 84.725 150.414C84.626 150.414 84.4984 150.398 84.3422 150.367C84.1911 150.336 84.0818 150.31 84.0141 150.289V149.117C84.0453 149.122 84.0948 149.128 84.1625 149.133C84.2302 149.143 84.2797 149.148 84.3109 149.148C84.5818 149.148 84.8109 149.104 84.9984 149.016C85.1911 148.932 85.3552 148.789 85.4906 148.586C85.626 148.388 85.7406 148.115 85.8344 147.766L86.3187 146.125ZM85.1 138.547L86.7797 145.109L87.1391 146.633L86.1547 147.164L83.5922 138.547H85.1ZM98.2453 145.555V140.969C98.2453 140.635 98.1932 140.367 98.0891 140.164C97.9901 139.961 97.8391 139.812 97.6359 139.719C97.438 139.625 97.188 139.578 96.8859 139.578C96.5943 139.578 96.3417 139.638 96.1281 139.758C95.9198 139.878 95.7583 140.036 95.6438 140.234C95.5344 140.432 95.4797 140.651 95.4797 140.891H94.0969C94.0969 140.589 94.162 140.289 94.2922 139.992C94.4276 139.695 94.6203 139.427 94.8703 139.188C95.1203 138.943 95.4198 138.75 95.7688 138.609C96.1229 138.464 96.5188 138.391 96.9563 138.391C97.4771 138.391 97.938 138.477 98.3391 138.648C98.7401 138.815 99.0552 139.089 99.2844 139.469C99.5135 139.849 99.6281 140.354 99.6281 140.984V145.156C99.6281 145.438 99.649 145.737 99.6906 146.055C99.7375 146.372 99.8026 146.646 99.8859 146.875V147H98.4563C98.3885 146.833 98.3365 146.612 98.3 146.336C98.2635 146.055 98.2453 145.794 98.2453 145.555ZM98.4641 141.875L98.4797 142.891H97.5188C97.1906 142.891 96.8911 142.927 96.6203 143C96.3547 143.073 96.1255 143.18 95.9328 143.32C95.7401 143.456 95.5917 143.625 95.4875 143.828C95.3885 144.031 95.3391 144.263 95.3391 144.523C95.3391 144.862 95.3859 145.133 95.4797 145.336C95.5734 145.534 95.7141 145.677 95.9016 145.766C96.0891 145.854 96.326 145.898 96.6125 145.898C96.9615 145.898 97.2688 145.818 97.5344 145.656C97.8 145.495 98.0057 145.299 98.1516 145.07C98.3026 144.841 98.3729 144.628 98.3625 144.43L98.6672 145.078C98.6464 145.281 98.5786 145.503 98.4641 145.742C98.3547 145.977 98.201 146.203 98.0031 146.422C97.8052 146.635 97.5708 146.812 97.3 146.953C97.0344 147.089 96.7349 147.156 96.4016 147.156C95.912 147.156 95.4823 147.062 95.1125 146.875C94.7479 146.688 94.4641 146.411 94.2609 146.047C94.0578 145.682 93.9563 145.232 93.9563 144.695C93.9563 144.289 94.0266 143.914 94.1672 143.57C94.3078 143.227 94.5161 142.93 94.7922 142.68C95.0682 142.424 95.4146 142.227 95.8313 142.086C96.2531 141.945 96.7401 141.875 97.2922 141.875H98.4641ZM106.461 135V147H105.086V135H106.461ZM3.80469 167H1.86719L1.88281 165.773H3.80469C4.48698 165.773 5.04167 165.643 5.46875 165.383C5.89583 165.117 6.21094 164.727 6.41406 164.211C6.61719 163.69 6.71875 163.047 6.71875 162.281V160.336C6.71875 159.732 6.66146 159.211 6.54688 158.773C6.43229 158.336 6.26042 157.977 6.03125 157.695C5.80208 157.414 5.51302 157.206 5.16406 157.07C4.8151 156.93 4.40625 156.859 3.9375 156.859H1.82812V155.625H3.9375C4.57812 155.625 5.15625 155.727 5.67188 155.93C6.1875 156.128 6.63021 156.427 7 156.828C7.36979 157.224 7.65104 157.716 7.84375 158.305C8.04167 158.893 8.14062 159.576 8.14062 160.352V162.281C8.14062 163.057 8.04167 163.74 7.84375 164.328C7.65104 164.917 7.36719 165.409 6.99219 165.805C6.61719 166.201 6.16146 166.5 5.625 166.703C5.09375 166.901 4.48698 167 3.80469 167ZM2.66406 155.625V167H1.22656V155.625H2.66406ZM16.4031 167.156C15.8979 167.156 15.4422 167.081 15.0359 166.93C14.6297 166.779 14.2833 166.549 13.9969 166.242C13.7104 165.93 13.4917 165.536 13.3406 165.062C13.1896 164.589 13.1141 164.029 13.1141 163.383V162.43C13.1141 161.685 13.2 161.055 13.3719 160.539C13.549 160.023 13.7859 159.609 14.0828 159.297C14.3797 158.979 14.7156 158.75 15.0906 158.609C15.4656 158.464 15.851 158.391 16.2469 158.391C16.7781 158.391 17.2312 158.477 17.6062 158.648C17.9812 158.82 18.2859 159.076 18.5203 159.414C18.7547 159.753 18.9266 160.169 19.0359 160.664C19.1505 161.159 19.2078 161.729 19.2078 162.375V163.18H13.9266V162H17.825V161.805C17.8042 161.367 17.7443 160.982 17.6453 160.648C17.5516 160.315 17.3953 160.055 17.1766 159.867C16.9578 159.674 16.6479 159.578 16.2469 159.578C15.9917 159.578 15.7547 159.622 15.5359 159.711C15.3224 159.794 15.1375 159.943 14.9812 160.156C14.8302 160.365 14.7104 160.654 14.6219 161.023C14.5385 161.393 14.4969 161.862 14.4969 162.43V163.383C14.4969 163.836 14.5385 164.227 14.6219 164.555C14.7104 164.878 14.838 165.146 15.0047 165.359C15.1766 165.568 15.3849 165.724 15.6297 165.828C15.8797 165.927 16.1635 165.977 16.4812 165.977C16.9448 165.977 17.3276 165.888 17.6297 165.711C17.9318 165.529 18.1948 165.297 18.4187 165.016L19.1453 165.883C18.9943 166.096 18.7964 166.302 18.5516 166.5C18.312 166.693 18.0151 166.852 17.6609 166.977C17.312 167.096 16.8927 167.156 16.4031 167.156ZM28.1812 164.836C28.1812 164.622 28.1292 164.435 28.025 164.273C27.9208 164.112 27.749 163.956 27.5094 163.805C27.275 163.654 26.9573 163.492 26.5562 163.32C26.1656 163.159 25.8141 163 25.5016 162.844C25.1943 162.682 24.9339 162.508 24.7203 162.32C24.5068 162.133 24.3427 161.917 24.2281 161.672C24.1187 161.422 24.0641 161.128 24.0641 160.789C24.0641 160.451 24.1266 160.138 24.2516 159.852C24.3818 159.56 24.5641 159.305 24.7984 159.086C25.0328 158.867 25.3141 158.698 25.6422 158.578C25.9703 158.453 26.3375 158.391 26.7437 158.391C27.3219 158.391 27.8141 158.503 28.2203 158.727C28.6266 158.951 28.9365 159.258 29.15 159.648C29.3687 160.034 29.4781 160.469 29.4781 160.953H28.1031C28.1031 160.719 28.051 160.497 27.9469 160.289C27.8427 160.081 27.6891 159.911 27.4859 159.781C27.2828 159.646 27.0354 159.578 26.7437 159.578C26.4365 159.578 26.1865 159.633 25.9937 159.742C25.801 159.852 25.6604 159.995 25.5719 160.172C25.4885 160.344 25.4469 160.534 25.4469 160.742C25.4469 160.898 25.4677 161.034 25.5094 161.148C25.5562 161.258 25.6344 161.362 25.7437 161.461C25.8531 161.555 26.0016 161.654 26.1891 161.758C26.3818 161.857 26.6266 161.971 26.9234 162.102C27.4964 162.326 27.9781 162.552 28.3687 162.781C28.7594 163.01 29.0562 163.279 29.2594 163.586C29.4625 163.893 29.5641 164.273 29.5641 164.727C29.5641 165.096 29.4964 165.432 29.3609 165.734C29.2307 166.031 29.0432 166.286 28.7984 166.5C28.5536 166.714 28.2594 166.878 27.9156 166.992C27.5771 167.102 27.1969 167.156 26.775 167.156C26.1396 167.156 25.6005 167.031 25.1578 166.781C24.7203 166.526 24.387 166.195 24.1578 165.789C23.9339 165.378 23.8219 164.938 23.8219 164.469H25.2047C25.2203 164.865 25.3089 165.172 25.4703 165.391C25.637 165.609 25.8375 165.76 26.0719 165.844C26.3062 165.927 26.5406 165.969 26.775 165.969C27.0823 165.969 27.3401 165.924 27.5484 165.836C27.7568 165.742 27.913 165.609 28.0172 165.438C28.1266 165.266 28.1812 165.065 28.1812 164.836ZM37.6625 158.547V159.656H33.7172V158.547H37.6625ZM35.0062 156.492H36.3891V164.906C36.3891 165.193 36.4229 165.409 36.4906 165.555C36.5635 165.701 36.6547 165.797 36.7641 165.844C36.8734 165.891 36.9906 165.914 37.1156 165.914C37.2094 165.914 37.3135 165.904 37.4281 165.883C37.5427 165.857 37.6208 165.836 37.6625 165.82L37.6547 167C37.5609 167.036 37.4359 167.07 37.2797 167.102C37.1234 167.138 36.9255 167.156 36.6859 167.156C36.3891 167.156 36.113 167.086 35.8578 166.945C35.6026 166.805 35.3969 166.57 35.2406 166.242C35.0844 165.909 35.0062 165.461 35.0062 164.898V156.492ZM45.5344 167.156C45.0292 167.156 44.5734 167.081 44.1672 166.93C43.7609 166.779 43.4146 166.549 43.1281 166.242C42.8417 165.93 42.6229 165.536 42.4719 165.062C42.3208 164.589 42.2453 164.029 42.2453 163.383V162.43C42.2453 161.685 42.3312 161.055 42.5031 160.539C42.6802 160.023 42.9172 159.609 43.2141 159.297C43.5109 158.979 43.8469 158.75 44.2219 158.609C44.5969 158.464 44.9823 158.391 45.3781 158.391C45.9094 158.391 46.3625 158.477 46.7375 158.648C47.1125 158.82 47.4172 159.076 47.6516 159.414C47.8859 159.753 48.0578 160.169 48.1672 160.664C48.2818 161.159 48.3391 161.729 48.3391 162.375V163.18H43.0578V162H46.9562V161.805C46.9354 161.367 46.8755 160.982 46.7766 160.648C46.6828 160.315 46.5266 160.055 46.3078 159.867C46.0891 159.674 45.7792 159.578 45.3781 159.578C45.1229 159.578 44.8859 159.622 44.6672 159.711C44.4536 159.794 44.2687 159.943 44.1125 160.156C43.9615 160.365 43.8417 160.654 43.7531 161.023C43.6698 161.393 43.6281 161.862 43.6281 162.43V163.383C43.6281 163.836 43.6698 164.227 43.7531 164.555C43.8417 164.878 43.9693 165.146 44.1359 165.359C44.3078 165.568 44.5161 165.724 44.7609 165.828C45.0109 165.927 45.2948 165.977 45.6125 165.977C46.076 165.977 46.4589 165.888 46.7609 165.711C47.063 165.529 47.326 165.297 47.55 165.016L48.2766 165.883C48.1255 166.096 47.9276 166.302 47.6828 166.5C47.4432 166.693 47.1464 166.852 46.7922 166.977C46.4432 167.096 46.024 167.156 45.5344 167.156ZM54.6016 155V167H53.2188V155H54.6016ZM58.8906 158.547L55.8828 162.492L54.0234 164.633L53.9297 163.094L55.2109 161.328L57.2266 158.547H58.8906ZM57.625 167L55.25 162.969L55.9609 161.68L59.2344 167H57.625ZM74.3141 162.539H71.8297V161.312H74.3141C74.7828 161.312 75.1604 161.219 75.4469 161.031C75.7385 160.844 75.9495 160.583 76.0797 160.25C76.2151 159.917 76.2828 159.536 76.2828 159.109C76.2828 158.719 76.2151 158.352 76.0797 158.008C75.9495 157.664 75.7385 157.388 75.4469 157.18C75.1604 156.966 74.7828 156.859 74.3141 156.859H72.1266V167H70.6891V155.625H74.3141C75.0484 155.625 75.6682 155.773 76.1734 156.07C76.6786 156.367 77.0615 156.779 77.3219 157.305C77.5875 157.826 77.7203 158.422 77.7203 159.094C77.7203 159.823 77.5875 160.445 77.3219 160.961C77.0615 161.477 76.6786 161.87 76.1734 162.141C75.6682 162.406 75.0484 162.539 74.3141 162.539ZM83.9594 159.875V167H82.5766V158.547H83.9125L83.9594 159.875ZM86.0609 158.5L86.0687 159.844C85.9542 159.818 85.85 159.802 85.7562 159.797C85.6677 159.786 85.5635 159.781 85.4437 159.781C85.1833 159.781 84.9542 159.833 84.7562 159.938C84.5635 160.042 84.3969 160.188 84.2562 160.375C84.1156 160.562 84.0036 160.786 83.9203 161.047C83.837 161.302 83.7797 161.583 83.7484 161.891L83.3891 162.125C83.3891 161.615 83.4281 161.135 83.5062 160.688C83.5896 160.24 83.7172 159.844 83.8891 159.5C84.0609 159.151 84.2797 158.88 84.5453 158.688C84.8161 158.49 85.1391 158.391 85.5141 158.391C85.5974 158.391 85.699 158.404 85.8187 158.43C85.9437 158.451 86.0245 158.474 86.0609 158.5ZM90.2063 163.18V162.375C90.2063 161.719 90.2896 161.143 90.4563 160.648C90.6229 160.148 90.8547 159.732 91.1516 159.398C91.4484 159.065 91.7948 158.815 92.1906 158.648C92.5865 158.477 93.0109 158.391 93.4641 158.391C93.9276 158.391 94.3573 158.477 94.7531 158.648C95.149 158.815 95.4953 159.065 95.7922 159.398C96.0943 159.732 96.3286 160.148 96.4953 160.648C96.662 161.143 96.7453 161.719 96.7453 162.375V163.18C96.7453 163.836 96.662 164.414 96.4953 164.914C96.3286 165.409 96.0969 165.823 95.8 166.156C95.5031 166.49 95.1568 166.74 94.7609 166.906C94.3651 167.073 93.938 167.156 93.4797 167.156C93.0214 167.156 92.5943 167.073 92.1984 166.906C91.8026 166.74 91.4536 166.49 91.1516 166.156C90.8547 165.823 90.6229 165.409 90.4563 164.914C90.2896 164.414 90.2063 163.836 90.2063 163.18ZM91.5891 162.375V163.18C91.5891 163.643 91.6359 164.049 91.7297 164.398C91.8234 164.747 91.9563 165.039 92.1281 165.273C92.3 165.508 92.5005 165.685 92.7297 165.805C92.9589 165.919 93.2089 165.977 93.4797 165.977C93.7922 165.977 94.0656 165.919 94.3 165.805C94.5396 165.685 94.7375 165.508 94.8938 165.273C95.05 165.039 95.1672 164.747 95.2453 164.398C95.3234 164.049 95.3625 163.643 95.3625 163.18V162.375C95.3625 161.911 95.3156 161.508 95.2219 161.164C95.1281 160.815 94.9953 160.523 94.8234 160.289C94.6516 160.049 94.4484 159.872 94.2141 159.758C93.9849 159.638 93.7349 159.578 93.4641 159.578C93.1984 159.578 92.951 159.638 92.7219 159.758C92.4927 159.872 92.2922 160.049 92.1203 160.289C91.9536 160.523 91.8234 160.815 91.7297 161.164C91.6359 161.508 91.5891 161.911 91.5891 162.375ZM101.758 158.547H103.133V168.008C103.133 168.523 103.065 168.961 102.93 169.32C102.799 169.68 102.596 169.951 102.32 170.133C102.049 170.32 101.703 170.414 101.281 170.414C101.167 170.414 101.034 170.401 100.883 170.375C100.737 170.349 100.612 170.318 100.508 170.281V169.117C100.596 169.138 100.693 169.154 100.797 169.164C100.901 169.18 100.987 169.188 101.055 169.188C101.206 169.188 101.333 169.148 101.438 169.07C101.542 168.992 101.62 168.867 101.672 168.695C101.729 168.523 101.758 168.294 101.758 168.008V158.547ZM101.633 156.305C101.633 156.07 101.698 155.872 101.828 155.711C101.964 155.549 102.159 155.469 102.414 155.469C102.674 155.469 102.87 155.549 103 155.711C103.135 155.872 103.203 156.07 103.203 156.305C103.203 156.529 103.135 156.721 103 156.883C102.87 157.039 102.674 157.117 102.414 157.117C102.159 157.117 101.964 157.039 101.828 156.883C101.698 156.721 101.633 156.529 101.633 156.305ZM111.544 167.156C111.039 167.156 110.583 167.081 110.177 166.93C109.77 166.779 109.424 166.549 109.137 166.242C108.851 165.93 108.632 165.536 108.481 165.062C108.33 164.589 108.255 164.029 108.255 163.383V162.43C108.255 161.685 108.341 161.055 108.512 160.539C108.69 160.023 108.927 159.609 109.223 159.297C109.52 158.979 109.856 158.75 110.231 158.609C110.606 158.464 110.992 158.391 111.387 158.391C111.919 158.391 112.372 158.477 112.747 158.648C113.122 158.82 113.427 159.076 113.661 159.414C113.895 159.753 114.067 160.169 114.177 160.664C114.291 161.159 114.348 161.729 114.348 162.375V163.18H109.067V162H112.966V161.805C112.945 161.367 112.885 160.982 112.786 160.648C112.692 160.315 112.536 160.055 112.317 159.867C112.098 159.674 111.789 159.578 111.387 159.578C111.132 159.578 110.895 159.622 110.677 159.711C110.463 159.794 110.278 159.943 110.122 160.156C109.971 160.365 109.851 160.654 109.762 161.023C109.679 161.393 109.637 161.862 109.637 162.43V163.383C109.637 163.836 109.679 164.227 109.762 164.555C109.851 164.878 109.979 165.146 110.145 165.359C110.317 165.568 110.526 165.724 110.77 165.828C111.02 165.927 111.304 165.977 111.622 165.977C112.085 165.977 112.468 165.888 112.77 165.711C113.072 165.529 113.335 165.297 113.559 165.016L114.286 165.883C114.135 166.096 113.937 166.302 113.692 166.5C113.453 166.693 113.156 166.852 112.802 166.977C112.453 167.096 112.033 167.156 111.544 167.156ZM123.322 164.836C123.322 164.622 123.27 164.435 123.166 164.273C123.061 164.112 122.89 163.956 122.65 163.805C122.416 163.654 122.098 163.492 121.697 163.32C121.306 163.159 120.955 163 120.642 162.844C120.335 162.682 120.074 162.508 119.861 162.32C119.647 162.133 119.483 161.917 119.369 161.672C119.259 161.422 119.205 161.128 119.205 160.789C119.205 160.451 119.267 160.138 119.392 159.852C119.522 159.56 119.705 159.305 119.939 159.086C120.173 158.867 120.455 158.698 120.783 158.578C121.111 158.453 121.478 158.391 121.884 158.391C122.463 158.391 122.955 158.503 123.361 158.727C123.767 158.951 124.077 159.258 124.291 159.648C124.509 160.034 124.619 160.469 124.619 160.953H123.244C123.244 160.719 123.192 160.497 123.088 160.289C122.983 160.081 122.83 159.911 122.627 159.781C122.423 159.646 122.176 159.578 121.884 159.578C121.577 159.578 121.327 159.633 121.134 159.742C120.942 159.852 120.801 159.995 120.713 160.172C120.629 160.344 120.588 160.534 120.588 160.742C120.588 160.898 120.608 161.034 120.65 161.148C120.697 161.258 120.775 161.362 120.884 161.461C120.994 161.555 121.142 161.654 121.33 161.758C121.522 161.857 121.767 161.971 122.064 162.102C122.637 162.326 123.119 162.552 123.509 162.781C123.9 163.01 124.197 163.279 124.4 163.586C124.603 163.893 124.705 164.273 124.705 164.727C124.705 165.096 124.637 165.432 124.502 165.734C124.371 166.031 124.184 166.286 123.939 166.5C123.694 166.714 123.4 166.878 123.056 166.992C122.718 167.102 122.338 167.156 121.916 167.156C121.28 167.156 120.741 167.031 120.298 166.781C119.861 166.526 119.528 166.195 119.298 165.789C119.074 165.378 118.963 164.938 118.963 164.469H120.345C120.361 164.865 120.449 165.172 120.611 165.391C120.778 165.609 120.978 165.76 121.213 165.844C121.447 165.927 121.681 165.969 121.916 165.969C122.223 165.969 122.481 165.924 122.689 165.836C122.897 165.742 123.054 165.609 123.158 165.438C123.267 165.266 123.322 165.065 123.322 164.836ZM131.202 158.547V167H129.827V158.547H131.202ZM129.748 156.305C129.748 156.07 129.814 155.872 129.944 155.711C130.074 155.549 130.269 155.469 130.53 155.469C130.79 155.469 130.985 155.549 131.116 155.711C131.251 155.872 131.319 156.07 131.319 156.305C131.319 156.529 131.251 156.721 131.116 156.883C130.985 157.039 130.79 157.117 130.53 157.117C130.269 157.117 130.074 157.039 129.944 156.883C129.814 156.721 129.748 156.529 129.748 156.305Z" fill="black"/>
<g clip-path="url(#clip0_452_668)">
<path d="M45.6756 1.56705L45.1014 3.20977L44.7986 4.0289L44.6384 4.43402L44.5538 4.63435L44.5093 4.73674L44.487 4.78571L44.4737 4.81242L44.4647 4.82578L44.4558 4.84359C44.4336 4.88365 44.3713 4.91482 44.3356 4.91036L44.4603 4.83913C43.984 5.71614 43.3696 6.51747 42.6618 7.22531C41.9539 7.9376 41.1481 8.5475 40.3023 9.08172L40.2845 9.09507L40.24 9.11288C39.0959 9.54026 37.9606 9.99879 36.8076 10.3995C35.6501 10.7823 34.4927 11.1741 33.3352 11.5703L33.5711 11.3833L23.1583 28.1711L23.2207 27.8907C23.2162 27.8461 23.2207 27.8907 23.2251 27.8907C23.2251 27.8996 23.2385 27.904 23.2429 27.9129C23.2563 27.9263 23.2785 27.9352 23.3231 27.9485C23.4165 27.9708 23.5902 27.9574 23.7638 27.9129C24.1333 27.8105 24.4716 27.6547 24.7565 27.4054C25.3442 26.9113 25.7181 26.1634 26.012 25.362C26.0787 25.1706 26.2078 24.899 26.3236 24.6943C26.4482 24.4939 26.5729 24.2847 26.7064 24.1066C26.9691 23.7282 27.254 23.3765 27.5389 23.0293C28.1132 22.3348 28.7098 21.6759 29.3197 21.0215C29.9296 20.3715 30.5484 19.7349 31.1761 19.1028C31.4966 18.7867 31.7904 18.4751 32.1421 18.1634L33.1527 17.2998L37.1994 13.8452L37.3329 13.7339H37.4887C37.7158 13.7472 37.8582 13.7962 38.0363 13.8941C38.1254 13.9476 38.1877 13.9965 38.2767 14.0945C38.3524 14.188 38.388 14.2592 38.4281 14.3393C38.4637 14.4195 38.4904 14.504 38.5082 14.5842C38.5171 14.6242 38.5216 14.6688 38.526 14.7088C38.526 14.7489 38.5349 14.7845 38.526 14.878C38.4771 15.1718 38.3836 15.2564 38.3123 15.3855C38.0096 15.8084 37.6891 16.1111 37.3596 16.4317C36.7052 17.0505 36.0285 17.6248 35.343 18.1857L34.8266 18.6042C34.7331 18.6798 34.6618 18.7333 34.5773 18.8089L34.328 19.0226L33.3307 19.8818L31.3319 21.6002L31.4432 21.4533C31.3408 21.6626 31.3808 21.9386 31.5456 22.1033C31.7014 22.2725 31.9729 22.3303 32.1866 22.2368L32.0842 22.2947L38.2322 17.5758L38.3079 17.5179L38.4014 17.4957C40.0396 17.1128 41.6512 16.5964 43.196 15.9375C43.5788 15.7728 43.9572 15.6036 44.2867 15.3989C44.6161 15.1941 44.9188 14.9448 45.1993 14.6643C45.7691 14.1212 46.2366 13.4579 46.566 12.7144C47.2071 11.134 47.995 9.57587 48.8854 8.11122C49.7758 6.63767 50.7997 5.25315 51.9171 3.96213C50.9065 5.34219 50.0117 6.79794 49.2282 8.30265C48.4447 9.81627 47.7903 11.3655 47.256 12.9949C46.9444 13.8363 46.4814 14.642 45.8404 15.3054C45.5198 15.6348 45.1503 15.9197 44.7497 16.1601C44.349 16.3961 43.9439 16.583 43.5432 16.7522C41.945 17.4378 40.2889 17.9676 38.6017 18.3593L38.7709 18.2792L32.6229 22.9981L32.5784 23.0337L32.5205 23.056C31.9774 23.2875 31.3007 23.1539 30.8911 22.7132C30.4727 22.2858 30.3703 21.6002 30.6329 21.0705L30.6775 20.9814L30.7487 20.9236L32.7565 19.2007C33.4198 18.6309 34.1009 18.0343 34.782 17.5001C35.4587 16.9481 36.1265 16.3827 36.7497 15.7906C37.0569 15.4968 37.3685 15.1852 37.5778 14.8913C37.6223 14.8335 37.6579 14.7266 37.6401 14.8023C37.6401 14.8424 37.6401 14.8201 37.6401 14.8068V14.7711C37.6312 14.7489 37.6223 14.7222 37.6134 14.7044C37.5822 14.6465 37.6045 14.6821 37.5778 14.6598C37.5689 14.6465 37.4887 14.6331 37.4977 14.6331L37.7826 14.5263L33.7492 17.9676L32.7431 18.8268C32.4359 19.0983 32.1154 19.4322 31.8082 19.7349C31.185 20.3582 30.5751 20.9903 29.9741 21.6314C29.3731 22.2725 28.7854 22.9269 28.229 23.5991C27.9529 23.933 27.6814 24.2758 27.4365 24.623C27.3074 24.7966 27.205 24.9703 27.0937 25.1439C26.9958 25.3264 26.9246 25.4511 26.8444 25.6781C26.5284 26.524 26.1054 27.4277 25.3264 28.091C24.9435 28.4249 24.4627 28.6564 23.9775 28.781C23.7237 28.8433 23.4477 28.8923 23.1049 28.8211C22.9357 28.781 22.7532 28.6964 22.6063 28.5495C22.5351 28.4783 22.4728 28.3937 22.4282 28.3047C22.3793 28.2067 22.3526 28.1444 22.3258 27.9886L22.3036 27.8461L22.3882 27.7081L32.801 10.9203L32.8856 10.7868L33.0369 10.7378C34.1944 10.346 35.3474 9.94982 36.5004 9.54471C37.6579 9.1574 38.8376 8.82797 40.004 8.46737L39.9417 8.49408C41.6289 7.59481 43.1693 6.3483 44.2065 4.70558L44.3312 4.63435C44.2956 4.6299 44.2377 4.65661 44.2154 4.69222C44.2021 4.71003 44.2154 4.69222 44.2154 4.69668V4.68777L44.2333 4.66551L44.26 4.621L44.3089 4.52751L44.4069 4.33608L44.5983 3.94877L44.9678 3.16525L45.6756 1.57595V1.56705Z" fill="#000C5C"/>
<path d="M69.9603 51.7969C69.4573 51.1826 68.9587 50.5638 68.4734 49.9361C68.233 49.62 67.9882 49.3084 67.7656 48.9656C67.5563 48.605 67.3827 48.2533 67.2225 47.8749C66.5903 46.3835 66.3365 44.7452 66.3321 43.1248V43.1025L66.341 43.058C66.5858 41.8605 66.7951 40.654 67.0711 39.4654C67.3605 38.2812 67.6365 37.0881 67.9169 35.8995L67.9526 36.1977L59.2225 18.4751L59.4273 18.6798C59.4674 18.6976 59.4273 18.6798 59.4273 18.6843C59.4184 18.6843 59.4095 18.6843 59.4006 18.6843C59.3828 18.6843 59.3605 18.7021 59.3249 18.7333C59.2537 18.8 59.1736 18.9558 59.1201 19.125C59.0089 19.4901 58.9643 19.864 59.0267 20.238C59.1335 20.9948 59.5698 21.7115 60.0951 22.3882C60.2242 22.544 60.3845 22.7978 60.4958 23.0026C60.6026 23.2162 60.7094 23.4299 60.794 23.6392C60.9766 24.0621 61.1235 24.4895 61.2659 24.9168C61.5508 25.7716 61.7957 26.6263 62.0272 27.49C62.2542 28.3492 62.4724 29.2128 62.6727 30.0809C62.7706 30.5217 62.8775 30.9312 62.9576 31.3987L63.1535 32.7164L63.9415 37.9785L63.9682 38.1521L63.8836 38.2812C63.7545 38.4682 63.6432 38.5617 63.4607 38.6641C63.3672 38.7086 63.2915 38.7397 63.1624 38.762C63.0467 38.7754 62.9665 38.7709 62.873 38.762C62.784 38.7486 62.7039 38.7264 62.6237 38.6997C62.5837 38.6863 62.5436 38.6685 62.508 38.6507C62.4724 38.6329 62.4412 38.6195 62.3655 38.5617C62.1429 38.3658 62.1207 38.2411 62.0494 38.112C61.8491 37.6312 61.7645 37.1994 61.6666 36.7542C61.4885 35.8728 61.3594 34.9958 61.2481 34.1143L61.168 33.4554C61.1546 33.3352 61.1457 33.2462 61.1279 33.1349L61.0789 32.8099L60.8786 31.51L60.4824 28.9057L60.5492 29.0793C60.4245 28.879 60.1708 28.7721 59.9482 28.8211C59.7211 28.8656 59.5297 29.0659 59.4941 29.2974V29.1817L60.2465 36.8922L60.2554 36.9857L60.2242 37.0748C59.6766 38.6819 59.2581 40.3379 59.0044 42.0118C58.9421 42.4303 58.8886 42.8399 58.8931 43.2316C58.8931 43.6234 58.9554 44.0196 59.0489 44.4025C59.2181 45.1771 59.552 45.9294 60.015 46.6017C61.03 48.004 61.9337 49.5087 62.7083 51.0579C63.4874 52.6072 64.1195 54.2276 64.6226 55.8792C63.986 54.2766 63.2292 52.7274 62.3611 51.2494C61.4885 49.7713 60.5136 48.369 59.414 47.0513C58.8575 46.3434 58.3945 45.5243 58.163 44.6206C58.0517 44.171 57.9938 43.7035 57.9983 43.2316C57.9983 42.7597 58.0606 42.3145 58.1229 41.8783C58.3856 40.1465 58.8174 38.4415 59.3828 36.7898L59.3605 36.9768L58.6126 29.2663V29.2084V29.1461C58.7017 28.5629 59.1736 28.0598 59.7657 27.9441C60.3533 27.815 60.9855 28.091 61.2971 28.594L61.3505 28.6786L61.3639 28.7677L61.7645 31.3853C61.8936 32.249 62.045 33.1438 62.134 34.003C62.2453 34.8667 62.37 35.7348 62.5436 36.5762C62.6282 36.9902 62.7306 37.422 62.8686 37.7559C62.8908 37.8227 62.9665 37.9072 62.9086 37.8538C62.873 37.8316 62.8908 37.8449 62.9042 37.8538L62.9398 37.8672C62.9621 37.8761 62.9843 37.8805 63.0066 37.885C63.0734 37.885 63.0288 37.8894 63.0645 37.8805C63.0823 37.8805 63.1357 37.8227 63.1312 37.8271L63.0689 38.1254L62.2854 32.8856L62.0895 31.5768C62.0227 31.1716 61.907 30.7265 61.8135 30.3035C61.6132 29.4443 61.3995 28.5896 61.1724 27.7393C60.9454 26.889 60.7005 26.0476 60.429 25.2196C60.291 24.8055 60.1485 24.396 59.9793 24.0087C59.9037 23.8083 59.8057 23.6303 59.7167 23.4433C59.6143 23.2652 59.5431 23.1361 59.3917 22.9491C58.8397 22.2368 58.2966 21.3954 58.1496 20.3849C58.0695 19.8818 58.1274 19.3521 58.2788 18.8757C58.3633 18.6309 58.4657 18.3638 58.7061 18.1145C58.8308 17.9943 58.9955 17.883 59.2003 17.834C59.2982 17.8117 59.4006 17.8028 59.503 17.8117C59.6098 17.8251 59.6811 17.834 59.8235 17.8919L59.9571 17.9497L60.0283 18.0966L68.7583 35.8193L68.8296 35.9618L68.7939 36.1176C68.5179 37.3062 68.2375 38.4949 67.9704 39.688C67.6943 40.8766 67.3471 42.0519 67.0355 43.2316L67.0444 43.1648C66.942 44.7096 67.0755 46.2856 67.5831 47.7591C67.7077 48.1242 67.8591 48.4937 68.0282 48.832C68.2197 49.1659 68.4333 49.5042 68.647 49.8381C69.0789 50.5014 69.524 51.1603 69.9737 51.8147L69.9603 51.7969Z" fill="#000C5C"/>
<path d="M15.5457 46.753C16.2402 46.6729 16.9303 46.5928 17.6292 46.5438C18.3459 46.4993 19.0449 46.6017 19.7394 46.7486C21.1283 47.0513 22.4461 47.6434 23.6525 48.3913L23.6703 48.4002L23.7015 48.4269L26.377 50.9333C26.8222 51.3517 27.2496 51.788 27.6725 52.2243L28.9635 53.5242L28.692 53.3951L48.3512 55.3762L48.0707 55.443C48.0797 55.4341 48.0797 55.4252 48.0841 55.4207C48.0886 55.4074 48.0886 55.3806 48.0841 55.3317C48.0618 55.2382 47.9773 55.0868 47.8571 54.9533C47.6033 54.6684 47.3139 54.4324 46.9622 54.2855C46.2633 53.9739 45.4219 53.965 44.5716 54.054C44.3713 54.0807 44.0686 54.0807 43.8371 54.0674C43.6011 54.0451 43.3607 54.0228 43.1381 53.9828C42.6796 53.9115 42.2433 53.8136 41.8026 53.7068C40.93 53.4975 40.0708 53.2482 39.2161 52.99C38.3658 52.7274 37.5199 52.4513 36.6785 52.1664C36.2556 52.0151 35.846 51.8904 35.4098 51.7079L34.19 51.1781L29.3063 49.0591L29.1461 48.9878L29.0837 48.8454C28.9902 48.6361 28.9724 48.4892 28.9813 48.2844C28.9902 48.182 29.0081 48.1019 29.057 47.9817C29.106 47.8749 29.155 47.8081 29.2128 47.7413C29.2707 47.6745 29.333 47.6167 29.3998 47.5632C29.4354 47.5365 29.4666 47.5143 29.5022 47.492C29.5378 47.4742 29.5645 47.452 29.6536 47.4163C29.9385 47.3318 30.0542 47.3763 30.2011 47.3852C30.7176 47.4742 31.1271 47.6256 31.5589 47.7814C32.4048 48.0975 33.215 48.4536 34.0208 48.8231L34.6218 49.1036C34.7286 49.1525 34.8132 49.1971 34.9156 49.2371L35.2183 49.3662L36.4292 49.8871L38.851 50.9288L38.6685 50.8932C38.9044 50.8932 39.1315 50.7329 39.2072 50.5193C39.2918 50.3056 39.2205 50.0385 39.0425 49.8826L39.1404 49.9494L32.2 46.4993L32.1154 46.4547L32.0531 46.3791C30.9802 45.0613 29.8005 43.8326 28.5139 42.7286C28.1934 42.4526 27.8728 42.1944 27.539 41.9851C27.2051 41.7803 26.84 41.6245 26.4616 41.4954C25.7093 41.2372 24.9035 41.117 24.0843 41.1571C22.357 41.2728 20.603 41.2417 18.8757 41.0769C17.1484 40.9167 15.4389 40.5961 13.7739 40.1465C15.4701 40.4581 17.1885 40.6318 18.898 40.6807C20.6164 40.7253 22.317 40.6362 24.0176 40.4047C24.9168 40.3068 25.8562 40.3424 26.7421 40.6362C27.628 40.9122 28.4382 41.4821 29.0882 42.0563C30.4193 43.196 31.6346 44.4648 32.7387 45.8181L32.5918 45.7024L39.5322 49.1525L39.5811 49.1793L39.6256 49.2193C40.0753 49.6066 40.2489 50.2744 40.0352 50.8309C39.8349 51.3963 39.265 51.788 38.673 51.788H38.575L38.4904 51.7524L36.0597 50.7062C35.2584 50.359 34.4215 50.0117 33.6424 49.6333C32.85 49.2683 32.0486 48.9166 31.2429 48.6183C30.8467 48.4714 30.4237 48.329 30.0676 48.2711C29.9964 48.2533 29.8851 48.2711 29.9607 48.2533C29.9785 48.2444 29.9964 48.2355 29.9607 48.2533L29.9296 48.2755C29.9296 48.2755 29.894 48.3067 29.8806 48.3245C29.845 48.3779 29.8628 48.3423 29.8539 48.3735C29.845 48.3868 29.8673 48.4625 29.8628 48.4581L29.6402 48.2488L34.5016 50.359L35.7169 50.8888C36.0954 51.049 36.5361 51.1826 36.9456 51.3295C37.7781 51.6144 38.6151 51.886 39.4565 52.1442C40.2979 52.4024 41.1437 52.6428 41.9896 52.8476C42.4125 52.9499 42.8354 53.0434 43.2539 53.1102C43.4676 53.1503 43.6679 53.1636 43.8727 53.1859C44.0819 53.1903 44.2244 53.1993 44.4648 53.1725C45.3596 53.0835 46.3612 53.0657 47.3006 53.4753C47.768 53.6711 48.1865 54.005 48.5159 54.3834C48.6806 54.5838 48.8498 54.8108 48.9344 55.1491C48.97 55.3183 48.9789 55.5187 48.9121 55.7145C48.8765 55.8125 48.832 55.9015 48.7697 55.9816C48.7029 56.0662 48.6584 56.1196 48.5293 56.2087L48.4091 56.2888L48.2488 56.271L28.5896 54.2899L28.4338 54.2721L28.3225 54.1608L27.027 52.8654C26.5907 52.438 26.1544 52.0106 25.7404 51.561L23.2474 48.8765L23.2964 48.9166C22.1879 48.1197 20.9681 47.4653 19.6503 47.078C19.3209 46.9801 18.987 46.8999 18.6487 46.8421C18.3059 46.7797 17.9764 46.7219 17.6292 46.7263C16.9347 46.7174 16.2358 46.7352 15.5413 46.7575L15.5457 46.753Z" fill="#000C5C"/>
<path d="M72.5157 22.633C73.0766 24.1867 73.5262 25.776 73.8423 27.3964C73.9135 27.7704 73.9803 28.1443 74.0382 28.5227C74.1139 29.0169 74.1183 29.0436 74.1762 29.5645C74.2652 30.3613 74.3231 31.1627 74.3454 31.964C74.3988 33.5266 74.332 35.0936 74.1495 36.6473C74.1361 36.7453 74.1272 36.8432 74.1139 36.9411C74.0827 37.1904 74.1406 36.7497 74.105 36.9946C74.0827 37.1637 74.056 37.3373 74.0293 37.5065C73.9625 37.9205 73.8913 38.3301 73.8112 38.7441C73.6598 39.5143 73.4773 40.28 73.268 41.0413C73.0588 41.8025 72.8229 42.546 72.5602 43.285C72.4355 43.6322 72.3064 43.975 72.1729 44.3178C72.1017 44.5003 72.026 44.6828 71.9503 44.8609C72.0304 44.6739 71.8345 45.1236 71.8078 45.1904C71.1712 46.6238 70.4322 48.0128 69.5953 49.335C69.1768 49.9983 68.7316 50.6483 68.2642 51.2804C67.8724 51.8147 67.4629 52.3222 66.9197 52.9454C65.8825 54.143 64.7517 55.2604 63.5497 56.2887C62.8997 56.8408 62.5213 57.139 61.8981 57.5887C61.2437 58.0606 60.5759 58.5102 59.8859 58.9287C59.1958 59.3471 58.4791 59.7523 57.7534 60.1218C57.0857 60.4601 56.2176 60.8608 55.7101 61.07C54.1964 61.6888 52.6383 62.1874 51.049 62.5614C49.3707 62.9576 48.1063 63.149 46.4859 63.2647C44.8654 63.3805 43.2984 63.3716 41.7135 63.2425C40.2133 63.1223 38.9623 62.9264 37.3552 62.5436C35.7481 62.1607 34.328 61.7111 32.8678 61.1279C32.4137 60.9498 32.4805 60.9765 32.062 60.7895C31.6791 60.6204 31.3052 60.4467 30.9312 60.2598C30.2501 59.9259 29.5779 59.5653 28.9235 59.1869C26.1633 57.5798 23.9463 55.8079 21.756 53.4262C21.2174 52.8386 20.7009 52.2331 20.2068 51.6099C20.1934 51.5921 20.0421 51.3962 20.1578 51.5476C20.1133 51.4897 20.0688 51.4274 20.0198 51.3695C19.8996 51.2092 19.7794 51.049 19.6637 50.8842C19.4144 50.537 19.1695 50.1853 18.9336 49.8292C18.0477 48.4936 17.2641 47.0868 16.5919 45.6311C16.2491 44.8921 16.0354 44.3668 15.7327 43.5254C15.4478 42.7463 15.1985 41.9539 14.9759 41.1526C14.7533 40.3512 14.5841 39.6122 14.4328 38.8332C14.3571 38.4325 14.2859 38.0363 14.2236 37.6312C14.1523 37.1637 14.1568 37.1949 14.0944 36.6651C13.9208 35.0758 13.8674 33.4732 13.9342 31.8794C14.0054 30.1788 14.1479 29.0124 14.4684 27.4142C15.6837 21.342 18.6041 15.8707 22.958 11.5524C23.5234 10.9915 24.1066 10.4573 24.712 9.94085C24.997 9.70046 25.2863 9.46006 25.5801 9.22856C25.7716 9.0772 26.0876 8.8368 26.426 8.5964C27.7393 7.64817 29.1282 6.80677 30.5751 6.07222C32.0219 5.33767 33.2818 4.82126 34.9023 4.30485C36.5227 3.78844 38.063 3.43229 39.6835 3.18744C40.0664 3.12957 40.0975 3.12512 40.5739 3.0717C40.9745 3.02718 41.3752 2.99156 41.7759 2.96485C42.5727 2.90698 43.3696 2.88027 44.1709 2.88472C44.9723 2.88917 45.7602 2.92479 46.5482 2.98711C46.9444 3.01827 47.3362 3.05834 47.7279 3.10286C47.8036 3.11176 47.8749 3.12067 47.9505 3.12957C48.1998 3.16073 47.7591 3.10286 48.004 3.13847C48.2221 3.16964 48.4447 3.2008 48.6628 3.23641C50.2165 3.48572 51.7479 3.85522 53.2482 4.32711C53.9961 4.56306 54.7351 4.83016 55.4608 5.11953C55.857 5.2798 55.8436 5.2709 56.2665 5.46232C56.6227 5.62259 56.9788 5.78731 57.3305 5.96093C58.7373 6.65096 60.0951 7.44338 61.3906 8.33375C62.6861 9.22411 63.6387 9.99428 64.8363 11.1117C66.0338 12.2291 67.0711 13.3688 68.055 14.6153C68.2375 14.8423 68.144 14.7266 68.1039 14.6776C68.1662 14.7577 68.2241 14.8379 68.2864 14.918C68.4066 15.0783 68.5268 15.2385 68.6426 15.4032C68.8785 15.7282 69.1056 16.0621 69.3282 16.396C69.7778 17.0727 70.1963 17.7627 70.5925 18.4705C71.3894 19.8996 71.977 21.1995 72.5023 22.6241C72.7739 23.3586 73.4817 23.8528 74.283 23.6347C74.9909 23.4388 75.5652 22.5929 75.2936 21.8539C72.9074 15.3721 68.6025 9.8073 62.9131 5.88079C57.4596 2.11456 50.8264 0.0355555 44.1843 -5.90078e-05C37.3107 -0.0356736 30.4193 2.14572 24.8545 6.19242C19.2897 10.2391 15.2386 15.7371 12.9503 22.1121C10.6755 28.456 10.4128 35.5032 12.2158 41.9984C14.0188 48.4936 17.9497 54.5436 23.2875 58.804C28.5718 63.0199 34.9779 65.5841 41.718 66.1317C48.5649 66.6882 55.5721 64.9831 61.4173 61.3861C67.2625 57.789 71.6921 52.6293 74.3676 46.5126C77.1055 40.2577 77.9335 33.3396 76.6247 26.6263C76.3086 25.0058 75.859 23.4121 75.2981 21.8628C75.031 21.1283 74.3142 20.6341 73.5173 20.8523C72.8095 21.0481 72.2397 21.894 72.5068 22.633H72.5157Z" fill="#F6BE31"/>
<path d="M44.3223 37.8093C46.8006 37.8093 48.8097 35.8002 48.8097 33.3219C48.8097 30.8436 46.8006 28.8345 44.3223 28.8345C41.8439 28.8345 39.8348 30.8436 39.8348 33.3219C39.8348 35.8002 41.8439 37.8093 44.3223 37.8093Z" stroke="#F6BE31" stroke-width="3" stroke-miterlimit="10"/>
<path d="M48.8053 33.0459H53.1948" stroke="#F6BE31" stroke-width="3" stroke-miterlimit="10"/>
<path d="M35.5255 33.0459H39.7993" stroke="#F6BE31" stroke-width="3" stroke-miterlimit="10"/>
<path d="M40.7208 36.6694L38.0853 39.3049" stroke="#F6BE31" stroke-width="3" stroke-miterlimit="10"/>
<path d="M50.5816 26.8135L47.6389 29.7517" stroke="#F6BE31" stroke-width="3" stroke-miterlimit="10"/>
<path d="M47.7191 36.4424L50.8042 39.5275" stroke="#F6BE31" stroke-width="3" stroke-miterlimit="10"/>
<path d="M38.3079 27.0361L41.2906 30.0144" stroke="#F6BE31" stroke-width="3" stroke-miterlimit="10"/>
<path d="M44.3802 38.3345V42.1897" stroke="#F6BE31" stroke-width="3" stroke-miterlimit="10"/>
<path d="M44.3802 24.5249V28.8343" stroke="#F6BE31" stroke-width="3" stroke-miterlimit="10"/>
<path d="M25.5668 111.678L20.6342 113.112L17.6737 102.855H7.89308L4.93707 113.112L0.00445557 111.678L10.4573 75.4583H15.1139L25.5713 111.678H25.5668ZM16.1957 97.7174L12.7856 85.8934L9.37554 97.7174H16.1957Z" fill="#000C5C"/>
<path d="M41.8471 93.2656H34.9468V88.1282H41.8471V87.6163C41.8471 85.929 42.1765 84.2908 42.8309 82.7504C43.4587 81.2635 44.3624 79.9235 45.5109 78.7794C46.6595 77.6309 47.9951 76.7316 49.482 76.0994C51.0223 75.445 52.6606 75.1156 54.3478 75.1156C56.035 75.1156 57.6733 75.445 59.2136 76.0994L57.2103 80.8317C56.3022 80.4489 55.3406 80.253 54.3478 80.253C53.3551 80.253 52.3935 80.4489 51.4853 80.8317C50.6083 81.2012 49.8203 81.7354 49.1436 82.4121C48.467 83.0888 47.9327 83.8768 47.5632 84.7538C47.1804 85.6619 46.9845 86.6235 46.9845 87.6163V88.1282H59.9437V93.2656H46.9845V112.44H41.8471V93.2656Z" fill="#000C5C"/>
<path d="M70.7929 88.0436C70.2497 88.6624 69.9515 89.348 69.6576 90.225C69.622 90.2606 69.5953 90.2963 69.5686 90.3363V93.1988H72.6359C72.6047 93.0876 72.5869 92.9718 72.5736 92.8516C72.5291 92.6557 72.5023 92.4554 72.5068 92.2551C72.4801 92.0725 72.4712 91.8856 72.489 91.6986C72.4756 91.4938 72.4845 91.289 72.5157 91.0842C72.4934 90.826 72.5113 90.5634 72.5647 90.3141C72.5736 90.1493 72.5958 89.9802 72.6404 89.8199C72.6582 89.5038 72.7294 89.1878 72.8629 88.9028C72.9297 88.609 73.0499 88.3286 73.2235 88.0837C73.2235 88.0703 73.2324 88.057 73.2369 88.0436H70.7884H70.7929Z" fill="#000C5C"/>
<path opacity="0.99" d="M81.8111 87.6831V87.1711C81.8111 86.1783 82.007 85.2167 82.3898 84.3086C82.7593 83.4316 83.2936 82.6436 83.9702 81.9669C84.6469 81.2902 85.4349 80.756 86.3119 80.3865C87.2201 80.0037 88.1817 79.8078 89.1744 79.8078C90.1672 79.8078 91.1288 80.0037 92.0369 80.3865L94.0403 75.6542C92.4999 74.9998 90.8617 74.6704 89.1744 74.6704C87.4872 74.6704 85.8489 74.9998 84.3086 75.6542C82.8217 76.2819 81.4817 77.1857 80.3376 78.3342C79.189 79.4828 78.2897 80.8183 77.6576 82.3053C77.4839 82.7148 77.3459 83.1333 77.2213 83.5562C78.4633 83.1422 79.7054 82.7549 80.9519 82.7549H83.1689C82.9552 82.933 82.7504 83.1244 82.559 83.3247C81.13 84.8205 80.3286 86.8773 80.0571 88.9162C80.0526 88.9652 80.0526 89.0186 80.0437 89.0676C80.0437 89.1076 80.0437 89.1522 80.0437 89.1922C80.0526 89.3347 80.0526 89.4771 80.0437 89.6151C80.0437 89.7442 80.0437 89.8778 80.0215 90.0069C80.0215 90.0959 80.0126 90.185 80.0037 90.274C80.0037 90.363 80.0037 90.4521 79.9992 90.5411C80.0037 90.7103 79.9992 90.8795 79.9725 91.0442V91.0531C79.9903 91.3959 80.017 91.7387 80.066 92.0636C80.017 91.7342 79.9903 91.3959 79.9725 91.0531C79.9814 91.3914 79.9235 91.7342 79.7944 92.0458C79.7054 92.5133 79.4962 92.9496 79.1445 93.2701C78.9797 93.4749 78.7794 93.6574 78.5301 93.7865C78.3654 93.9156 78.1784 94.018 77.9647 94.0892C77.7288 94.2406 77.4528 94.3519 77.1278 94.3919C76.9898 94.4632 76.8384 94.521 76.6693 94.5611V111.981H81.8066V92.8071H94.7659V87.6697H81.8066L81.8111 87.6831Z" fill="#000C5C"/>
<path d="M103.714 100.286C103.714 93.3947 109.319 87.7854 116.21 87.7854C118.881 87.7854 121.455 88.6402 123.574 90.185V88.1282H128.711V112.44H123.574V110.383C121.455 111.928 118.881 112.782 116.21 112.782C109.319 112.782 103.714 107.178 103.714 100.282V100.286ZM116.21 107.649C120.27 107.649 123.574 104.346 123.574 100.286C123.574 96.2261 120.27 92.9228 116.21 92.9228C112.15 92.9228 108.847 96.2261 108.847 100.286C108.847 104.346 112.15 107.649 116.21 107.649Z" fill="#000C5C"/>
<path d="M145.245 112.44H140.108V88.1282H145.245V89.2323C146.834 88.2885 148.655 87.7854 150.552 87.7854C156.312 87.7854 160.996 92.4687 160.996 98.2294V112.44H155.858V98.2294C155.858 95.3046 153.476 92.9228 150.552 92.9228C147.627 92.9228 145.245 95.3046 145.245 98.2294V112.44Z" fill="#000C5C"/>
<path d="M59.5297 109.145C59.8503 109.435 60.1886 109.706 60.5403 109.951C60.8831 110.209 61.2437 110.436 61.6087 110.659C62.3433 111.086 63.1179 111.429 63.9192 111.674C65.5041 112.199 67.1824 112.306 68.8029 112.021C69.6087 111.87 70.3966 111.652 71.1312 111.34C71.8657 111.024 72.5513 110.61 73.1434 110.098C74.3276 109.083 75.1779 107.69 75.5874 106.145C76.0193 104.609 76.095 102.948 75.8056 101.355C75.6854 100.553 75.4494 99.7742 75.1334 99.0396C74.8262 98.3006 74.3944 97.6284 73.878 97.0586C73.3704 96.4709 72.6982 96.097 71.9147 95.7008C71.5274 95.5004 71.1089 95.2778 70.7305 94.9796C70.3477 94.6858 70.0049 94.3162 69.76 93.9111C69.2614 93.092 69.0566 92.1527 69.0566 91.2534C69.0477 90.3497 69.2436 89.4771 69.5285 88.6535L69.6131 88.6758C69.4083 89.5127 69.2881 90.3764 69.346 91.2356C69.3994 92.0903 69.6532 92.9406 70.1429 93.644C71.1 95.1576 73.1568 95.2378 74.3632 96.5644C74.982 97.1788 75.4895 97.9133 75.8412 98.7102C76.2063 99.5026 76.4778 100.34 76.6292 101.199C76.9675 102.913 76.8963 104.698 76.4467 106.385C75.9837 108.068 75.0265 109.631 73.6776 110.743C72.3198 111.861 70.6192 112.489 68.8964 112.707C67.1691 112.929 65.3839 112.742 63.7545 112.11C62.1296 111.482 60.656 110.476 59.4719 109.203L59.5386 109.145H59.5297Z" fill="#000C5C"/>
<path d="M76.1528 102.672C76.135 102.695 76.1217 102.721 76.1039 102.739C76.0237 102.824 75.8946 102.868 75.9124 102.864L75.8234 102.899L75.6409 102.966C75.5207 103.006 75.4005 103.042 75.2803 103.077C75.0399 103.144 74.7906 103.193 74.5457 103.233C74.0516 103.309 73.5441 103.327 73.041 103.273C72.0349 103.175 71.0555 102.761 70.2898 102.111C69.5241 101.461 68.9632 100.598 68.656 99.6629C68.3488 98.7236 68.2998 97.7175 68.4824 96.7603L68.5091 96.6179L68.6426 96.5911C69.5063 96.4086 70.3966 96.2617 71.3048 96.3864C71.75 96.4487 72.2085 96.5911 72.578 96.885C72.7606 97.0274 72.9164 97.21 73.041 97.4058C73.1612 97.6062 73.2369 97.8243 73.2992 98.038C73.4194 98.4698 73.4862 98.8972 73.6109 99.3068C73.7311 99.7208 73.8958 100.121 74.1095 100.495C74.5324 101.252 75.1289 101.907 75.8279 102.427L76.1662 102.681L76.1528 102.672ZM75.4495 102.138C74.8841 101.693 74.3855 101.159 74.0071 100.54C73.7756 100.166 73.5886 99.7653 73.4461 99.3468C73.2992 98.9284 73.2146 98.4965 73.0811 98.0914C72.9564 97.6818 72.7383 97.3257 72.4044 97.0897C72.075 96.8538 71.6654 96.7381 71.2514 96.698C70.4144 96.6179 69.5597 96.787 68.7317 97.0007L68.8919 96.8315C68.7628 97.7264 68.843 98.6479 69.159 99.4848C69.4707 100.317 70.0049 101.065 70.6949 101.604C71.3894 102.138 72.2308 102.454 73.0944 102.503C73.5263 102.53 73.967 102.494 74.3944 102.414C74.6081 102.37 74.8217 102.321 75.031 102.254C75.1334 102.223 75.2358 102.183 75.3382 102.147L75.4851 102.085L75.5563 102.054C75.6008 102.036 75.4984 102.071 75.445 102.143C75.445 102.143 75.445 102.143 75.445 102.147L75.4495 102.138Z" fill="#000C5C"/>
<path d="M76.0772 102.534C75.3204 102.45 74.5858 102.232 73.9047 101.916C73.2236 101.599 72.5958 101.181 72.026 100.705C70.8908 99.743 69.996 98.5277 69.3549 97.2099C70.0628 98.4965 71.011 99.6495 72.164 100.531C72.7428 100.967 73.366 101.341 74.0338 101.608C74.7016 101.875 75.4005 102.045 76.1083 102.089L76.0727 102.534H76.0772Z" fill="#000C5C"/>
<path d="M67.6143 109.671C67.2403 108.709 66.5547 107.823 65.6332 107.222C64.7161 106.617 63.572 106.292 62.4056 106.327C63.5453 106.074 64.7963 106.158 65.9404 106.63C67.089 107.097 68.104 107.952 68.7985 109.056L67.6098 109.671H67.6143Z" fill="#000C5C"/>
<path d="M72.4667 111.563C70.8463 110.761 69.1323 110.147 67.3516 109.893C66.4612 109.773 65.562 109.728 64.6627 109.804C63.7634 109.871 62.882 110.067 62.0005 110.325C60.242 110.833 58.5236 111.647 56.6405 111.963C54.7619 112.311 52.7763 111.803 51.2983 110.663C52.8476 111.71 54.8019 112.075 56.5782 111.634C58.3678 111.229 60.0106 110.325 61.7913 109.688C62.6816 109.372 63.6121 109.101 64.5692 108.976C65.5264 108.838 66.4969 108.825 67.4584 108.896C69.3861 109.056 71.2603 109.604 73.0232 110.352L72.4623 111.563H72.4667Z" fill="#000C5C"/>
<path d="M69.8802 83.0754C68.4824 84.2151 67.5297 85.9335 67.4451 87.7676C67.405 88.6803 67.5564 89.6062 67.8725 90.4699C68.193 91.3336 68.6471 92.1571 69.2392 92.8783C68.6204 92.1839 68.1307 91.3736 67.7701 90.51C67.4139 89.6463 67.218 88.707 67.2225 87.7587C67.2314 86.8105 67.4584 85.8667 67.8725 85.0075C68.2865 84.1483 68.8741 83.3737 69.5909 82.7371L69.8802 83.0754Z" fill="#000C5C"/>
<path d="M82.2029 83.8945L82.8751 82.9552L82.9107 83.0621C81.308 82.8261 79.6609 82.9997 78.1651 83.5072C76.6692 84.0281 75.3515 84.9763 74.4077 86.2228C73.455 87.4605 72.903 88.9696 72.7205 90.5144C72.5469 92.0636 72.8051 93.644 73.3794 95.0909L72.9831 94.8193C74.3721 94.8416 75.7744 94.7793 77.0699 94.4097C77.711 94.2228 78.3209 93.9379 78.7972 93.5194C79.278 93.1054 79.6075 92.5489 79.7321 91.9078C79.8612 91.2668 79.8523 90.55 79.9013 89.8333C79.9458 89.1165 80.0348 88.3864 80.2352 87.6875C80.6225 86.2896 81.2947 84.9897 82.2029 83.8945C81.4416 85.0921 80.8673 86.4054 80.6225 87.7765C80.4978 88.4621 80.4399 89.1521 80.4444 89.8511C80.4399 90.55 80.4934 91.2668 80.3776 92.0236C80.2708 92.7848 79.879 93.5372 79.3047 94.0714C78.7304 94.6101 78.0181 94.9484 77.3148 95.1799C75.8857 95.6384 74.4122 95.7052 72.9742 95.6963H72.6893L72.578 95.4248C71.9236 93.8533 71.6654 92.1126 71.8702 90.4165C72.0661 88.7203 72.7516 87.0865 73.8201 85.7554C74.3543 85.0876 75.0087 84.5312 75.7166 84.0593C76.4244 83.5874 77.2035 83.2357 78.0137 83.0131C79.6342 82.5546 81.3392 82.5679 82.9419 82.933L83.0532 82.9597L82.9775 83.0398L82.2073 83.8901L82.2029 83.8945Z" fill="#000C5C"/>
<path d="M68.7673 92.4732C67.9125 91.8989 67.129 91.1955 66.5369 90.3319C65.9314 89.4771 65.5664 88.4399 65.5219 87.367C65.4907 86.2941 65.8291 85.2078 66.4657 84.3308C67.0978 83.4494 68.006 82.7816 68.9988 82.3631L69.1768 82.2874L69.3415 82.4121C70.1518 83.0264 70.9442 83.6809 71.6164 84.5134C71.9503 84.9318 72.2397 85.4126 72.3866 85.9958C72.5513 86.5701 72.4044 87.2913 72.0527 87.7765C71.7144 88.2618 71.3315 88.569 71.0243 88.9296C70.7127 89.2813 70.4411 89.6508 70.2319 90.0737C69.8001 90.9062 69.6086 91.8678 69.5864 92.8516V93.1143L69.395 92.9763C69.1768 92.8116 68.9676 92.6424 68.7583 92.4732L68.8118 92.402C69.0522 92.5133 69.2881 92.629 69.5196 92.7492L69.3282 92.8739C69.1412 91.8722 69.208 90.786 69.5953 89.7932C69.7867 89.2946 70.0583 88.8183 70.3922 88.4042C70.7127 87.9858 71.0822 87.6207 71.3092 87.2779C71.5318 86.9396 71.5719 86.5968 71.4962 86.2006C71.4161 85.8088 71.1935 85.4082 70.9308 85.0253C70.3966 84.2596 69.6665 83.5918 68.9142 82.9641L69.257 83.0131C68.3488 83.3514 67.5207 83.9079 66.9242 84.6692C66.3232 85.426 65.976 86.3831 65.9582 87.3625C65.9403 88.3419 66.2208 89.3347 66.755 90.185C67.2759 91.0442 68.0015 91.7832 68.8162 92.3975L68.7628 92.4688L68.7673 92.4732Z" fill="#000C5C"/>
<path d="M73.5797 95.2378C74.5279 92.7047 75.7833 90.2918 77.3415 88.0881C78.125 86.9885 78.9797 85.9468 79.9013 84.9674C80.1328 84.7226 80.3643 84.4777 80.6091 84.2462C80.8495 84.0103 81.0854 83.7743 81.3437 83.5562L82.8662 82.234L81.3837 83.5963C81.13 83.8189 80.9029 84.0593 80.667 84.3041C80.431 84.54 80.2084 84.7938 79.9814 85.0431C79.0866 86.0403 78.2674 87.1043 77.5195 88.2128C76.0326 90.4387 74.8618 92.8605 73.9937 95.3847L73.5752 95.2333L73.5797 95.2378Z" fill="#000C5C"/>
<path d="M81.9046 82.7504L82.9864 82.9419L83.3158 82.6837L81.9046 82.7504Z" fill="#000C5C"/>
</g>
<defs>
<clipPath id="clip0_452_668">
<rect width="161" height="123.195" fill="white"/>
</clipPath>
</defs>
</svg>
