<svg width="200" height="231" viewBox="0 0 200 231" fill="none" xmlns="http://www.w3.org/2000/svg">
<mask id="mask0_641_1164" style="mask-type:luminance" maskUnits="userSpaceOnUse" x="0" y="0" width="200" height="231">
<path d="M199.971 131.014C199.971 186.236 155.207 231 99.9855 231C44.7644 231 0 186.236 0 131.014C0 75.7933 44.7644 0 99.9855 0C155.207 0 199.971 75.7933 199.971 131.014Z" fill="white"/>
</mask>
<g mask="url(#mask0_641_1164)">
<path d="M99.9855 231C155.206 231 199.971 186.235 199.971 131.014C199.971 75.794 155.206 31.0289 99.9855 31.0289C44.765 31.0289 0 75.794 0 131.014C0 186.235 44.765 231 99.9855 231Z" fill="#8674FC"/>
<path d="M149.963 93.4488C149.963 93.4488 132.421 83.685 106.667 76.6621C80.9132 69.6392 55.1696 67.2293 55.1696 67.2293C55.1696 67.2293 82.6198 87.7291 101.134 91.556C119.648 95.3829 149.963 93.4384 149.963 93.4384V93.4488Z" fill="#BFCDF2"/>
<path d="M120.206 155.579L77.5311 85.795L50.1532 76.9414C50.1532 76.9414 42.9028 90.6251 40.4929 98.4134C38.0726 106.202 36.304 118.262 36.304 118.262C36.304 118.262 32.1875 120.175 28.2261 125.926C24.2648 131.687 23.5718 138.927 23.5718 138.927L33.7596 142.019C33.7596 142.019 33.077 188.304 70.6116 180.992L93.8213 222.302L140.065 190.197L120.206 155.579Z" fill="#E47573"/>
<path d="M149.963 93.4488C153.676 100.141 155.227 108.022 154.328 115.624C154.255 116.224 154.038 116.969 153.438 117.062C153.128 117.103 152.828 116.948 152.569 116.772C151.132 115.79 150.159 114.155 150.004 112.418C151.121 119.286 149.828 126.37 147.284 132.845C144.75 139.32 141.016 145.246 137.107 151.007C135.317 153.635 133.476 156.272 132.338 159.24C131.201 162.209 130.818 165.601 132.018 168.549C130.487 168.653 128.925 167.908 128.056 166.646C129.122 168.042 130.094 170.256 128.698 171.311C127.767 172.004 126.464 171.59 125.388 171.145C122.533 169.956 119.627 168.735 117.217 166.801C114.052 164.267 111.921 160.668 110.101 157.037C105.912 148.711 102.944 139.785 101.299 130.621C97.1827 130.135 92.6007 129.815 88.4842 129.329C88.5463 123.992 88.6187 118.51 89.2289 113.214C48.6224 106.388 51.6839 83.4161 50.7117 80.0753C48.5707 82.0612 46.4711 84.5435 44.8886 87.0051C44.7852 87.1602 44.8369 87.0568 44.7334 87.2223C42.3649 83.6333 42.851 78.6687 45.1265 75.0176C47.4019 71.3665 51.1875 68.8946 55.1592 67.2397C55.1592 67.2397 70.9219 78.9169 101.703 85.9708C132.483 93.0144 149.953 93.4591 149.953 93.4591L149.963 93.4488Z" fill="#2C2D40"/>
<path d="M70.353 181.137C79.1652 176.555 86.9535 170.018 92.9938 162.136C88.8256 172.035 82.4853 181.219 74.7178 188.646" fill="#2C2D40"/>
<path d="M184.788 243.939C184.788 243.939 148.898 188.573 136.931 184.333C124.964 180.092 100.296 198.792 84.0886 212C67.8915 225.208 48.9431 247.673 48.9431 247.673L184.788 243.939Z" fill="#BFCDF2"/>
<g style="mix-blend-mode:multiply" opacity="0.32">
<path d="M68.2964 135.996C68.6688 132.107 64.0016 128.478 57.8718 127.891C51.742 127.304 46.4709 129.981 46.0985 133.871C45.726 137.76 50.3932 141.389 56.523 141.976C62.6528 142.563 67.9239 139.886 68.2964 135.996Z" fill="#FF7673"/>
</g>
<path d="M41.8994 116.876C41.8994 119.317 43.1613 121.302 44.723 121.302C46.2848 121.302 47.5467 119.327 47.5467 116.876C47.5467 114.424 46.2848 112.449 44.723 112.449C43.1613 112.449 41.8994 114.424 41.8994 116.876Z" fill="#2C2D40"/>
<path d="M65.3159 111.89C56.0383 110.091 39.8412 100.689 39.8412 100.689C39.8412 100.689 41.0513 96.4172 41.8374 94.6486C48.3845 101.785 56.5037 107.877 65.3159 111.89Z" fill="#2C2D40"/>
<path d="M150.666 94.1004C152.125 99.1064 153.821 104.454 157.948 107.629C160.523 109.615 163.76 110.504 166.687 111.942C171.528 114.321 175.634 118.375 177.579 123.402C179.523 128.429 179.151 134.428 176.151 138.917C180.909 137.262 186.36 140.696 188.17 145.402C189.98 150.097 188.832 155.486 186.525 159.964C191.697 158.248 197.727 161.485 199.981 166.45C202.236 171.414 201.119 177.485 198.016 181.974C194.913 186.463 190.094 189.525 185.015 191.5C186.587 192.1 187.415 193.931 187.322 195.606C187.229 197.282 186.411 198.833 185.501 200.25C180.526 208.059 172.428 213.81 163.409 215.92C160.947 216.499 157.586 216.303 156.893 213.882C157.772 215.072 157.389 216.83 156.427 217.947C155.465 219.064 154.059 219.674 152.693 220.233C148.329 222.022 143.819 223.646 139.123 224.029C134.428 224.412 129.453 223.429 125.771 220.471C122.089 217.513 120.02 212.372 121.468 207.883C116.617 210.676 110.267 210.645 105.447 207.801C100.627 204.967 97.5136 199.423 97.6067 193.827C97.6584 190.238 99.5926 186.163 103.14 185.646C98.6824 185.263 95.5898 180.723 94.9899 176.296C94.0177 169.066 98.4755 161.444 105.261 158.754C101.651 156.613 100.13 151.566 101.951 147.78C102.561 146.508 103.492 145.402 104.412 144.326C118.799 127.508 131.976 106.326 149.963 93.4384" fill="#2C2D40"/>
<path d="M121.882 124.529C121.52 130.683 118.396 136.62 113.535 140.406C112.015 141.595 110.287 142.588 108.374 142.888C104.071 143.56 99.8719 140.333 98.217 136.31C96.5621 132.287 96.9552 127.715 97.9171 123.474C99.1686 117.993 101.961 112.118 107.308 110.391C115.935 107.608 122.326 116.907 121.871 124.529H121.882Z" fill="#E47573"/>
<g style="mix-blend-mode:multiply">
<path d="M102.861 138.027C104.702 137.293 106.336 136.041 107.505 134.438C107.743 134.117 107.97 133.766 108.001 133.362C108.064 132.607 107.422 131.987 106.843 131.501C105.664 130.508 104.485 129.515 103.316 128.522C103.078 128.325 102.84 128.108 102.727 127.829C102.613 127.508 102.675 127.157 102.747 126.826C103.637 122.606 104.733 118.055 108.084 115.335C108.984 114.6 110.06 114.021 111.218 113.907C112.935 113.731 114.631 114.6 115.841 115.831C117.052 117.062 117.858 118.624 118.613 120.175C118.613 120.175 120.248 128.904 114.569 134.717C108.891 140.53 102.861 138.017 102.861 138.017V138.027Z" fill="#E47573"/>
</g>
<path d="M118.603 120.196C117.641 118.696 116.69 117.155 115.386 116.069C114.124 114.983 112.459 114.362 111.011 114.704C109.563 115.055 108.229 116.172 107.257 117.465C106.253 118.758 105.529 120.299 105.002 121.923C104.433 123.537 104.04 125.243 103.647 126.97C103.595 127.188 103.554 127.353 103.554 127.446C103.554 127.55 103.544 127.508 103.564 127.57C103.616 127.684 104.061 128.046 104.371 128.336C105.043 128.925 105.695 129.525 106.357 130.125L107.35 131.035C107.691 131.356 108.063 131.707 108.343 132.235C108.643 132.731 108.684 133.528 108.405 134.045C108.136 134.572 107.826 134.883 107.515 135.234C106.233 136.579 104.609 137.582 102.871 138.048C104.443 137.189 105.798 136.031 106.781 134.635C107.019 134.293 107.288 133.921 107.391 133.621C107.484 133.321 107.433 133.135 107.257 132.866C106.905 132.359 106.088 131.832 105.405 131.283C104.702 130.735 103.999 130.187 103.306 129.629C102.954 129.318 102.644 129.184 102.147 128.584C101.909 128.284 101.765 127.787 101.785 127.446C101.785 127.094 101.847 126.815 101.889 126.598C102.24 124.84 102.623 123.061 103.213 121.302C103.823 119.565 104.64 117.817 105.871 116.327C106.481 115.583 107.205 114.931 108.001 114.362C108.808 113.804 109.749 113.369 110.784 113.225C111.818 113.08 112.873 113.266 113.762 113.68C114.662 114.093 115.438 114.693 116.079 115.386C117.341 116.803 118.055 118.499 118.644 120.185L118.603 120.196Z" fill="#2C2D40"/>
<path d="M35.3524 151.463C40.4515 152.983 45.2506 155.217 49.5843 158.041C44.7748 156.138 39.7688 154.948 34.7628 154.503L35.3524 151.452V151.463Z" fill="#2C2D40"/>
<path d="M44.4233 124.819C44.4233 124.819 38.9001 134.8 43.9992 134.8C49.0983 134.8 44.4233 124.819 44.4233 124.819Z" fill="white"/>
<path d="M155.031 90.139C156.893 90.139 158.403 88.6294 158.403 86.7672C158.403 84.905 156.893 83.3954 155.031 83.3954C153.169 83.3954 151.659 84.905 151.659 86.7672C151.659 88.6294 153.169 90.139 155.031 90.139Z" stroke="#BFCDF2" stroke-width="0.53" stroke-miterlimit="10"/>
<path d="M167.132 95.4967C167.132 96.4276 167.887 97.1826 168.818 97.1826C169.749 97.1826 170.504 96.4276 170.504 95.4967C170.504 94.5658 169.749 93.8108 168.818 93.8108C167.887 93.8108 167.132 94.5658 167.132 95.4967Z" fill="#BFCDF2"/>
<path d="M76.714 19.7137C78.5762 19.7137 80.0858 18.2041 80.0858 16.3419C80.0858 14.4797 78.5762 12.9701 76.714 12.9701C74.8518 12.9701 73.3422 14.4797 73.3422 16.3419C73.3422 18.2041 74.8518 19.7137 76.714 19.7137Z" stroke="#BFCDF2" stroke-width="0.53" stroke-miterlimit="10"/>
<path d="M63.3818 32.3735C63.3818 33.3044 64.1369 34.0594 65.0677 34.0594C65.9986 34.0594 66.7536 33.3044 66.7536 32.3735C66.7536 31.4427 65.9986 30.6876 65.0677 30.6876C64.1369 30.6876 63.3818 31.4427 63.3818 32.3735Z" fill="#BFCDF2"/>
<path d="M135.834 21.6789C135.834 23.5406 137.345 25.0507 139.206 25.0507C141.068 25.0507 142.578 23.5406 142.578 21.6789C142.578 19.8171 141.068 18.3071 139.206 18.3071C137.345 18.3071 135.834 19.8171 135.834 21.6789Z" stroke="#BFCDF2" stroke-width="0.53" stroke-miterlimit="10"/>
<path d="M136.972 34.7317C136.972 35.6626 137.727 36.4176 138.658 36.4176C139.589 36.4176 140.344 35.6626 140.344 34.7317C140.344 33.8008 139.589 33.0458 138.658 33.0458C137.727 33.0458 136.972 33.8008 136.972 34.7317Z" fill="#BFCDF2"/>
<g style="mix-blend-mode:overlay">
<path d="M62.5854 82.5783C64.7368 86.0432 67.3329 89.1875 70.3323 91.887C73.3318 94.5762 76.6829 96.8827 80.334 98.5582C83.954 100.306 87.8637 101.423 91.8561 102.002C93.8523 102.302 95.8691 102.447 97.8964 102.437C99.9236 102.458 101.951 102.292 103.968 102.023C101.992 102.52 99.9546 102.788 97.9067 102.944C95.8588 103.057 93.8006 103.006 91.7526 102.799C87.6568 102.364 83.6437 101.216 79.8996 99.4994C76.1865 97.7101 72.7319 95.3519 69.7945 92.4765C66.8571 89.6012 64.3748 86.2604 62.5958 82.5887L62.5854 82.5783Z" fill="#BFCDF2"/>
<path d="M81.2235 86.7362C85.9709 89.415 90.8838 91.7629 95.9622 93.697C101.041 95.6208 106.243 97.1929 111.559 98.2686C116.855 99.427 122.254 100.089 127.674 100.368L131.739 100.503L135.814 100.461L139.889 100.285L143.964 99.9442L139.92 100.554L135.845 100.968L131.749 101.154H127.643C122.171 101.051 116.71 100.368 111.342 99.2822C105.995 98.1135 100.72 96.5413 95.6623 94.4417C90.6046 92.3421 85.7434 89.7977 81.2131 86.7465L81.2235 86.7362Z" fill="#BFCDF2"/>
<path d="M139.971 110.649C142.536 110.649 145.112 111.042 147.594 111.746C150.077 112.449 152.497 113.525 154.534 115.2C155.548 116.028 156.437 117.041 157.12 118.189C157.803 119.337 158.216 120.672 158.289 122.016C158.372 123.361 158.144 124.726 157.575 125.977C157.017 127.229 156.055 128.315 154.814 128.977L154.648 128.087C156.83 128.325 158.971 129.018 160.864 130.146C162.757 131.273 164.412 132.897 165.415 134.903C166.429 136.92 166.698 139.258 166.263 141.44C165.839 143.623 164.629 145.722 162.716 146.974L162.498 146.157C164.691 146.291 166.739 147.346 168.259 148.846C169.78 150.356 170.825 152.383 171 154.524C171.187 156.675 170.452 158.816 169.211 160.502C167.97 162.199 166.16 163.491 164.122 163.936C168.125 162.767 170.866 158.578 170.421 154.586C170.204 152.6 169.18 150.749 167.732 149.394C166.284 148.029 164.381 147.16 162.436 147.046L161.112 146.974L162.219 146.239C163.895 145.122 164.96 143.25 165.332 141.264C165.715 139.279 165.446 137.148 164.526 135.369C163.595 133.569 162.105 132.08 160.357 131.014C158.609 129.939 156.603 129.277 154.555 129.029L152.993 128.842L154.39 128.139C156.52 127.063 157.554 124.467 157.43 122.068C157.399 119.606 155.993 117.341 154.11 115.717C152.218 114.062 149.88 112.956 147.48 112.139C145.06 111.321 142.536 110.846 139.971 110.66V110.649Z" fill="#BFCDF2"/>
<path d="M135.721 142.102C138.234 142.516 140.737 143.136 143.106 144.129C145.474 145.112 147.708 146.581 149.373 148.618C151.049 150.666 151.876 153.345 151.794 155.993C151.732 157.317 151.432 158.651 150.821 159.861C150.211 161.061 149.27 162.126 148.091 162.829L148.018 161.981C151.297 163.181 153.904 166.025 154.793 169.418C155.662 172.821 154.772 176.565 152.497 179.213L152.259 178.458C157.213 179.72 161.02 184.281 161.413 189.307C161.816 194.334 158.723 199.33 154.214 201.233C158.599 199.051 161.257 194.086 160.771 189.37C160.254 184.653 156.562 180.495 152.032 179.368L151.297 179.182L151.783 178.602C153.831 176.182 154.607 172.728 153.79 169.677C153.004 166.625 150.646 163.978 147.677 162.871L146.726 162.519L147.594 162.023C149.684 160.833 150.811 158.392 150.914 155.962C151.059 153.531 150.356 150.997 148.846 149.042C147.325 147.067 145.205 145.598 142.93 144.502C140.644 143.405 138.182 142.702 135.7 142.112L135.721 142.102Z" fill="#BFCDF2"/>
<path d="M122.461 155.879C126.722 157.162 129.98 161.412 130.063 166.025C130.125 168.322 129.37 170.618 128.046 172.49C126.743 174.372 124.871 175.893 122.678 176.689L122.461 175.727C123.268 175.634 124.105 175.841 124.788 176.255C125.481 176.658 126.019 177.248 126.422 177.91C127.219 179.213 127.529 180.826 127.126 182.336C126.733 183.805 125.822 185.067 124.767 186.049C123.702 187.042 122.482 187.839 121.199 188.47L121.127 187.715C122.575 188.221 123.392 189.68 123.412 191.066C123.433 192.472 122.771 193.765 121.902 194.748C120.123 196.734 117.331 197.696 114.797 197.178C117.351 197.447 119.968 196.361 121.499 194.407C122.275 193.455 122.802 192.255 122.74 191.076C122.688 189.928 121.933 188.78 120.889 188.49L119.948 188.221L120.827 187.735C122.026 187.063 123.185 186.318 124.147 185.388C125.109 184.457 125.884 183.34 126.205 182.078C126.526 180.868 126.246 179.502 125.574 178.437C124.902 177.372 123.785 176.586 122.585 176.71L118.22 177.175L122.368 175.737C124.354 175.055 126.091 173.679 127.322 171.952C128.543 170.225 129.298 168.146 129.349 166.015C129.401 161.754 126.598 157.513 122.482 155.869L122.461 155.879Z" fill="#BFCDF2"/>
</g>
<path d="M114.642 50.9599L106.75 66.1744L103.182 61.0029L114.021 62.2854L118.158 62.7715L116.348 65.8537L105.302 84.5952L111.694 63.7955L114.021 67.3638L103.182 68.636L98.1757 69.2255L99.6133 63.4748L103.761 46.8434L114.642 50.9599Z" fill="#1B283E"/>
<path d="M166.367 64.7781L162.447 72.3491L160.668 69.7737L166.057 70.415L168.125 70.6529L167.215 72.1836L161.723 81.513L164.898 71.17L166.057 72.9387L160.668 73.5799L158.175 73.8695L158.889 71.0045L160.958 62.7301L166.367 64.7781Z" fill="#1B283E"/>
<path d="M61.7787 45.1161L57.3622 53.3284L55.5832 50.753L60.9823 51.3942L63.0405 51.6321L62.1407 53.1629L56.6382 62.4923L59.8239 52.1493L60.9823 53.9179L55.5832 54.5592L53.0906 54.8488L53.8042 51.9838L55.6039 44.7334L61.7787 45.1161Z" fill="#1B283E"/>
<path d="M147.418 64.7781L143.488 72.3491L141.719 69.7737L147.108 70.415L149.166 70.6529L148.267 72.1836L142.764 81.513L145.95 71.17L147.108 72.9387L141.719 73.5799L139.227 73.8695L139.94 71.0045L141.999 62.7301L147.418 64.7781Z" fill="#1B283E"/>
<path d="M146.912 52.594H66.6503C66.0504 49.2946 66.5572 46.2952 68.8119 43.8129C71.0667 41.3306 74.5006 39.9653 77.8517 40.2342C76.9932 35.2592 78.6481 30.4808 82.051 26.747C85.4435 23.0028 91.3183 22.4753 96.3553 22.858C98.2791 18.8449 103.337 15.742 107.774 15.4007C111.466 15.1111 115.148 16.766 117.765 19.3828C120.372 21.9995 120.568 23.6854 121.354 27.3055C123.899 26.8814 126.195 26.8814 128.615 27.7813C129.856 28.2467 130.953 29.0327 131.935 29.9222C134.748 32.4563 136.776 35.9315 137.282 39.686C140.137 40.2238 142.681 41.2478 144.388 43.5956C146.105 45.9435 147.284 49.7187 146.932 52.6044L146.912 52.594Z" fill="#BFCDF2"/>
<path d="M180.061 65.8227H124.085C123.671 63.5162 124.023 61.4373 125.595 59.6996C127.167 57.962 129.567 57.0208 131.894 57.207C131.294 53.7317 132.452 50.4116 134.821 47.7949C137.189 45.1884 141.285 44.8161 144.802 45.085C146.146 42.2821 149.673 40.1204 152.766 39.8825C155.341 39.686 157.906 40.8341 159.727 42.6648C161.547 44.4955 161.681 45.6642 162.23 48.1879C164.009 47.888 165.601 47.888 167.298 48.5189C168.166 48.8395 168.932 49.3877 169.615 50.0083C171.58 51.7769 172.986 54.1972 173.338 56.8139C175.334 57.1863 177.103 57.9103 178.292 59.5445C179.492 61.1787 180.319 63.8162 180.061 65.8227Z" fill="#2C2D40"/>
<path d="M90.646 44.8368H45.4161C45.0748 42.9751 45.3644 41.2892 46.6366 39.8929C47.9088 38.4966 49.8429 37.7208 51.7254 37.876C51.2392 35.073 52.1805 32.3839 54.0939 30.2739C56.0074 28.1639 59.3171 27.864 62.1511 28.0812C63.2371 25.8161 66.0814 24.0681 68.5844 23.8819C70.6633 23.7164 72.7423 24.6473 74.211 26.1264C75.6797 27.6054 75.7935 28.557 76.2279 30.5945C77.6655 30.3566 78.9584 30.3566 80.3237 30.8634C81.027 31.122 81.6372 31.5668 82.1958 32.0632C83.7782 33.4906 84.916 35.4454 85.2056 37.5657C86.8191 37.8656 88.2464 38.4448 89.2083 39.7687C90.1702 41.0927 90.8425 43.213 90.6356 44.8472L90.646 44.8368Z" stroke="#2C2D40" stroke-miterlimit="10"/>
</g>
</svg>
